<ttFont>
    <TTGlyph name=".notdef" xMin="69" yMin="0" xMax="623" yMax="1390">
      <contour>
        <pt x="554" y="69" on="1"/>
        <pt x="554" y="1320" on="1"/>
        <pt x="138" y="1320" on="1"/>
        <pt x="138" y="69" on="1"/>
      </contour>
      <contour>
        <pt x="69" y="1390" on="1"/>
        <pt x="623" y="1390" on="1"/>
        <pt x="623" y="0" on="1"/>
        <pt x="69" y="0" on="1"/>
      </contour>
    </TTGlyph>
    <TTGlyph name=".ttfautohint" xMin="0" yMin="0" xMax="0" yMax="0">
      <contour>
        <pt x="0" y="0" on="1"/>
      </contour>
    </TTGlyph>
    <TTGlyph name="A" xMin="43" yMin="0" xMax="1469" yMax="1607">
      <contour>
        <pt x="937" y="1607" on="1"/>
        <pt x="1469" y="0" on="1"/>
        <pt x="1162" y="0" on="1"/>
        <pt x="1044" y="369" on="1"/>
        <pt x="468" y="369" on="1"/>
        <pt x="351" y="0" on="1"/>
        <pt x="43" y="0" on="1"/>
        <pt x="571" y="1607" on="1"/>
      </contour>
      <contour>
        <pt x="509" y="516" on="1"/>
        <pt x="1004" y="516" on="1"/>
        <pt x="760" y="1285" on="1"/>
      </contour>
    </TTGlyph>
    <TTGlyph name="AE" xMin="43" yMin="0" xMax="1911" yMax="1607">
      <contour>
        <pt x="932" y="1413" on="1"/>
        <pt x="554" y="519" on="1"/>
        <pt x="932" y="519" on="1"/>
      </contour>
      <contour>
        <pt x="1893" y="1408" on="1"/>
        <pt x="1220" y="1408" on="1"/>
        <pt x="1220" y="937" on="1"/>
        <pt x="1821" y="937" on="1"/>
        <pt x="1821" y="764" on="1"/>
        <pt x="1221" y="764" on="1"/>
        <pt x="1221" y="199" on="1"/>
        <pt x="1911" y="199" on="1"/>
        <pt x="1911" y="0" on="1"/>
        <pt x="933" y="0" on="1"/>
        <pt x="933" y="364" on="1"/>
        <pt x="501" y="364" on="1"/>
        <pt x="349" y="0" on="1"/>
        <pt x="43" y="0" on="1"/>
        <pt x="756" y="1607" on="1"/>
        <pt x="1893" y="1607" on="1"/>
      </contour>
    </TTGlyph>
    <TTGlyph name="Aacute" xMin="43" yMin="0" xMax="1469" yMax="2498">
      <component glyphName=".ttfautohint" x="43" y="0" flags="0x0"/>
      <component glyphName="A" x="0" y="0" flags="0x1204"/>
      <component glyphName="acute" x="138" y="1606" flags="0x1004"/>
    </TTGlyph>
    <TTGlyph name="Acircumflex" xMin="43" yMin="0" xMax="1469" yMax="2443">
      <component glyphName=".ttfautohint" x="43" y="0" flags="0x0"/>
      <component glyphName="A" x="0" y="0" flags="0x1204"/>
      <component glyphName="circumflex" x="71" y="1606" flags="0x1004"/>
    </TTGlyph>
    <TTGlyph name="Adieresis" xMin="43" yMin="0" xMax="1469" yMax="2153">
      <component glyphName=".ttfautohint" x="43" y="0" flags="0x0"/>
      <component glyphName="A" x="0" y="0" flags="0x1204"/>
      <component glyphName="dieresis" x="164" y="1573" flags="0x1004"/>
    </TTGlyph>
    <TTGlyph name="Agrave" xMin="43" yMin="0" xMax="1469" yMax="2507">
      <component glyphName=".ttfautohint" x="43" y="0" flags="0x0"/>
      <component glyphName="A" x="0" y="0" flags="0x1204"/>
      <component glyphName="grave" x="262" y="1606" flags="0x1004"/>
    </TTGlyph>
    <TTGlyph name="Aring" xMin="43" yMin="0" xMax="1469" yMax="2431">
      <component glyphName=".ttfautohint" x="43" y="0" flags="0x0"/>
      <component glyphName="A" x="0" y="0" flags="0x1204"/>
      <component glyphName="ring" x="134" y="1606" flags="0x1004"/>
    </TTGlyph>
    <TTGlyph name="Atilde" xMin="43" yMin="0" xMax="1469" yMax="2165">
      <component glyphName=".ttfautohint" x="43" y="0" flags="0x0"/>
      <component glyphName="A" x="0" y="0" flags="0x1204"/>
      <component glyphName="tilde" x="21" y="1606" flags="0x1004"/>
    </TTGlyph>
    <TTGlyph name="B" xMin="156" yMin="0" xMax="1358" yMax="1607">
      <contour>
        <pt x="1329" y="628" on="1"/>
        <pt x="1358" y="554" on="0"/>
        <pt x="1358" y="359" on="0"/>
        <pt x="1309" y="213" on="0"/>
        <pt x="1214" y="115" on="0"/>
        <pt x="1154" y="82" on="1"/>
        <pt x="1094" y="50" on="0"/>
        <pt x="1010" y="32" on="1"/>
        <pt x="860" y="0" on="0"/>
        <pt x="656" y="0" on="1"/>
        <pt x="156" y="0" on="1"/>
        <pt x="156" y="1607" on="1"/>
        <pt x="558" y="1607" on="1"/>
        <pt x="1059" y="1606" on="0"/>
        <pt x="1209" y="1438" on="1"/>
        <pt x="1291" y="1346" on="0"/>
        <pt x="1291" y="1205" on="1"/>
        <pt x="1291" y="900" on="0"/>
        <pt x="949" y="859" on="1"/>
        <pt x="1255" y="818" on="0"/>
      </contour>
      <contour>
        <pt x="1060" y="540" on="0"/>
        <pt x="1020" y="642" on="0"/>
        <pt x="954" y="702" on="0"/>
        <pt x="900" y="720" on="1"/>
        <pt x="808" y="750" on="0"/>
        <pt x="651" y="749" on="1"/>
        <pt x="462" y="749" on="1"/>
        <pt x="462" y="202" on="1"/>
        <pt x="625" y="202" on="1"/>
        <pt x="824" y="202" on="0"/>
        <pt x="903" y="229" on="1"/>
        <pt x="986" y="258" on="0"/>
        <pt x="1018" y="308" on="1"/>
        <pt x="1060" y="372" on="0"/>
      </contour>
      <contour>
        <pt x="996" y="1061" on="1"/>
        <pt x="1024" y="1111" on="0"/>
        <pt x="1023" y="1235" on="0"/>
        <pt x="993" y="1309" on="0"/>
        <pt x="933" y="1356" on="0"/>
        <pt x="899" y="1371" on="1"/>
        <pt x="864" y="1386" on="0"/>
        <pt x="814" y="1393" on="1"/>
        <pt x="727" y="1405" on="0"/>
        <pt x="617" y="1405" on="1"/>
        <pt x="462" y="1405" on="1"/>
        <pt x="462" y="940" on="1"/>
        <pt x="651" y="940" on="1"/>
        <pt x="929" y="940" on="0"/>
      </contour>
    </TTGlyph>
    <TTGlyph name="C" xMin="105" yMin="-34" xMax="1270" yMax="1636">
      <contour>
        <pt x="823" y="1411" on="1"/>
        <pt x="477" y="1410" on="0"/>
        <pt x="423" y="984" on="1"/>
        <pt x="412" y="896" on="0"/>
        <pt x="412" y="790" on="1"/>
        <pt x="412" y="191" on="0"/>
        <pt x="823" y="191" on="1"/>
        <pt x="1028" y="191" on="0"/>
        <pt x="1186" y="302" on="1"/>
        <pt x="1270" y="86" on="1"/>
        <pt x="1201" y="29" on="0"/>
        <pt x="940" y="-34" on="0"/>
        <pt x="623" y="-34" on="0"/>
        <pt x="353" y="86" on="0"/>
        <pt x="270" y="198" on="1"/>
        <pt x="105" y="420" on="0"/>
        <pt x="105" y="796" on="1"/>
        <pt x="104" y="1168" on="0"/>
        <pt x="272" y="1396" on="1"/>
        <pt x="356" y="1510" on="0"/>
        <pt x="627" y="1636" on="0"/>
        <pt x="784" y="1636" on="1"/>
        <pt x="1108" y="1636" on="0"/>
        <pt x="1259" y="1531" on="1"/>
        <pt x="1179" y="1312" on="1"/>
        <pt x="1027" y="1411" on="0"/>
      </contour>
    </TTGlyph>
    <TTGlyph name="Ccedilla" xMin="105" yMin="-657" xMax="1270" yMax="1636">
      <component glyphName=".ttfautohint" x="105" y="0" flags="0x0"/>
      <component glyphName="C" x="0" y="0" flags="0x1204"/>
      <component glyphName="cedilla" x="561" y="-15" flags="0x1004"/>
    </TTGlyph>
    <TTGlyph name="D" xMin="157" yMin="0" xMax="1452" yMax="1607">
      <contour>
        <pt x="661" y="202" on="1"/>
        <pt x="925" y="202" on="0"/>
        <pt x="1037" y="366" on="1"/>
        <pt x="1142" y="520" on="0"/>
        <pt x="1142" y="801" on="1"/>
        <pt x="1142" y="1090" on="0"/>
        <pt x="1046" y="1241" on="1"/>
        <pt x="942" y="1405" on="0"/>
        <pt x="671" y="1405" on="1"/>
        <pt x="462" y="1405" on="1"/>
        <pt x="462" y="202" on="1"/>
      </contour>
      <contour>
        <pt x="676" y="1607" on="1"/>
        <pt x="1070" y="1607" on="0"/>
        <pt x="1452" y="1205" on="0"/>
        <pt x="1452" y="801" on="1"/>
        <pt x="1452" y="0" on="0"/>
        <pt x="683" y="0" on="1"/>
        <pt x="157" y="0" on="1"/>
        <pt x="157" y="1607" on="1"/>
      </contour>
    </TTGlyph>
    <TTGlyph name="E" xMin="156" yMin="0" xMax="1216" yMax="1607">
      <contour>
        <pt x="156" y="0" on="1"/>
        <pt x="156" y="1607" on="1"/>
        <pt x="1205" y="1607" on="1"/>
        <pt x="1205" y="1405" on="1"/>
        <pt x="461" y="1405" on="1"/>
        <pt x="461" y="931" on="1"/>
        <pt x="1110" y="931" on="1"/>
        <pt x="1110" y="745" on="1"/>
        <pt x="461" y="745" on="1"/>
        <pt x="461" y="199" on="1"/>
        <pt x="1216" y="199" on="1"/>
        <pt x="1216" y="0" on="1"/>
      </contour>
    </TTGlyph>
    <TTGlyph name="Eacute" xMin="156" yMin="0" xMax="1216" yMax="2500">
      <component glyphName=".ttfautohint" x="156" y="0" flags="0x0"/>
      <component glyphName="E" x="0" y="0" flags="0x1204"/>
      <component glyphName="acute" x="69" y="1608" flags="0x1004"/>
    </TTGlyph>
    <TTGlyph name="Ecircumflex" xMin="156" yMin="0" xMax="1216" yMax="2445">
      <component glyphName=".ttfautohint" x="156" y="0" flags="0x0"/>
      <component glyphName="E" x="0" y="0" flags="0x1204"/>
      <component glyphName="circumflex" x="2" y="1608" flags="0x1004"/>
    </TTGlyph>
    <TTGlyph name="Edieresis" xMin="156" yMin="0" xMax="1216" yMax="2155">
      <component glyphName=".ttfautohint" x="156" y="0" flags="0x0"/>
      <component glyphName="E" x="0" y="0" flags="0x1204"/>
      <component glyphName="dieresis" x="96" y="1575" flags="0x1004"/>
    </TTGlyph>
    <TTGlyph name="Egrave" xMin="156" yMin="0" xMax="1216" yMax="2509">
      <component glyphName=".ttfautohint" x="156" y="0" flags="0x0"/>
      <component glyphName="E" x="0" y="0" flags="0x1204"/>
      <component glyphName="grave" x="193" y="1608" flags="0x1004"/>
    </TTGlyph>
    <TTGlyph name="Eth" xMin="-2" yMin="0" xMax="1454" yMax="1607">
      <contour>
        <pt x="619" y="199" on="1"/>
        <pt x="924" y="200" on="0"/>
        <pt x="1037" y="348" on="1"/>
        <pt x="1096" y="426" on="0"/>
        <pt x="1145" y="641" on="0"/>
        <pt x="1145" y="961" on="0"/>
        <pt x="1097" y="1180" on="0"/>
        <pt x="1038" y="1260" on="1"/>
        <pt x="924" y="1414" on="0"/>
        <pt x="619" y="1414" on="1"/>
        <pt x="466" y="1414" on="1"/>
        <pt x="466" y="924" on="1"/>
        <pt x="723" y="924" on="1"/>
        <pt x="723" y="729" on="1"/>
        <pt x="466" y="729" on="1"/>
        <pt x="466" y="199" on="1"/>
      </contour>
      <contour>
        <pt x="691" y="1607" on="1"/>
        <pt x="1454" y="1607" on="0"/>
        <pt x="1454" y="798" on="1"/>
        <pt x="1454" y="411" on="0"/>
        <pt x="1070" y="0" on="0"/>
        <pt x="691" y="0" on="1"/>
        <pt x="161" y="0" on="1"/>
        <pt x="161" y="729" on="1"/>
        <pt x="-2" y="729" on="1"/>
        <pt x="-2" y="924" on="1"/>
        <pt x="161" y="924" on="1"/>
        <pt x="161" y="1607" on="1"/>
      </contour>
    </TTGlyph>
    <TTGlyph name="Euro" xMin="49" yMin="-37" xMax="1201" yMax="1571">
      <contour>
        <pt x="828" y="-37" on="1"/>
        <pt x="475" y="-37" on="0"/>
        <pt x="314" y="195" on="1"/>
        <pt x="213" y="340" on="0"/>
        <pt x="193" y="572" on="1"/>
        <pt x="61" y="572" on="1"/>
        <pt x="61" y="737" on="1"/>
        <pt x="187" y="737" on="1"/>
        <pt x="189" y="823" on="0"/>
        <pt x="191" y="844" on="1"/>
        <pt x="49" y="844" on="1"/>
        <pt x="49" y="1009" on="1"/>
        <pt x="214" y="1009" on="1"/>
        <pt x="264" y="1254" on="0"/>
        <pt x="408" y="1406" on="1"/>
        <pt x="564" y="1572" on="0"/>
        <pt x="834" y="1571" on="1"/>
        <pt x="1058" y="1571" on="0"/>
        <pt x="1201" y="1469" on="1"/>
        <pt x="1132" y="1261" on="1"/>
        <pt x="1081" y="1300" on="0"/>
        <pt x="914" y="1346" on="0"/>
        <pt x="755" y="1346" on="0"/>
        <pt x="641" y="1292" on="0"/>
        <pt x="602" y="1244" on="1"/>
        <pt x="528" y="1152" on="0"/>
        <pt x="494" y="1009" on="1"/>
        <pt x="887" y="1009" on="1"/>
        <pt x="887" y="844" on="1"/>
        <pt x="464" y="844" on="1"/>
        <pt x="462" y="827" on="0"/>
        <pt x="460" y="737" on="1"/>
        <pt x="824" y="737" on="1"/>
        <pt x="824" y="572" on="1"/>
        <pt x="467" y="572" on="1"/>
        <pt x="485" y="395" on="0"/>
        <pt x="579" y="293" on="1"/>
        <pt x="674" y="190" on="0"/>
        <pt x="945" y="190" on="0"/>
        <pt x="1088" y="288" on="1"/>
        <pt x="1149" y="74" on="1"/>
        <pt x="1038" y="-37" on="0"/>
      </contour>
    </TTGlyph>
    <TTGlyph name="F" xMin="156" yMin="0" xMax="1192" yMax="1607">
      <contour>
        <pt x="461" y="0" on="1"/>
        <pt x="156" y="0" on="1"/>
        <pt x="156" y="1607" on="1"/>
        <pt x="1192" y="1607" on="1"/>
        <pt x="1192" y="1405" on="1"/>
        <pt x="461" y="1405" on="1"/>
        <pt x="461" y="925" on="1"/>
        <pt x="1114" y="925" on="1"/>
        <pt x="1114" y="739" on="1"/>
        <pt x="461" y="739" on="1"/>
      </contour>
    </TTGlyph>
    <TTGlyph name="G" xMin="105" yMin="-34" xMax="1420" yMax="1636">
      <contour>
        <pt x="804" y="191" on="1"/>
        <pt x="1083" y="191" on="0"/>
        <pt x="1150" y="347" on="1"/>
        <pt x="1150" y="679" on="1"/>
        <pt x="764" y="679" on="1"/>
        <pt x="764" y="867" on="1"/>
        <pt x="1420" y="867" on="1"/>
        <pt x="1420" y="0" on="1"/>
        <pt x="1238" y="0" on="1"/>
        <pt x="1187" y="163" on="1"/>
        <pt x="1149" y="64" on="0"/>
        <pt x="930" y="-34" on="0"/>
        <pt x="639" y="-34" on="0"/>
        <pt x="415" y="46" on="0"/>
        <pt x="337" y="118" on="1"/>
        <pt x="258" y="190" on="0"/>
        <pt x="206" y="294" on="1"/>
        <pt x="104" y="494" on="0"/>
        <pt x="105" y="790" on="1"/>
        <pt x="104" y="1180" on="0"/>
        <pt x="286" y="1404" on="1"/>
        <pt x="474" y="1636" on="0"/>
        <pt x="850" y="1636" on="1"/>
        <pt x="1141" y="1636" on="0"/>
        <pt x="1325" y="1504" on="1"/>
        <pt x="1233" y="1298" on="1"/>
        <pt x="1038" y="1411" on="0"/>
        <pt x="850" y="1411" on="1"/>
        <pt x="516" y="1411" on="0"/>
        <pt x="436" y="1038" on="1"/>
        <pt x="412" y="929" on="0"/>
        <pt x="413" y="791" on="1"/>
        <pt x="413" y="191" on="0"/>
      </contour>
    </TTGlyph>
    <TTGlyph name="H" xMin="156" yMin="0" xMax="1444" yMax="1607">
      <contour>
        <pt x="1139" y="741" on="1"/>
        <pt x="462" y="741" on="1"/>
        <pt x="462" y="0" on="1"/>
        <pt x="156" y="0" on="1"/>
        <pt x="156" y="1607" on="1"/>
        <pt x="462" y="1607" on="1"/>
        <pt x="462" y="926" on="1"/>
        <pt x="1139" y="926" on="1"/>
        <pt x="1139" y="1607" on="1"/>
        <pt x="1444" y="1607" on="1"/>
        <pt x="1444" y="0" on="1"/>
        <pt x="1139" y="0" on="1"/>
      </contour>
    </TTGlyph>
    <TTGlyph name="I" xMin="87" yMin="0" xMax="763" yMax="1607">
      <contour>
        <pt x="273" y="150" on="1"/>
        <pt x="273" y="1454" on="1"/>
        <pt x="87" y="1454" on="1"/>
        <pt x="87" y="1607" on="1"/>
        <pt x="763" y="1607" on="1"/>
        <pt x="763" y="1454" on="1"/>
        <pt x="574" y="1454" on="1"/>
        <pt x="574" y="150" on="1"/>
        <pt x="763" y="150" on="1"/>
        <pt x="763" y="0" on="1"/>
        <pt x="87" y="0" on="1"/>
        <pt x="87" y="150" on="1"/>
      </contour>
    </TTGlyph>
    <TTGlyph name="Iacute" xMin="87" yMin="0" xMax="763" yMax="2505">
      <component glyphName=".ttfautohint" x="87" y="0" flags="0x0"/>
      <component glyphName="I" x="0" y="0" flags="0x1204"/>
      <component glyphName="acute" x="-198" y="1613" flags="0x1004"/>
    </TTGlyph>
    <TTGlyph name="Icircumflex" xMin="51" yMin="0" xMax="799" yMax="2450">
      <component glyphName=".ttfautohint" x="51" y="0" flags="0x0"/>
      <component glyphName="I" x="0" y="0" flags="0x1204"/>
      <component glyphName="circumflex" x="-265" y="1613" flags="0x1004"/>
    </TTGlyph>
    <TTGlyph name="Idieresis" xMin="-63" yMin="0" xMax="877" yMax="2160">
      <component glyphName=".ttfautohint" x="0" y="0" flags="0x0"/>
      <component glyphName="I" x="0" y="0" flags="0x1204"/>
      <component glyphName="dieresis" x="-172" y="1580" flags="0x1004"/>
    </TTGlyph>
    <TTGlyph name="Igrave" xMin="87" yMin="0" xMax="763" yMax="2514">
      <component glyphName=".ttfautohint" x="87" y="0" flags="0x0"/>
      <component glyphName="I" x="0" y="0" flags="0x1204"/>
      <component glyphName="grave" x="-75" y="1613" flags="0x1004"/>
    </TTGlyph>
    <TTGlyph name="J" xMin="39" yMin="-89" xMax="670" yMax="1607">
      <contour>
        <pt x="39" y="109" on="1"/>
        <pt x="164" y="129" on="0"/>
        <pt x="232" y="168" on="1"/>
        <pt x="366" y="245" on="0"/>
        <pt x="365" y="504" on="1"/>
        <pt x="365" y="1607" on="1"/>
        <pt x="670" y="1607" on="1"/>
        <pt x="670" y="519" on="1"/>
        <pt x="670" y="214" on="0"/>
        <pt x="408" y="-74" on="0"/>
        <pt x="117" y="-89" on="1"/>
      </contour>
    </TTGlyph>
    <TTGlyph name="K" xMin="156" yMin="0" xMax="1450" yMax="1607">
      <contour>
        <pt x="462" y="0" on="1"/>
        <pt x="156" y="0" on="1"/>
        <pt x="156" y="1607" on="1"/>
        <pt x="462" y="1607" on="1"/>
        <pt x="462" y="895" on="1"/>
        <pt x="601" y="895" on="1"/>
        <pt x="1067" y="1607" on="1"/>
        <pt x="1389" y="1607" on="1"/>
        <pt x="843" y="809" on="1"/>
        <pt x="1450" y="0" on="1"/>
        <pt x="1107" y="0" on="1"/>
        <pt x="593" y="713" on="1"/>
        <pt x="462" y="713" on="1"/>
      </contour>
    </TTGlyph>
    <TTGlyph name="L" xMin="156" yMin="0" xMax="1181" yMax="1607">
      <contour>
        <pt x="156" y="0" on="1"/>
        <pt x="156" y="1607" on="1"/>
        <pt x="461" y="1607" on="1"/>
        <pt x="461" y="202" on="1"/>
        <pt x="1181" y="202" on="1"/>
        <pt x="1181" y="0" on="1"/>
      </contour>
    </TTGlyph>
    <TTGlyph name="M" xMin="156" yMin="0" xMax="1831" yMax="1607">
      <contour>
        <pt x="423" y="1254" on="1"/>
        <pt x="423" y="0" on="1"/>
        <pt x="156" y="0" on="1"/>
        <pt x="156" y="1607" on="1"/>
        <pt x="557" y="1607" on="1"/>
        <pt x="989" y="335" on="1"/>
        <pt x="1430" y="1607" on="1"/>
        <pt x="1831" y="1607" on="1"/>
        <pt x="1831" y="0" on="1"/>
        <pt x="1564" y="0" on="1"/>
        <pt x="1564" y="1254" on="1"/>
        <pt x="1140" y="0" on="1"/>
        <pt x="849" y="0" on="1"/>
      </contour>
    </TTGlyph>
    <TTGlyph name="N" xMin="156" yMin="0" xMax="1495" yMax="1607">
      <contour>
        <pt x="1160" y="0" on="1"/>
        <pt x="436" y="1225" on="1"/>
        <pt x="436" y="0" on="1"/>
        <pt x="156" y="0" on="1"/>
        <pt x="156" y="1607" on="1"/>
        <pt x="504" y="1607" on="1"/>
        <pt x="1215" y="395" on="1"/>
        <pt x="1215" y="1607" on="1"/>
        <pt x="1495" y="1607" on="1"/>
        <pt x="1495" y="0" on="1"/>
      </contour>
    </TTGlyph>
    <TTGlyph name="Ntilde" xMin="156" yMin="0" xMax="1495" yMax="2167">
      <component glyphName=".ttfautohint" x="156" y="0" flags="0x0"/>
      <component glyphName="N" x="0" y="0" flags="0x1204"/>
      <component glyphName="tilde" x="77" y="1608" flags="0x1004"/>
    </TTGlyph>
    <TTGlyph name="O" xMin="104" yMin="-35" xMax="1507" yMax="1635">
      <contour>
        <pt x="824" y="1635" on="1"/>
        <pt x="986" y="1635" on="0"/>
        <pt x="1257" y="1518" on="0"/>
        <pt x="1341" y="1408" on="1"/>
        <pt x="1507" y="1191" on="0"/>
        <pt x="1507" y="810" on="1"/>
        <pt x="1508" y="153" on="0"/>
        <pt x="1072" y="5" on="1"/>
        <pt x="954" y="-35" on="0"/>
        <pt x="619" y="-35" on="0"/>
        <pt x="346" y="88" on="0"/>
        <pt x="264" y="203" on="1"/>
        <pt x="104" y="427" on="0"/>
        <pt x="104" y="819" on="1"/>
        <pt x="104" y="1281" on="0"/>
        <pt x="348" y="1489" on="1"/>
        <pt x="520" y="1635" on="0"/>
      </contour>
      <contour>
        <pt x="1040" y="1344" on="0"/>
        <pt x="901" y="1411" on="0"/>
        <pt x="714" y="1411" on="0"/>
        <pt x="573" y="1345" on="0"/>
        <pt x="486" y="1236" on="0"/>
        <pt x="460" y="1155" on="1"/>
        <pt x="414" y="1013" on="0"/>
        <pt x="413" y="798" on="1"/>
        <pt x="413" y="459" on="0"/>
        <pt x="530" y="312" on="1"/>
        <pt x="626" y="192" on="0"/>
        <pt x="805" y="192" on="1"/>
        <pt x="961" y="192" on="0"/>
        <pt x="1136" y="363" on="0"/>
        <pt x="1199" y="632" on="0"/>
        <pt x="1199" y="902" on="0"/>
        <pt x="1179" y="1072" on="0"/>
        <pt x="1126" y="1235" on="0"/>
      </contour>
    </TTGlyph>
    <TTGlyph name="OE" xMin="104" yMin="-35" xMax="2260" yMax="1635">
      <contour>
        <pt x="1200" y="0" on="1"/>
        <pt x="1200" y="1607" on="1"/>
        <pt x="2249" y="1607" on="1"/>
        <pt x="2249" y="1405" on="1"/>
        <pt x="1505" y="1405" on="1"/>
        <pt x="1505" y="931" on="1"/>
        <pt x="2154" y="931" on="1"/>
        <pt x="2154" y="745" on="1"/>
        <pt x="1505" y="745" on="1"/>
        <pt x="1505" y="199" on="1"/>
        <pt x="2260" y="199" on="1"/>
        <pt x="2260" y="0" on="1"/>
      </contour>
      <contour>
        <pt x="824" y="1635" on="1"/>
        <pt x="986" y="1635" on="0"/>
        <pt x="1257" y="1518" on="0"/>
        <pt x="1341" y="1408" on="1"/>
        <pt x="1507" y="1191" on="0"/>
        <pt x="1507" y="810" on="1"/>
        <pt x="1508" y="153" on="0"/>
        <pt x="1072" y="5" on="1"/>
        <pt x="954" y="-35" on="0"/>
        <pt x="619" y="-35" on="0"/>
        <pt x="346" y="88" on="0"/>
        <pt x="264" y="203" on="1"/>
        <pt x="104" y="427" on="0"/>
        <pt x="104" y="819" on="1"/>
        <pt x="104" y="1281" on="0"/>
        <pt x="348" y="1489" on="1"/>
        <pt x="520" y="1635" on="0"/>
      </contour>
      <contour>
        <pt x="1040" y="1344" on="0"/>
        <pt x="901" y="1411" on="0"/>
        <pt x="714" y="1411" on="0"/>
        <pt x="573" y="1345" on="0"/>
        <pt x="486" y="1236" on="0"/>
        <pt x="460" y="1155" on="1"/>
        <pt x="414" y="1013" on="0"/>
        <pt x="413" y="798" on="1"/>
        <pt x="413" y="459" on="0"/>
        <pt x="530" y="312" on="1"/>
        <pt x="626" y="192" on="0"/>
        <pt x="805" y="192" on="1"/>
        <pt x="961" y="192" on="0"/>
        <pt x="1136" y="363" on="0"/>
        <pt x="1199" y="632" on="0"/>
        <pt x="1199" y="902" on="0"/>
        <pt x="1179" y="1072" on="0"/>
        <pt x="1126" y="1235" on="0"/>
      </contour>
    </TTGlyph>
    <TTGlyph name="Oacute" xMin="104" yMin="-35" xMax="1507" yMax="2509">
      <component glyphName=".ttfautohint" x="104" y="0" flags="0x0"/>
      <component glyphName="O" x="0" y="0" flags="0x1204"/>
      <component glyphName="acute" x="184" y="1617" flags="0x1004"/>
    </TTGlyph>
    <TTGlyph name="Ocircumflex" xMin="104" yMin="-35" xMax="1507" yMax="2454">
      <component glyphName=".ttfautohint" x="104" y="0" flags="0x0"/>
      <component glyphName="O" x="0" y="0" flags="0x1204"/>
      <component glyphName="circumflex" x="117" y="1617" flags="0x1004"/>
    </TTGlyph>
    <TTGlyph name="Odieresis" xMin="104" yMin="-35" xMax="1507" yMax="2163">
      <component glyphName=".ttfautohint" x="104" y="0" flags="0x0"/>
      <component glyphName="O" x="0" y="0" flags="0x1204"/>
      <component glyphName="dieresis" x="210" y="1583" flags="0x1004"/>
    </TTGlyph>
    <TTGlyph name="Ograve" xMin="104" yMin="-35" xMax="1507" yMax="2518">
      <component glyphName=".ttfautohint" x="104" y="0" flags="0x0"/>
      <component glyphName="O" x="0" y="0" flags="0x1204"/>
      <component glyphName="grave" x="307" y="1617" flags="0x1004"/>
    </TTGlyph>
    <TTGlyph name="Oslash" xMin="105" yMin="-167" xMax="1507" yMax="1759">
      <contour>
        <pt x="1219" y="1521" on="1"/>
        <pt x="1507" y="1322" on="0"/>
        <pt x="1507" y="801" on="1"/>
        <pt x="1507" y="151" on="0"/>
        <pt x="1069" y="5" on="1"/>
        <pt x="952" y="-34" on="0"/>
        <pt x="671" y="-34" on="0"/>
        <pt x="575" y="-4" on="1"/>
        <pt x="506" y="-167" on="1"/>
        <pt x="382" y="-121" on="1"/>
        <pt x="452" y="44" on="1"/>
        <pt x="105" y="223" on="0"/>
        <pt x="105" y="801" on="1"/>
        <pt x="105" y="1184" on="0"/>
        <pt x="270" y="1406" on="1"/>
        <pt x="442" y="1636" on="0"/>
        <pt x="800" y="1636" on="1"/>
        <pt x="969" y="1636" on="0"/>
        <pt x="1104" y="1582" on="1"/>
        <pt x="1179" y="1759" on="1"/>
        <pt x="1301" y="1714" on="1"/>
      </contour>
      <contour>
        <pt x="666" y="215" on="1"/>
        <pt x="752" y="191" on="0"/>
        <pt x="900" y="191" on="0"/>
        <pt x="1041" y="257" on="0"/>
        <pt x="1084" y="312" on="1"/>
        <pt x="1128" y="366" on="0"/>
        <pt x="1154" y="447" on="1"/>
        <pt x="1200" y="586" on="0"/>
        <pt x="1199" y="801" on="1"/>
        <pt x="1199" y="1098" on="0"/>
        <pt x="1108" y="1252" on="1"/>
      </contour>
      <contour>
        <pt x="1010" y="1356" on="1"/>
        <pt x="925" y="1411" on="0"/>
        <pt x="741" y="1411" on="0"/>
        <pt x="628" y="1377" on="0"/>
        <pt x="547" y="1318" on="0"/>
        <pt x="486" y="1230" on="0"/>
        <pt x="466" y="1180" on="1"/>
        <pt x="446" y="1130" on="0"/>
        <pt x="434" y="1066" on="1"/>
        <pt x="412" y="957" on="0"/>
        <pt x="413" y="608" on="0"/>
        <pt x="477" y="526" on="1"/>
        <pt x="484" y="352" on="0"/>
        <pt x="554" y="287" on="1"/>
      </contour>
    </TTGlyph>
    <TTGlyph name="Otilde" xMin="104" yMin="-35" xMax="1507" yMax="2176">
      <component glyphName=".ttfautohint" x="104" y="0" flags="0x0"/>
      <component glyphName="O" x="0" y="0" flags="0x1204"/>
      <component glyphName="tilde" x="67" y="1617" flags="0x1004"/>
    </TTGlyph>
    <TTGlyph name="P" xMin="156" yMin="0" xMax="1337" yMax="1607">
      <contour>
        <pt x="598" y="1607" on="1"/>
        <pt x="1022" y="1607" on="0"/>
        <pt x="1195" y="1453" on="1"/>
        <pt x="1335" y="1328" on="0"/>
        <pt x="1337" y="1095" on="1"/>
        <pt x="1337" y="700" on="0"/>
        <pt x="906" y="622" on="1"/>
        <pt x="764" y="596" on="0"/>
        <pt x="568" y="597" on="1"/>
        <pt x="462" y="597" on="1"/>
        <pt x="462" y="0" on="1"/>
        <pt x="156" y="0" on="1"/>
        <pt x="156" y="1607" on="1"/>
      </contour>
      <contour>
        <pt x="1030" y="1096" on="1"/>
        <pt x="1030" y="1180" on="0"/>
        <pt x="971" y="1310" on="0"/>
        <pt x="911" y="1344" on="1"/>
        <pt x="803" y="1405" on="0"/>
        <pt x="596" y="1405" on="1"/>
        <pt x="462" y="1405" on="1"/>
        <pt x="462" y="791" on="1"/>
        <pt x="559" y="791" on="1"/>
        <pt x="832" y="790" on="0"/>
        <pt x="938" y="872" on="1"/>
        <pt x="1030" y="944" on="0"/>
      </contour>
    </TTGlyph>
    <TTGlyph name="Q" xMin="105" yMin="-429" xMax="1513" yMax="1636">
      <contour>
        <pt x="354" y="1515" on="0"/>
        <pt x="624" y="1636" on="0"/>
        <pt x="988" y="1636" on="0"/>
        <pt x="1126" y="1576" on="1"/>
        <pt x="1263" y="1518" on="0"/>
        <pt x="1347" y="1406" on="1"/>
        <pt x="1513" y="1186" on="0"/>
        <pt x="1513" y="821" on="1"/>
        <pt x="1513" y="79" on="0"/>
        <pt x="979" y="-18" on="1"/>
        <pt x="1309" y="-262" on="1"/>
        <pt x="1154" y="-429" on="1"/>
        <pt x="675" y="-24" on="1"/>
        <pt x="246" y="31" on="0"/>
        <pt x="138" y="492" on="1"/>
        <pt x="105" y="633" on="0"/>
        <pt x="105" y="992" on="0"/>
        <pt x="187" y="1292" on="0"/>
      </contour>
      <contour>
        <pt x="1205" y="801" on="1"/>
        <pt x="1204" y="1139" on="0"/>
        <pt x="1086" y="1289" on="1"/>
        <pt x="990" y="1411" on="0"/>
        <pt x="809" y="1411" on="1"/>
        <pt x="473" y="1412" on="0"/>
        <pt x="423" y="990" on="1"/>
        <pt x="413" y="906" on="0"/>
        <pt x="413" y="697" on="0"/>
        <pt x="433" y="527" on="0"/>
        <pt x="460" y="446" on="1"/>
        <pt x="486" y="366" on="0"/>
        <pt x="530" y="312" on="1"/>
        <pt x="626" y="192" on="0"/>
        <pt x="809" y="191" on="1"/>
        <pt x="1145" y="192" on="0"/>
        <pt x="1195" y="614" on="1"/>
        <pt x="1205" y="698" on="0"/>
      </contour>
    </TTGlyph>
    <TTGlyph name="R" xMin="156" yMin="0" xMax="1349" yMax="1607">
      <contour>
        <pt x="988" y="1005" on="0"/>
        <pt x="1034" y="1102" on="0"/>
        <pt x="1034" y="1210" on="0"/>
        <pt x="1016" y="1277" on="0"/>
        <pt x="979" y="1325" on="0"/>
        <pt x="935" y="1361" on="0"/>
        <pt x="867" y="1383" on="0"/>
        <pt x="807" y="1397" on="0"/>
        <pt x="762" y="1400" on="1"/>
        <pt x="687" y="1405" on="0"/>
        <pt x="598" y="1405" on="1"/>
        <pt x="462" y="1405" on="1"/>
        <pt x="462" y="900" on="1"/>
        <pt x="608" y="900" on="1"/>
        <pt x="854" y="900" on="0"/>
        <pt x="951" y="976" on="1"/>
      </contour>
      <contour>
        <pt x="1343" y="1201" on="1"/>
        <pt x="1343" y="1002" on="0"/>
        <pt x="1102" y="811" on="0"/>
        <pt x="889" y="805" on="1"/>
        <pt x="1230" y="766" on="0"/>
        <pt x="1315" y="576" on="1"/>
        <pt x="1349" y="500" on="0"/>
        <pt x="1349" y="395" on="1"/>
        <pt x="1349" y="0" on="1"/>
        <pt x="1046" y="0" on="1"/>
        <pt x="1046" y="416" on="1"/>
        <pt x="1046" y="629" on="0"/>
        <pt x="872" y="682" on="1"/>
        <pt x="777" y="711" on="0"/>
        <pt x="606" y="711" on="1"/>
        <pt x="462" y="711" on="1"/>
        <pt x="462" y="0" on="1"/>
        <pt x="156" y="0" on="1"/>
        <pt x="156" y="1607" on="1"/>
        <pt x="601" y="1607" on="1"/>
        <pt x="897" y="1608" on="0"/>
        <pt x="1053" y="1562" on="1"/>
        <pt x="1194" y="1521" on="0"/>
        <pt x="1263" y="1440" on="1"/>
        <pt x="1343" y="1347" on="0"/>
      </contour>
    </TTGlyph>
    <TTGlyph name="S" xMin="85" yMin="-34" xMax="1246" yMax="1636">
      <contour>
        <pt x="1028" y="1345" on="0"/>
        <pt x="801" y="1411" on="0"/>
        <pt x="618" y="1411" on="0"/>
        <pt x="566" y="1404" on="1"/>
        <pt x="514" y="1396" on="0"/>
        <pt x="468" y="1376" on="1"/>
        <pt x="372" y="1334" on="0"/>
        <pt x="372" y="1218" on="1"/>
        <pt x="372" y="1149" on="0"/>
        <pt x="453" y="1072" on="0"/>
        <pt x="524" y="1047" on="1"/>
        <pt x="869" y="915" on="1"/>
        <pt x="1143" y="810" on="0"/>
        <pt x="1216" y="620" on="1"/>
        <pt x="1246" y="542" on="0"/>
        <pt x="1246" y="319" on="0"/>
        <pt x="1160" y="134" on="0"/>
        <pt x="1081" y="78" on="1"/>
        <pt x="925" y="-34" on="0"/>
        <pt x="383" y="-34" on="0"/>
        <pt x="127" y="104" on="1"/>
        <pt x="182" y="323" on="1"/>
        <pt x="396" y="221" on="0"/>
        <pt x="616" y="196" on="1"/>
        <pt x="660" y="191" on="0"/>
        <pt x="699" y="191" on="1"/>
        <pt x="955" y="191" on="0"/>
        <pt x="955" y="402" on="1"/>
        <pt x="955" y="495" on="0"/>
        <pt x="857" y="604" on="0"/>
        <pt x="767" y="637" on="1"/>
        <pt x="413" y="778" on="1"/>
        <pt x="85" y="907" on="0"/>
        <pt x="85" y="1196" on="1"/>
        <pt x="84" y="1421" on="0"/>
        <pt x="252" y="1532" on="1"/>
        <pt x="409" y="1636" on="0"/>
        <pt x="650" y="1636" on="1"/>
        <pt x="950" y="1636" on="0"/>
        <pt x="1175" y="1503" on="1"/>
        <pt x="1111" y="1295" on="1"/>
      </contour>
    </TTGlyph>
    <TTGlyph name="Scaron" xMin="85" yMin="-34" xMax="1246" yMax="2435">
      <contour>
        <pt x="578" y="1821" on="1"/>
        <pt x="302" y="2404" on="1"/>
        <pt x="522" y="2435" on="1"/>
        <pt x="677" y="2047" on="1"/>
        <pt x="830" y="2435" on="1"/>
        <pt x="1050" y="2404" on="1"/>
        <pt x="773" y="1821" on="1"/>
      </contour>
      <contour>
        <pt x="1028" y="1345" on="0"/>
        <pt x="801" y="1411" on="0"/>
        <pt x="618" y="1411" on="0"/>
        <pt x="566" y="1404" on="1"/>
        <pt x="514" y="1396" on="0"/>
        <pt x="468" y="1376" on="1"/>
        <pt x="372" y="1334" on="0"/>
        <pt x="372" y="1218" on="1"/>
        <pt x="372" y="1149" on="0"/>
        <pt x="453" y="1072" on="0"/>
        <pt x="524" y="1047" on="1"/>
        <pt x="869" y="915" on="1"/>
        <pt x="1143" y="810" on="0"/>
        <pt x="1216" y="620" on="1"/>
        <pt x="1246" y="542" on="0"/>
        <pt x="1246" y="319" on="0"/>
        <pt x="1160" y="134" on="0"/>
        <pt x="1081" y="78" on="1"/>
        <pt x="925" y="-34" on="0"/>
        <pt x="383" y="-34" on="0"/>
        <pt x="127" y="104" on="1"/>
        <pt x="182" y="323" on="1"/>
        <pt x="396" y="221" on="0"/>
        <pt x="616" y="196" on="1"/>
        <pt x="660" y="191" on="0"/>
        <pt x="699" y="191" on="1"/>
        <pt x="955" y="191" on="0"/>
        <pt x="955" y="402" on="1"/>
        <pt x="955" y="495" on="0"/>
        <pt x="857" y="604" on="0"/>
        <pt x="767" y="637" on="1"/>
        <pt x="413" y="778" on="1"/>
        <pt x="85" y="907" on="0"/>
        <pt x="85" y="1196" on="1"/>
        <pt x="84" y="1421" on="0"/>
        <pt x="252" y="1532" on="1"/>
        <pt x="409" y="1636" on="0"/>
        <pt x="650" y="1636" on="1"/>
        <pt x="950" y="1636" on="0"/>
        <pt x="1175" y="1503" on="1"/>
        <pt x="1111" y="1295" on="1"/>
      </contour>
    </TTGlyph>
    <TTGlyph name="T" xMin="19" yMin="0" xMax="1191" yMax="1607">
      <contour>
        <pt x="761" y="1405" on="1"/>
        <pt x="761" y="0" on="1"/>
        <pt x="455" y="0" on="1"/>
        <pt x="455" y="1405" on="1"/>
        <pt x="19" y="1405" on="1"/>
        <pt x="19" y="1607" on="1"/>
        <pt x="1191" y="1607" on="1"/>
        <pt x="1191" y="1405" on="1"/>
      </contour>
    </TTGlyph>
    <TTGlyph name="Thorn" xMin="156" yMin="-136" xMax="1275" yMax="1607">
      <contour>
        <pt x="450" y="566" on="1"/>
        <pt x="614" y="520" on="0"/>
        <pt x="736" y="520" on="1"/>
        <pt x="988" y="520" on="0"/>
        <pt x="987" y="859" on="1"/>
        <pt x="986" y="1126" on="0"/>
        <pt x="818" y="1186" on="1"/>
        <pt x="766" y="1204" on="0"/>
        <pt x="596" y="1205" on="0"/>
        <pt x="450" y="1166" on="1"/>
      </contour>
      <contour>
        <pt x="1275" y="588" on="0"/>
        <pt x="974" y="304" on="0"/>
        <pt x="684" y="304" on="1"/>
        <pt x="538" y="304" on="0"/>
        <pt x="450" y="382" on="1"/>
        <pt x="450" y="-136" on="1"/>
        <pt x="156" y="-136" on="1"/>
        <pt x="156" y="1607" on="1"/>
        <pt x="439" y="1607" on="1"/>
        <pt x="439" y="1320" on="1"/>
        <pt x="589" y="1413" on="0"/>
        <pt x="777" y="1413" on="1"/>
        <pt x="1020" y="1413" on="0"/>
        <pt x="1151" y="1266" on="1"/>
        <pt x="1275" y="1127" on="0"/>
      </contour>
    </TTGlyph>
    <TTGlyph name="U" xMin="140" yMin="-34" xMax="1446" yMax="1607">
      <contour>
        <pt x="446" y="729" on="1"/>
        <pt x="446" y="490" on="0"/>
        <pt x="484" y="386" on="1"/>
        <pt x="520" y="286" on="0"/>
        <pt x="588" y="242" on="1"/>
        <pt x="668" y="190" on="0"/>
        <pt x="793" y="191" on="1"/>
        <pt x="987" y="191" on="0"/>
        <pt x="1062" y="304" on="1"/>
        <pt x="1112" y="378" on="0"/>
        <pt x="1123" y="461" on="1"/>
        <pt x="1140" y="579" on="0"/>
        <pt x="1140" y="729" on="1"/>
        <pt x="1140" y="1607" on="1"/>
        <pt x="1446" y="1607" on="1"/>
        <pt x="1446" y="733" on="1"/>
        <pt x="1446" y="160" on="0"/>
        <pt x="1100" y="18" on="1"/>
        <pt x="974" y="-34" on="0"/>
        <pt x="618" y="-34" on="0"/>
        <pt x="490" y="17" on="1"/>
        <pt x="362" y="68" on="0"/>
        <pt x="286" y="168" on="1"/>
        <pt x="140" y="360" on="0"/>
        <pt x="140" y="733" on="1"/>
        <pt x="140" y="1607" on="1"/>
        <pt x="446" y="1607" on="1"/>
      </contour>
    </TTGlyph>
    <TTGlyph name="Uacute" xMin="140" yMin="-34" xMax="1446" yMax="2499">
      <component glyphName=".ttfautohint" x="140" y="0" flags="0x0"/>
      <component glyphName="U" x="0" y="0" flags="0x1204"/>
      <component glyphName="acute" x="172" y="1607" flags="0x1004"/>
    </TTGlyph>
    <TTGlyph name="Ucircumflex" xMin="140" yMin="-34" xMax="1446" yMax="2444">
      <component glyphName=".ttfautohint" x="140" y="0" flags="0x0"/>
      <component glyphName="U" x="0" y="0" flags="0x1204"/>
      <component glyphName="circumflex" x="105" y="1607" flags="0x1004"/>
    </TTGlyph>
    <TTGlyph name="Udieresis" xMin="140" yMin="-34" xMax="1446" yMax="2154">
      <component glyphName=".ttfautohint" x="140" y="0" flags="0x0"/>
      <component glyphName="U" x="0" y="0" flags="0x1204"/>
      <component glyphName="dieresis" x="198" y="1574" flags="0x1004"/>
    </TTGlyph>
    <TTGlyph name="Ugrave" xMin="140" yMin="-34" xMax="1446" yMax="2508">
      <component glyphName=".ttfautohint" x="140" y="0" flags="0x0"/>
      <component glyphName="U" x="0" y="0" flags="0x1204"/>
      <component glyphName="grave" x="295" y="1607" flags="0x1004"/>
    </TTGlyph>
    <TTGlyph name="V" xMin="43" yMin="0" xMax="1370" yMax="1607">
      <contour>
        <pt x="709" y="383" on="1"/>
        <pt x="1082" y="1607" on="1"/>
        <pt x="1370" y="1607" on="1"/>
        <pt x="868" y="0" on="1"/>
        <pt x="545" y="0" on="1"/>
        <pt x="43" y="1607" on="1"/>
        <pt x="329" y="1607" on="1"/>
      </contour>
    </TTGlyph>
    <TTGlyph name="W" xMin="41" yMin="-2" xMax="1986" yMax="1607">
      <contour>
        <pt x="1189" y="1607" on="1"/>
        <pt x="1435" y="331" on="1"/>
        <pt x="1691" y="1607" on="1"/>
        <pt x="1986" y="1607" on="1"/>
        <pt x="1638" y="-2" on="1"/>
        <pt x="1261" y="-2" on="1"/>
        <pt x="1014" y="1338" on="1"/>
        <pt x="751" y="0" on="1"/>
        <pt x="388" y="0" on="1"/>
        <pt x="41" y="1607" on="1"/>
        <pt x="336" y="1607" on="1"/>
        <pt x="591" y="331" on="1"/>
        <pt x="837" y="1607" on="1"/>
      </contour>
    </TTGlyph>
    <TTGlyph name="X" xMin="19" yMin="0" xMax="1355" yMax="1607">
      <contour>
        <pt x="1040" y="1607" on="1"/>
        <pt x="1354" y="1607" on="1"/>
        <pt x="858" y="805" on="1"/>
        <pt x="1355" y="0" on="1"/>
        <pt x="1026" y="0" on="1"/>
        <pt x="687" y="556" on="1"/>
        <pt x="348" y="0" on="1"/>
        <pt x="19" y="0" on="1"/>
        <pt x="516" y="805" on="1"/>
        <pt x="20" y="1607" on="1"/>
        <pt x="335" y="1607" on="1"/>
        <pt x="687" y="1029" on="1"/>
      </contour>
    </TTGlyph>
    <TTGlyph name="Y" xMin="-19" yMin="0" xMax="1310" yMax="1607">
      <contour>
        <pt x="1002" y="1607" on="1"/>
        <pt x="1310" y="1607" on="1"/>
        <pt x="789" y="514" on="1"/>
        <pt x="789" y="0" on="1"/>
        <pt x="498" y="0" on="1"/>
        <pt x="498" y="514" on="1"/>
        <pt x="-19" y="1607" on="1"/>
        <pt x="287" y="1607" on="1"/>
        <pt x="645" y="830" on="1"/>
      </contour>
    </TTGlyph>
    <TTGlyph name="Yacute" xMin="-19" yMin="0" xMax="1310" yMax="2500">
      <component glyphName=".ttfautohint" x="0" y="0" flags="0x0"/>
      <component glyphName="Y" x="0" y="0" flags="0x1204"/>
      <component glyphName="acute" x="23" y="1608" flags="0x1004"/>
    </TTGlyph>
    <TTGlyph name="Ydieresis" xMin="-19" yMin="0" xMax="1310" yMax="2155">
      <component glyphName=".ttfautohint" x="0" y="0" flags="0x0"/>
      <component glyphName="Y" x="0" y="0" flags="0x1204"/>
      <component glyphName="dieresis" x="49" y="1575" flags="0x1004"/>
    </TTGlyph>
    <TTGlyph name="Z" xMin="78" yMin="0" xMax="1176" yMax="1607">
      <contour>
        <pt x="1174" y="1405" on="1"/>
        <pt x="412" y="202" on="1"/>
        <pt x="1176" y="202" on="1"/>
        <pt x="1176" y="0" on="1"/>
        <pt x="78" y="0" on="1"/>
        <pt x="78" y="214" on="1"/>
        <pt x="843" y="1405" on="1"/>
        <pt x="78" y="1405" on="1"/>
        <pt x="78" y="1607" on="1"/>
        <pt x="1174" y="1607" on="1"/>
      </contour>
    </TTGlyph>
    <TTGlyph name="a" xMin="85" yMin="-24" xMax="1110" yMax="1215">
      <contour>
        <pt x="819" y="709" on="1"/>
        <pt x="819" y="909" on="0"/>
        <pt x="770" y="963" on="1"/>
        <pt x="722" y="1016" on="0"/>
        <pt x="617" y="1016" on="1"/>
        <pt x="417" y="1016" on="0"/>
        <pt x="239" y="912" on="1"/>
        <pt x="160" y="1094" on="1"/>
        <pt x="364" y="1215" on="0"/>
        <pt x="624" y="1215" on="1"/>
        <pt x="896" y="1214" on="0"/>
        <pt x="1006" y="1078" on="1"/>
        <pt x="1110" y="948" on="0"/>
        <pt x="1110" y="666" on="1"/>
        <pt x="1110" y="0" on="1"/>
        <pt x="886" y="0" on="1"/>
        <pt x="846" y="164" on="1"/>
        <pt x="784" y="70" on="0"/>
        <pt x="621" y="-24" on="0"/>
        <pt x="494" y="-24" on="1"/>
        <pt x="300" y="-24" on="0"/>
        <pt x="85" y="172" on="0"/>
        <pt x="85" y="360" on="1"/>
        <pt x="86" y="628" on="0"/>
        <pt x="354" y="708" on="1"/>
        <pt x="432" y="732" on="0"/>
        <pt x="528" y="735" on="1"/>
        <pt x="684" y="735" on="0"/>
      </contour>
      <contour>
        <pt x="819" y="561" on="1"/>
        <pt x="750" y="568" on="1"/>
        <pt x="706" y="572" on="1"/>
        <pt x="676" y="574" on="0"/>
        <pt x="613" y="574" on="0"/>
        <pt x="533" y="566" on="0"/>
        <pt x="456" y="541" on="0"/>
        <pt x="432" y="520" on="1"/>
        <pt x="378" y="474" on="0"/>
        <pt x="378" y="382" on="1"/>
        <pt x="378" y="177" on="0"/>
        <pt x="569" y="177" on="1"/>
        <pt x="648" y="177" on="0"/>
        <pt x="765" y="242" on="0"/>
        <pt x="819" y="300" on="1"/>
      </contour>
    </TTGlyph>
    <TTGlyph name="aacute" xMin="85" yMin="-24" xMax="1110" yMax="2075">
      <component glyphName=".ttfautohint" x="85" y="0" flags="0x0"/>
      <component glyphName="a" x="0" y="0" flags="0x1204"/>
      <component glyphName="acute" x="3" y="1183" flags="0x1004"/>
    </TTGlyph>
    <TTGlyph name="acircumflex" xMin="85" yMin="-24" xMax="1110" yMax="2020">
      <component glyphName=".ttfautohint" x="85" y="0" flags="0x0"/>
      <component glyphName="a" x="0" y="0" flags="0x1204"/>
      <component glyphName="circumflex" x="-63" y="1183" flags="0x1004"/>
    </TTGlyph>
    <TTGlyph name="acute" xMin="449" yMin="213" xMax="924" yMax="892">
      <contour>
        <pt x="449" y="269" on="1"/>
        <pt x="638" y="892" on="1"/>
        <pt x="924" y="766" on="1"/>
        <pt x="569" y="213" on="1"/>
      </contour>
    </TTGlyph>
    <TTGlyph name="adieresis" xMin="85" yMin="-24" xMax="1110" yMax="1730">
      <component glyphName=".ttfautohint" x="85" y="0" flags="0x0"/>
      <component glyphName="a" x="0" y="0" flags="0x1204"/>
      <component glyphName="dieresis" x="29" y="1150" flags="0x1004"/>
    </TTGlyph>
    <TTGlyph name="ae" xMin="91" yMin="-21" xMax="1816" yMax="1209">
      <contour>
        <pt x="1573" y="690" on="1"/>
        <pt x="1573" y="1010" on="0"/>
        <pt x="1346" y="1010" on="1"/>
        <pt x="1222" y="1010" on="0"/>
        <pt x="1095" y="832" on="0"/>
        <pt x="1092" y="690" on="1"/>
      </contour>
      <contour>
        <pt x="1384" y="188" on="1"/>
        <pt x="1473" y="188" on="0"/>
        <pt x="1644" y="242" on="0"/>
        <pt x="1693" y="284" on="1"/>
        <pt x="1758" y="89" on="1"/>
        <pt x="1694" y="43" on="0"/>
        <pt x="1474" y="-19" on="0"/>
        <pt x="1342" y="-19" on="1"/>
        <pt x="1072" y="-19" on="0"/>
        <pt x="942" y="199" on="1"/>
        <pt x="876" y="96" on="0"/>
        <pt x="648" y="-21" on="0"/>
        <pt x="298" y="-21" on="0"/>
        <pt x="91" y="174" on="0"/>
        <pt x="91" y="366" on="1"/>
        <pt x="91" y="648" on="0"/>
        <pt x="382" y="716" on="1"/>
        <pt x="467" y="736" on="0"/>
        <pt x="712" y="736" on="0"/>
        <pt x="814" y="709" on="1"/>
        <pt x="814" y="900" on="0"/>
        <pt x="713" y="998" on="0"/>
        <pt x="599" y="998" on="1"/>
        <pt x="514" y="998" on="0"/>
        <pt x="393" y="970" on="1"/>
        <pt x="277" y="944" on="0"/>
        <pt x="221" y="902" on="1"/>
        <pt x="165" y="1091" on="1"/>
        <pt x="227" y="1145" on="0"/>
        <pt x="360" y="1177" on="1"/>
        <pt x="494" y="1209" on="0"/>
        <pt x="628" y="1209" on="1"/>
        <pt x="901" y="1209" on="0"/>
        <pt x="982" y="1029" on="1"/>
        <pt x="1031" y="1115" on="0"/>
        <pt x="1219" y="1209" on="0"/>
        <pt x="1349" y="1209" on="1"/>
        <pt x="1575" y="1209" on="0"/>
        <pt x="1816" y="922" on="0"/>
        <pt x="1816" y="682" on="1"/>
        <pt x="1816" y="612" on="0"/>
        <pt x="1813" y="537" on="1"/>
        <pt x="1092" y="537" on="1"/>
        <pt x="1097" y="188" on="0"/>
      </contour>
      <contour>
        <pt x="814" y="561" on="1"/>
        <pt x="716" y="574" on="0"/>
        <pt x="617" y="574" on="0"/>
        <pt x="548" y="568" on="0"/>
        <pt x="478" y="553" on="0"/>
        <pt x="454" y="539" on="1"/>
        <pt x="430" y="525" on="0"/>
        <pt x="410" y="504" on="1"/>
        <pt x="370" y="461" on="0"/>
        <pt x="370" y="381" on="1"/>
        <pt x="370" y="182" on="0"/>
        <pt x="566" y="182" on="1"/>
        <pt x="639" y="182" on="0"/>
        <pt x="752" y="244" on="0"/>
        <pt x="814" y="300" on="1"/>
      </contour>
    </TTGlyph>
    <TTGlyph name="agrave" xMin="85" yMin="-24" xMax="1110" yMax="2084">
      <component glyphName=".ttfautohint" x="85" y="0" flags="0x0"/>
      <component glyphName="a" x="0" y="0" flags="0x1204"/>
      <component glyphName="grave" x="126" y="1183" flags="0x1004"/>
    </TTGlyph>
    <TTGlyph name="ampersand" xMin="150" yMin="-40" xMax="1721" yMax="1574">
      <contour>
        <pt x="675" y="728" on="1"/>
        <pt x="555" y="699" on="0"/>
        <pt x="416" y="571" on="0"/>
        <pt x="416" y="451" on="1"/>
        <pt x="416" y="180" on="0"/>
        <pt x="780" y="180" on="1"/>
        <pt x="1114" y="180" on="0"/>
        <pt x="1186" y="302" on="1"/>
      </contour>
      <contour>
        <pt x="1276" y="753" on="1"/>
        <pt x="1275" y="875" on="1"/>
        <pt x="1518" y="875" on="1"/>
        <pt x="1518" y="626" on="0"/>
        <pt x="1480" y="400" on="1"/>
        <pt x="1467" y="332" on="1"/>
        <pt x="1721" y="118" on="1"/>
        <pt x="1596" y="-36" on="1"/>
        <pt x="1364" y="159" on="1"/>
        <pt x="1223" y="-40" on="0"/>
        <pt x="780" y="-40" on="1"/>
        <pt x="296" y="-40" on="0"/>
        <pt x="182" y="245" on="1"/>
        <pt x="150" y="325" on="0"/>
        <pt x="150" y="505" on="0"/>
        <pt x="188" y="635" on="0"/>
        <pt x="250" y="729" on="0"/>
        <pt x="298" y="768" on="1"/>
        <pt x="378" y="834" on="0"/>
        <pt x="507" y="883" on="1"/>
        <pt x="423" y="935" on="0"/>
        <pt x="295" y="1121" on="0"/>
        <pt x="295" y="1315" on="0"/>
        <pt x="368" y="1450" on="0"/>
        <pt x="432" y="1491" on="1"/>
        <pt x="561" y="1574" on="0"/>
        <pt x="749" y="1574" on="1"/>
        <pt x="1012" y="1574" on="0"/>
        <pt x="1130" y="1424" on="1"/>
        <pt x="1192" y="1346" on="0"/>
        <pt x="1192" y="1233" on="1"/>
        <pt x="1192" y="932" on="0"/>
        <pt x="873" y="823" on="1"/>
        <pt x="1270" y="495" on="1"/>
        <pt x="1276" y="589" on="0"/>
      </contour>
      <contour>
        <pt x="710" y="982" on="1"/>
        <pt x="848" y="1021" on="0"/>
        <pt x="908" y="1078" on="1"/>
        <pt x="966" y="1132" on="0"/>
        <pt x="966" y="1297" on="0"/>
        <pt x="853" y="1381" on="0"/>
        <pt x="755" y="1381" on="1"/>
        <pt x="546" y="1381" on="0"/>
        <pt x="546" y="1214" on="1"/>
        <pt x="546" y="1140" on="0"/>
        <pt x="645" y="1018" on="0"/>
      </contour>
    </TTGlyph>
    <TTGlyph name="aring" xMin="85" yMin="-24" xMax="1110" yMax="2008">
      <component glyphName=".ttfautohint" x="85" y="0" flags="0x0"/>
      <component glyphName="a" x="0" y="0" flags="0x1204"/>
      <component glyphName="ring" x="0" y="1183" flags="0x1004"/>
    </TTGlyph>
    <TTGlyph name="asciicircum" xMin="291" yMin="521" xMax="1039" yMax="1135">
      <contour>
        <pt x="763" y="1135" on="1"/>
        <pt x="1039" y="552" on="1"/>
        <pt x="819" y="521" on="1"/>
        <pt x="664" y="909" on="1"/>
        <pt x="510" y="521" on="1"/>
        <pt x="291" y="552" on="1"/>
        <pt x="568" y="1135" on="1"/>
      </contour>
    </TTGlyph>
    <TTGlyph name="asciicircum.001" xMin="374" yMin="432" xMax="1054" yMax="1011">
      <contour>
        <pt x="666" y="1011" on="1"/>
        <pt x="762" y="1011" on="1"/>
        <pt x="1054" y="510" on="1"/>
        <pt x="926" y="432" on="1"/>
        <pt x="714" y="809" on="1"/>
        <pt x="502" y="432" on="1"/>
        <pt x="374" y="510" on="1"/>
      </contour>
    </TTGlyph>
    <TTGlyph name="asciitilde" xMin="146" yMin="286" xMax="997" yMax="617">
      <contour>
        <pt x="997" y="587" on="1"/>
        <pt x="997" y="408" on="0"/>
        <pt x="902" y="328" on="1"/>
        <pt x="851" y="286" on="0"/>
        <pt x="710" y="286" on="0"/>
        <pt x="595" y="330" on="0"/>
        <pt x="533" y="368" on="1"/>
        <pt x="435" y="428" on="0"/>
        <pt x="404" y="428" on="1"/>
        <pt x="373" y="428" on="0"/>
        <pt x="359" y="410" on="1"/>
        <pt x="338" y="384" on="0"/>
        <pt x="338" y="304" on="1"/>
        <pt x="146" y="304" on="1"/>
        <pt x="146" y="617" on="0"/>
        <pt x="371" y="617" on="1"/>
        <pt x="469" y="617" on="0"/>
        <pt x="652" y="479" on="0"/>
        <pt x="740" y="479" on="1"/>
        <pt x="777" y="479" on="0"/>
        <pt x="798" y="532" on="0"/>
        <pt x="798" y="587" on="1"/>
      </contour>
    </TTGlyph>
    <TTGlyph name="asterisk" xMin="44" yMin="787" xMax="911" yMax="1640">
      <contour>
        <pt x="617" y="1640" on="1"/>
        <pt x="778" y="1546" on="1"/>
        <pt x="631" y="1291" on="1"/>
        <pt x="911" y="1291" on="1"/>
        <pt x="911" y="1134" on="1"/>
        <pt x="634" y="1134" on="1"/>
        <pt x="785" y="883" on="1"/>
        <pt x="622" y="787" on="1"/>
        <pt x="483" y="1033" on="1"/>
        <pt x="344" y="788" on="1"/>
        <pt x="182" y="883" on="1"/>
        <pt x="333" y="1134" on="1"/>
        <pt x="44" y="1134" on="1"/>
        <pt x="44" y="1291" on="1"/>
        <pt x="336" y="1291" on="1"/>
        <pt x="188" y="1548" on="1"/>
        <pt x="349" y="1639" on="1"/>
        <pt x="481" y="1392" on="1"/>
      </contour>
    </TTGlyph>
    <TTGlyph name="at" xMin="134" yMin="-144" xMax="1873" yMax="1529">
      <contour>
        <pt x="1446" y="-19" on="1"/>
        <pt x="1290" y="-144" on="0"/>
        <pt x="989" y="-144" on="1"/>
        <pt x="603" y="-144" on="0"/>
        <pt x="371" y="53" on="1"/>
        <pt x="258" y="149" on="0"/>
        <pt x="134" y="443" on="0"/>
        <pt x="134" y="628" on="1"/>
        <pt x="134" y="896" on="0"/>
        <pt x="363" y="1306" on="0"/>
        <pt x="778" y="1529" on="0"/>
        <pt x="1049" y="1529" on="1"/>
        <pt x="1408" y="1529" on="0"/>
        <pt x="1638" y="1340" on="1"/>
        <pt x="1748" y="1249" on="0"/>
        <pt x="1873" y="970" on="0"/>
        <pt x="1873" y="676" on="0"/>
        <pt x="1815" y="477" on="0"/>
        <pt x="1758" y="403" on="1"/>
        <pt x="1638" y="247" on="0"/>
        <pt x="1400" y="247" on="1"/>
        <pt x="1254" y="247" on="0"/>
        <pt x="1254" y="420" on="1"/>
        <pt x="1254" y="482" on="1"/>
        <pt x="1254" y="503" on="0"/>
        <pt x="1256" y="545" on="1"/>
        <pt x="1186" y="318" on="0"/>
        <pt x="1036" y="262" on="1"/>
        <pt x="974" y="239" on="0"/>
        <pt x="895" y="239" on="1"/>
        <pt x="721" y="239" on="0"/>
        <pt x="519" y="462" on="0"/>
        <pt x="519" y="643" on="1"/>
        <pt x="519" y="871" on="0"/>
        <pt x="833" y="1171" on="0"/>
        <pt x="1065" y="1171" on="1"/>
        <pt x="1317" y="1171" on="0"/>
        <pt x="1398" y="1080" on="1"/>
        <pt x="1432" y="1042" on="0"/>
        <pt x="1440" y="987" on="1"/>
        <pt x="1440" y="959" on="0"/>
        <pt x="1438" y="903" on="1"/>
        <pt x="1388" y="415" on="1"/>
        <pt x="1524" y="430" on="0"/>
        <pt x="1643" y="606" on="0"/>
        <pt x="1643" y="772" on="1"/>
        <pt x="1643" y="1047" on="0"/>
        <pt x="1322" y="1325" on="0"/>
        <pt x="728" y="1325" on="0"/>
        <pt x="371" y="944" on="0"/>
        <pt x="371" y="341" on="0"/>
        <pt x="713" y="52" on="0"/>
        <pt x="1018" y="52" on="1"/>
        <pt x="1142" y="52" on="0"/>
        <pt x="1254" y="95" on="1"/>
        <pt x="1296" y="111" on="0"/>
        <pt x="1360" y="139" on="0"/>
        <pt x="1365" y="141" on="0"/>
        <pt x="1373" y="145" on="0"/>
        <pt x="1376" y="146" on="1"/>
      </contour>
      <contour>
        <pt x="1254" y="993" on="1"/>
        <pt x="1136" y="1013" on="0"/>
        <pt x="1075" y="1013" on="1"/>
        <pt x="911" y="1013" on="0"/>
        <pt x="733" y="799" on="0"/>
        <pt x="733" y="622" on="1"/>
        <pt x="733" y="528" on="0"/>
        <pt x="821" y="412" on="0"/>
        <pt x="984" y="412" on="0"/>
        <pt x="1105" y="485" on="0"/>
        <pt x="1177" y="596" on="0"/>
        <pt x="1202" y="678" on="1"/>
        <pt x="1241" y="806" on="0"/>
      </contour>
    </TTGlyph>
    <TTGlyph name="atilde" xMin="85" yMin="-24" xMax="1110" yMax="1742">
      <component glyphName=".ttfautohint" x="85" y="0" flags="0x0"/>
      <component glyphName="a" x="0" y="0" flags="0x1204"/>
      <component glyphName="tilde" x="-113" y="1183" flags="0x1004"/>
    </TTGlyph>
    <TTGlyph name="b" xMin="154" yMin="-24" xMax="1248" yMax="1712">
      <contour>
        <pt x="446" y="292" on="1"/>
        <pt x="503" y="235" on="0"/>
        <pt x="627" y="177" on="0"/>
        <pt x="784" y="177" on="0"/>
        <pt x="882" y="244" on="0"/>
        <pt x="908" y="307" on="1"/>
        <pt x="954" y="419" on="0"/>
        <pt x="953" y="608" on="1"/>
        <pt x="953" y="842" on="0"/>
        <pt x="895" y="933" on="1"/>
        <pt x="814" y="1005" on="0"/>
        <pt x="744" y="1016" on="1"/>
        <pt x="646" y="1016" on="0"/>
        <pt x="514" y="951" on="0"/>
        <pt x="446" y="890" on="1"/>
      </contour>
      <contour>
        <pt x="446" y="1067" on="1"/>
        <pt x="581" y="1215" on="0"/>
        <pt x="773" y="1215" on="1"/>
        <pt x="1044" y="1215" on="0"/>
        <pt x="1172" y="964" on="1"/>
        <pt x="1248" y="815" on="0"/>
        <pt x="1248" y="616" on="1"/>
        <pt x="1248" y="231" on="0"/>
        <pt x="1043" y="65" on="1"/>
        <pt x="933" y="-24" on="0"/>
        <pt x="759" y="-24" on="1"/>
        <pt x="520" y="-24" on="0"/>
        <pt x="419" y="174" on="1"/>
        <pt x="361" y="0" on="1"/>
        <pt x="154" y="0" on="1"/>
        <pt x="154" y="1668" on="1"/>
        <pt x="446" y="1712" on="1"/>
      </contour>
    </TTGlyph>
    <TTGlyph name="backslash" xMin="149" yMin="-159" xMax="1013" yMax="1733">
      <contour>
        <pt x="1013" y="-70" on="1"/>
        <pt x="751" y="-159" on="1"/>
        <pt x="149" y="1647" on="1"/>
        <pt x="411" y="1733" on="1"/>
      </contour>
    </TTGlyph>
    <TTGlyph name="bar" xMin="246" yMin="-135" xMax="507" yMax="1709">
      <contour>
        <pt x="246" y="1709" on="1"/>
        <pt x="507" y="1709" on="1"/>
        <pt x="507" y="-135" on="1"/>
        <pt x="246" y="-135" on="1"/>
      </contour>
    </TTGlyph>
    <TTGlyph name="braceleft" xMin="127" yMin="-213" xMax="725" yMax="1542">
      <contour>
        <pt x="725" y="1357" on="1"/>
        <pt x="628" y="1357" on="0"/>
        <pt x="594" y="1287" on="1"/>
        <pt x="562" y="1220" on="0"/>
        <pt x="560" y="885" on="0"/>
        <pt x="464" y="697" on="0"/>
        <pt x="353" y="664" on="1"/>
        <pt x="464" y="628" on="0"/>
        <pt x="561" y="440" on="0"/>
        <pt x="563" y="283" on="1"/>
        <pt x="563" y="139" on="0"/>
        <pt x="583" y="67" on="0"/>
        <pt x="606" y="16" on="0"/>
        <pt x="623" y="2" on="1"/>
        <pt x="663" y="-30" on="0"/>
        <pt x="725" y="-29" on="1"/>
        <pt x="725" y="-213" on="1"/>
        <pt x="510" y="-213" on="0"/>
        <pt x="416" y="-103" on="1"/>
        <pt x="352" y="-29" on="0"/>
        <pt x="330" y="54" on="1"/>
        <pt x="298" y="178" on="0"/>
        <pt x="280" y="368" on="0"/>
        <pt x="271" y="428" on="0"/>
        <pt x="251" y="498" on="0"/>
        <pt x="235" y="519" on="1"/>
        <pt x="198" y="568" on="0"/>
        <pt x="127" y="568" on="1"/>
        <pt x="127" y="760" on="1"/>
        <pt x="244" y="760" on="0"/>
        <pt x="276" y="921" on="1"/>
        <pt x="290" y="993" on="0"/>
        <pt x="298" y="1068" on="1"/>
        <pt x="320" y="1283" on="0"/>
        <pt x="347" y="1338" on="1"/>
        <pt x="448" y="1542" on="0"/>
        <pt x="725" y="1542" on="1"/>
      </contour>
    </TTGlyph>
    <TTGlyph name="braceright" xMin="149" yMin="-213" xMax="746" yMax="1543">
      <contour>
        <pt x="521" y="665" on="1"/>
        <pt x="408" y="698" on="0"/>
        <pt x="313" y="885" on="0"/>
        <pt x="311" y="1046" on="1"/>
        <pt x="311" y="1191" on="0"/>
        <pt x="292" y="1259" on="0"/>
        <pt x="268" y="1312" on="0"/>
        <pt x="251" y="1326" on="1"/>
        <pt x="210" y="1358" on="0"/>
        <pt x="149" y="1358" on="1"/>
        <pt x="149" y="1543" on="1"/>
        <pt x="364" y="1542" on="0"/>
        <pt x="458" y="1432" on="1"/>
        <pt x="522" y="1356" on="0"/>
        <pt x="544" y="1275" on="1"/>
        <pt x="576" y="1154" on="0"/>
        <pt x="594" y="962" on="0"/>
        <pt x="602" y="902" on="0"/>
        <pt x="612" y="867" on="1"/>
        <pt x="622" y="832" on="0"/>
        <pt x="638" y="811" on="1"/>
        <pt x="675" y="761" on="0"/>
        <pt x="746" y="761" on="1"/>
        <pt x="746" y="569" on="1"/>
        <pt x="631" y="569" on="0"/>
        <pt x="597" y="408" on="1"/>
        <pt x="582" y="336" on="0"/>
        <pt x="574" y="262" on="1"/>
        <pt x="552" y="48" on="0"/>
        <pt x="526" y="-8" on="1"/>
        <pt x="424" y="-213" on="0"/>
        <pt x="149" y="-213" on="1"/>
        <pt x="149" y="-29" on="1"/>
        <pt x="276" y="-30" on="0"/>
        <pt x="303" y="128" on="1"/>
        <pt x="315" y="198" on="0"/>
        <pt x="319" y="272" on="1"/>
        <pt x="330" y="479" on="0"/>
        <pt x="362" y="538" on="1"/>
        <pt x="412" y="631" on="0"/>
      </contour>
    </TTGlyph>
    <TTGlyph name="bracketleft" xMin="249" yMin="0" xMax="978" yMax="1607">
      <contour>
        <pt x="978" y="1607" on="1"/>
        <pt x="978" y="1405" on="1"/>
        <pt x="532" y="1405" on="1"/>
        <pt x="532" y="202" on="1"/>
        <pt x="978" y="202" on="1"/>
        <pt x="978" y="0" on="1"/>
        <pt x="249" y="0" on="1"/>
        <pt x="249" y="1607" on="1"/>
      </contour>
    </TTGlyph>
    <TTGlyph name="bracketright" xMin="206" yMin="0" xMax="935" yMax="1607">
      <contour>
        <pt x="935" y="1607" on="1"/>
        <pt x="935" y="0" on="1"/>
        <pt x="206" y="0" on="1"/>
        <pt x="206" y="202" on="1"/>
        <pt x="651" y="202" on="1"/>
        <pt x="651" y="1405" on="1"/>
        <pt x="206" y="1405" on="1"/>
        <pt x="206" y="1607" on="1"/>
      </contour>
    </TTGlyph>
    <TTGlyph name="brokenbar" xMin="239" yMin="-91" xMax="505" yMax="1662">
      <contour>
        <pt x="239" y="1662" on="1"/>
        <pt x="505" y="1662" on="1"/>
        <pt x="505" y="925" on="1"/>
        <pt x="239" y="925" on="1"/>
      </contour>
      <contour>
        <pt x="239" y="646" on="1"/>
        <pt x="505" y="646" on="1"/>
        <pt x="505" y="-91" on="1"/>
        <pt x="239" y="-91" on="1"/>
      </contour>
    </TTGlyph>
    <TTGlyph name="bullet" xMin="254" yMin="339" xMax="1017" yMax="1056">
      <contour>
        <pt x="794" y="1056" on="0"/>
        <pt x="1017" y="854" on="0"/>
        <pt x="1017" y="542" on="0"/>
        <pt x="797" y="339" on="0"/>
        <pt x="475" y="339" on="0"/>
        <pt x="254" y="540" on="0"/>
        <pt x="254" y="852" on="0"/>
        <pt x="473" y="1056" on="0"/>
      </contour>
    </TTGlyph>
    <TTGlyph name="c" xMin="85" yMin="-24" xMax="1041" yMax="1215">
      <contour>
        <pt x="1041" y="91" on="1"/>
        <pt x="881" y="-24" on="0"/>
        <pt x="653" y="-24" on="1"/>
        <pt x="379" y="-24" on="0"/>
        <pt x="85" y="303" on="0"/>
        <pt x="85" y="585" on="1"/>
        <pt x="85" y="768" on="0"/>
        <pt x="216" y="1051" on="0"/>
        <pt x="478" y="1215" on="0"/>
        <pt x="656" y="1215" on="1"/>
        <pt x="890" y="1215" on="0"/>
        <pt x="1041" y="1105" on="1"/>
        <pt x="978" y="912" on="1"/>
        <pt x="852" y="1016" on="0"/>
        <pt x="686" y="1016" on="1"/>
        <pt x="518" y="1008" on="0"/>
        <pt x="448" y="900" on="1"/>
        <pt x="379" y="790" on="0"/>
        <pt x="379" y="594" on="1"/>
        <pt x="379" y="176" on="0"/>
        <pt x="691" y="177" on="1"/>
        <pt x="781" y="177" on="0"/>
        <pt x="914" y="232" on="0"/>
        <pt x="978" y="283" on="1"/>
      </contour>
    </TTGlyph>
    <TTGlyph name="ccedilla" xMin="85" yMin="-642" xMax="1041" yMax="1215">
      <component glyphName=".ttfautohint" x="85" y="0" flags="0x0"/>
      <component glyphName="c" x="0" y="0" flags="0x1004"/>
      <component glyphName="cedilla" x="425" y="0" flags="0x1004"/>
    </TTGlyph>
    <TTGlyph name="cedilla" xMin="102" yMin="-642" xMax="588" yMax="45">
      <contour>
        <pt x="309" y="-642" on="1"/>
        <pt x="251" y="-642" on="0"/>
        <pt x="191" y="-624" on="0"/>
        <pt x="177" y="-621" on="0"/>
        <pt x="146" y="-610" on="0"/>
        <pt x="142" y="-608" on="1"/>
        <pt x="106" y="-594" on="0"/>
        <pt x="102" y="-593" on="1"/>
        <pt x="102" y="-462" on="1"/>
        <pt x="122" y="-468" on="1"/>
        <pt x="231" y="-505" on="0"/>
        <pt x="352" y="-505" on="0"/>
        <pt x="416" y="-452" on="0"/>
        <pt x="416" y="-341" on="0"/>
        <pt x="396" y="-311" on="1"/>
        <pt x="376" y="-280" on="0"/>
        <pt x="338" y="-266" on="1"/>
        <pt x="270" y="-241" on="0"/>
        <pt x="154" y="-241" on="1"/>
        <pt x="166" y="45" on="1"/>
        <pt x="288" y="45" on="1"/>
        <pt x="281" y="-136" on="1"/>
        <pt x="414" y="-136" on="0"/>
        <pt x="588" y="-263" on="0"/>
        <pt x="588" y="-509" on="0"/>
        <pt x="440" y="-642" on="0"/>
      </contour>
    </TTGlyph>
    <TTGlyph name="cent" xMin="105" yMin="-154" xMax="1061" yMax="1382">
      <contour>
        <pt x="630" y="997" on="1"/>
        <pt x="399" y="957" on="0"/>
        <pt x="399" y="244" on="0"/>
        <pt x="630" y="198" on="1"/>
      </contour>
      <contour>
        <pt x="1056" y="81" on="1"/>
        <pt x="886" y="-11" on="0"/>
        <pt x="771" y="-11" on="1"/>
        <pt x="771" y="-154" on="1"/>
        <pt x="630" y="-154" on="1"/>
        <pt x="630" y="-17" on="1"/>
        <pt x="380" y="-4" on="0"/>
        <pt x="105" y="323" on="0"/>
        <pt x="105" y="860" on="0"/>
        <pt x="386" y="1195" on="0"/>
        <pt x="630" y="1208" on="1"/>
        <pt x="630" y="1382" on="1"/>
        <pt x="771" y="1382" on="1"/>
        <pt x="771" y="1202" on="1"/>
        <pt x="919" y="1185" on="0"/>
        <pt x="1061" y="1102" on="1"/>
        <pt x="998" y="910" on="1"/>
        <pt x="960" y="941" on="0"/>
        <pt x="834" y="989" on="0"/>
        <pt x="771" y="996" on="1"/>
        <pt x="771" y="192" on="1"/>
        <pt x="825" y="195" on="0"/>
        <pt x="885" y="218" on="0"/>
        <pt x="904" y="225" on="0"/>
        <pt x="924" y="234" on="1"/>
        <pt x="942" y="244" on="0"/>
        <pt x="948" y="247" on="1"/>
        <pt x="987" y="268" on="0"/>
        <pt x="997" y="273" on="1"/>
      </contour>
    </TTGlyph>
    <TTGlyph name="circumflex" xMin="316" yMin="223" xMax="1064" yMax="837">
      <contour>
        <pt x="787" y="837" on="1"/>
        <pt x="1064" y="254" on="1"/>
        <pt x="843" y="223" on="1"/>
        <pt x="689" y="611" on="1"/>
        <pt x="535" y="223" on="1"/>
        <pt x="316" y="254" on="1"/>
        <pt x="592" y="837" on="1"/>
      </contour>
    </TTGlyph>
    <TTGlyph name="colon" xMin="190" yMin="0" xMax="556" yMax="1067">
      <contour>
        <pt x="190" y="379" on="1"/>
        <pt x="556" y="379" on="1"/>
        <pt x="556" y="0" on="1"/>
        <pt x="190" y="0" on="1"/>
      </contour>
      <contour>
        <pt x="190" y="1067" on="1"/>
        <pt x="556" y="1067" on="1"/>
        <pt x="556" y="688" on="1"/>
        <pt x="190" y="688" on="1"/>
      </contour>
    </TTGlyph>
    <TTGlyph name="comma" xMin="154" yMin="-291" xMax="516" yMax="373">
      <contour>
        <pt x="154" y="373" on="1"/>
        <pt x="516" y="373" on="1"/>
        <pt x="516" y="51" on="1"/>
        <pt x="516" y="-165" on="0"/>
        <pt x="302" y="-257" on="1"/>
        <pt x="260" y="-275" on="0"/>
        <pt x="206" y="-291" on="1"/>
        <pt x="155" y="-183" on="1"/>
        <pt x="278" y="-140" on="0"/>
        <pt x="304" y="-72" on="1"/>
        <pt x="316" y="-42" on="0"/>
        <pt x="316" y="0" on="1"/>
        <pt x="154" y="0" on="1"/>
      </contour>
    </TTGlyph>
    <TTGlyph name="copyright" xMin="149" yMin="-91" xMax="1986" yMax="1727">
      <contour>
        <pt x="367" y="815" on="1"/>
        <pt x="367" y="496" on="0"/>
        <pt x="742" y="103" on="0"/>
        <pt x="1056" y="103" on="1"/>
        <pt x="1265" y="103" on="0"/>
        <pt x="1590" y="283" on="0"/>
        <pt x="1769" y="607" on="0"/>
        <pt x="1769" y="1019" on="0"/>
        <pt x="1589" y="1347" on="0"/>
        <pt x="1269" y="1532" on="0"/>
        <pt x="866" y="1532" on="0"/>
        <pt x="545" y="1345" on="0"/>
        <pt x="367" y="1018" on="0"/>
      </contour>
      <contour>
        <pt x="1388" y="1071" on="1"/>
        <pt x="1230" y="1152" on="0"/>
        <pt x="938" y="1152" on="0"/>
        <pt x="808" y="981" on="0"/>
        <pt x="808" y="647" on="0"/>
        <pt x="938" y="481" on="0"/>
        <pt x="1092" y="481" on="1"/>
        <pt x="1200" y="481" on="0"/>
        <pt x="1300" y="525" on="1"/>
        <pt x="1334" y="540" on="0"/>
        <pt x="1393" y="570" on="1"/>
        <pt x="1393" y="385" on="1"/>
        <pt x="1308" y="342" on="0"/>
        <pt x="1182" y="301" on="0"/>
        <pt x="1105" y="301" on="1"/>
        <pt x="855" y="301" on="0"/>
        <pt x="597" y="572" on="0"/>
        <pt x="597" y="1065" on="0"/>
        <pt x="855" y="1333" on="0"/>
        <pt x="1095" y="1333" on="1"/>
        <pt x="1234" y="1333" on="0"/>
        <pt x="1388" y="1252" on="1"/>
      </contour>
      <contour>
        <pt x="1747" y="136" on="0"/>
        <pt x="1326" y="-91" on="0"/>
        <pt x="795" y="-91" on="0"/>
        <pt x="379" y="140" on="0"/>
        <pt x="149" y="554" on="0"/>
        <pt x="149" y="818" on="1"/>
        <pt x="149" y="1017" on="0"/>
        <pt x="288" y="1356" on="0"/>
        <pt x="531" y="1593" on="0"/>
        <pt x="871" y="1727" on="0"/>
        <pt x="1264" y="1727" on="0"/>
        <pt x="1606" y="1590" on="0"/>
        <pt x="1848" y="1351" on="0"/>
        <pt x="1986" y="1013" on="0"/>
        <pt x="1986" y="818" on="1"/>
        <pt x="1986" y="551" on="0"/>
      </contour>
    </TTGlyph>
    <TTGlyph name="currency" xMin="142" yMin="424" xMax="1285" yMax="1567">
      <contour>
        <pt x="944" y="636" on="1"/>
        <pt x="828" y="557" on="0"/>
        <pt x="569" y="557" on="0"/>
        <pt x="469" y="621" on="1"/>
        <pt x="271" y="424" on="1"/>
        <pt x="142" y="554" on="1"/>
        <pt x="337" y="749" on="1"/>
        <pt x="266" y="859" on="0"/>
        <pt x="266" y="1119" on="0"/>
        <pt x="344" y="1236" on="1"/>
        <pt x="142" y="1438" on="1"/>
        <pt x="271" y="1567" on="1"/>
        <pt x="474" y="1365" on="1"/>
        <pt x="590" y="1445" on="0"/>
        <pt x="855" y="1445" on="0"/>
        <pt x="962" y="1375" on="1"/>
        <pt x="1156" y="1567" on="1"/>
        <pt x="1285" y="1438" on="1"/>
        <pt x="1090" y="1243" on="1"/>
        <pt x="1154" y="1143" on="0"/>
        <pt x="1154" y="881" on="0"/>
        <pt x="1074" y="765" on="1"/>
        <pt x="1285" y="554" on="1"/>
        <pt x="1156" y="424" on="1"/>
      </contour>
      <contour>
        <pt x="821" y="722" on="0"/>
        <pt x="988" y="892" on="0"/>
        <pt x="988" y="1121" on="0"/>
        <pt x="832" y="1278" on="0"/>
        <pt x="600" y="1278" on="0"/>
        <pt x="432" y="1110" on="0"/>
        <pt x="432" y="877" on="0"/>
        <pt x="590" y="722" on="0"/>
      </contour>
    </TTGlyph>
    <TTGlyph name="d" xMin="85" yMin="-24" xMax="1176" yMax="1712">
      <contour>
        <pt x="766" y="975" on="0"/>
        <pt x="655" y="1016" on="0"/>
        <pt x="549" y="1016" on="0"/>
        <pt x="474" y="984" on="0"/>
        <pt x="427" y="920" on="0"/>
        <pt x="412" y="884" on="1"/>
        <pt x="396" y="848" on="0"/>
        <pt x="388" y="796" on="1"/>
        <pt x="374" y="703" on="0"/>
        <pt x="375" y="527" on="0"/>
        <pt x="386" y="414" on="0"/>
        <pt x="402" y="358" on="1"/>
        <pt x="418" y="300" on="0"/>
        <pt x="444" y="262" on="1"/>
        <pt x="503" y="176" on="0"/>
        <pt x="619" y="177" on="1"/>
        <pt x="788" y="177" on="0"/>
        <pt x="884" y="293" on="1"/>
        <pt x="884" y="890" on="1"/>
        <pt x="836" y="929" on="0"/>
      </contour>
      <contour>
        <pt x="116" y="329" on="0"/>
        <pt x="85" y="518" on="0"/>
        <pt x="85" y="746" on="0"/>
        <pt x="143" y="955" on="0"/>
        <pt x="254" y="1119" on="0"/>
        <pt x="431" y="1215" on="0"/>
        <pt x="541" y="1215" on="1"/>
        <pt x="759" y="1215" on="0"/>
        <pt x="884" y="1057" on="1"/>
        <pt x="884" y="1668" on="1"/>
        <pt x="1176" y="1712" on="1"/>
        <pt x="1176" y="0" on="1"/>
        <pt x="967" y="0" on="1"/>
        <pt x="909" y="174" on="1"/>
        <pt x="865" y="88" on="0"/>
        <pt x="681" y="-24" on="0"/>
        <pt x="461" y="-24" on="0"/>
        <pt x="296" y="44" on="0"/>
        <pt x="187" y="161" on="0"/>
      </contour>
    </TTGlyph>
    <TTGlyph name="dagger" xMin="112" yMin="0" xMax="966" yMax="1468">
      <contour>
        <pt x="448" y="1020" on="1"/>
        <pt x="112" y="1020" on="1"/>
        <pt x="112" y="1161" on="1"/>
        <pt x="447" y="1161" on="1"/>
        <pt x="447" y="1468" on="1"/>
        <pt x="640" y="1468" on="1"/>
        <pt x="640" y="1161" on="1"/>
        <pt x="966" y="1161" on="1"/>
        <pt x="966" y="1020" on="1"/>
        <pt x="638" y="1020" on="1"/>
        <pt x="638" y="0" on="1"/>
        <pt x="448" y="0" on="1"/>
      </contour>
    </TTGlyph>
    <TTGlyph name="daggerdbl" xMin="202" yMin="0" xMax="1056" yMax="1468">
      <contour>
        <pt x="202" y="444" on="1"/>
        <pt x="537" y="444" on="1"/>
        <pt x="537" y="1020" on="1"/>
        <pt x="202" y="1020" on="1"/>
        <pt x="202" y="1161" on="1"/>
        <pt x="537" y="1161" on="1"/>
        <pt x="537" y="1468" on="1"/>
        <pt x="730" y="1468" on="1"/>
        <pt x="730" y="1161" on="1"/>
        <pt x="1056" y="1161" on="1"/>
        <pt x="1056" y="1020" on="1"/>
        <pt x="728" y="1020" on="1"/>
        <pt x="728" y="444" on="1"/>
        <pt x="1054" y="444" on="1"/>
        <pt x="1054" y="305" on="1"/>
        <pt x="728" y="305" on="1"/>
        <pt x="728" y="0" on="1"/>
        <pt x="537" y="0" on="1"/>
        <pt x="537" y="305" on="1"/>
        <pt x="202" y="305" on="1"/>
      </contour>
    </TTGlyph>
    <TTGlyph name="degree" xMin="123" yMin="720" xMax="689" yMax="1259">
      <contour>
        <pt x="497" y="1195" on="0"/>
        <pt x="317" y="1195" on="0"/>
        <pt x="199" y="1080" on="0"/>
        <pt x="199" y="900" on="0"/>
        <pt x="316" y="785" on="0"/>
        <pt x="498" y="785" on="0"/>
        <pt x="613" y="899" on="0"/>
        <pt x="613" y="1080" on="0"/>
      </contour>
      <contour>
        <pt x="283" y="720" on="0"/>
        <pt x="123" y="876" on="0"/>
        <pt x="123" y="1109" on="0"/>
        <pt x="287" y="1259" on="0"/>
        <pt x="528" y="1259" on="0"/>
        <pt x="689" y="1107" on="0"/>
        <pt x="689" y="868" on="0"/>
        <pt x="523" y="720" on="0"/>
      </contour>
    </TTGlyph>
    <TTGlyph name="dieresis" xMin="109" yMin="248" xMax="1049" yMax="580">
      <contour>
        <pt x="439" y="342" on="0"/>
        <pt x="345" y="248" on="0"/>
        <pt x="200" y="248" on="0"/>
        <pt x="109" y="341" on="0"/>
        <pt x="109" y="486" on="0"/>
        <pt x="201" y="580" on="0"/>
        <pt x="345" y="580" on="0"/>
        <pt x="439" y="486" on="0"/>
      </contour>
      <contour>
        <pt x="1049" y="343" on="0"/>
        <pt x="954" y="248" on="0"/>
        <pt x="810" y="248" on="0"/>
        <pt x="719" y="341" on="0"/>
        <pt x="719" y="486" on="0"/>
        <pt x="811" y="580" on="0"/>
        <pt x="954" y="580" on="0"/>
        <pt x="1049" y="485" on="0"/>
      </contour>
    </TTGlyph>
    <TTGlyph name="divide" xMin="148" yMin="143" xMax="1041" yMax="1207">
      <contour>
        <pt x="755" y="969" on="0"/>
        <pt x="666" y="875" on="0"/>
        <pt x="523" y="875" on="0"/>
        <pt x="433" y="968" on="0"/>
        <pt x="433" y="1113" on="0"/>
        <pt x="523" y="1207" on="0"/>
        <pt x="666" y="1207" on="0"/>
        <pt x="755" y="1113" on="0"/>
      </contour>
      <contour>
        <pt x="756" y="237" on="0"/>
        <pt x="667" y="143" on="0"/>
        <pt x="524" y="143" on="0"/>
        <pt x="434" y="236" on="0"/>
        <pt x="434" y="381" on="0"/>
        <pt x="524" y="475" on="0"/>
        <pt x="667" y="475" on="0"/>
        <pt x="756" y="381" on="0"/>
      </contour>
      <contour>
        <pt x="148" y="570" on="1"/>
        <pt x="148" y="784" on="1"/>
        <pt x="1041" y="784" on="1"/>
        <pt x="1041" y="570" on="1"/>
      </contour>
    </TTGlyph>
    <TTGlyph name="dollar" xMin="100" yMin="-162" xMax="1183" yMax="1614">
      <contour>
        <pt x="713" y="209" on="1"/>
        <pt x="798" y="219" on="0"/>
        <pt x="908" y="319" on="0"/>
        <pt x="908" y="485" on="0"/>
        <pt x="861" y="527" on="1"/>
        <pt x="818" y="566" on="0"/>
        <pt x="746" y="596" on="0"/>
        <pt x="713" y="609" on="1"/>
      </contour>
      <contour>
        <pt x="604" y="1256" on="1"/>
        <pt x="491" y="1254" on="0"/>
        <pt x="372" y="1184" on="0"/>
        <pt x="372" y="1096" on="1"/>
        <pt x="372" y="1047" on="0"/>
        <pt x="419" y="1001" on="0"/>
        <pt x="446" y="979" on="0"/>
        <pt x="502" y="956" on="0"/>
        <pt x="530" y="945" on="0"/>
        <pt x="595" y="924" on="0"/>
        <pt x="604" y="921" on="1"/>
      </contour>
      <contour>
        <pt x="117" y="972" on="0"/>
        <pt x="100" y="1050" on="0"/>
        <pt x="100" y="1180" on="0"/>
        <pt x="150" y="1314" on="0"/>
        <pt x="237" y="1401" on="0"/>
        <pt x="302" y="1429" on="1"/>
        <pt x="415" y="1478" on="0"/>
        <pt x="604" y="1484" on="1"/>
        <pt x="604" y="1614" on="1"/>
        <pt x="713" y="1614" on="1"/>
        <pt x="713" y="1479" on="1"/>
        <pt x="974" y="1463" on="0"/>
        <pt x="1118" y="1384" on="1"/>
        <pt x="1050" y="1175" on="1"/>
        <pt x="997" y="1194" on="0"/>
        <pt x="792" y="1253" on="0"/>
        <pt x="713" y="1253" on="1"/>
        <pt x="713" y="884" on="1"/>
        <pt x="894" y="817" on="0"/>
        <pt x="969" y="774" on="1"/>
        <pt x="1183" y="652" on="0"/>
        <pt x="1183" y="217" on="0"/>
        <pt x="934" y="-12" on="0"/>
        <pt x="713" y="-28" on="1"/>
        <pt x="713" y="-162" on="1"/>
        <pt x="604" y="-162" on="1"/>
        <pt x="604" y="-30" on="1"/>
        <pt x="475" y="-30" on="0"/>
        <pt x="382" y="0" on="1"/>
        <pt x="258" y="40" on="0"/>
        <pt x="147" y="86" on="1"/>
        <pt x="207" y="307" on="1"/>
        <pt x="448" y="200" on="0"/>
        <pt x="604" y="200" on="1"/>
        <pt x="604" y="648" on="1"/>
        <pt x="582" y="656" on="0"/>
        <pt x="489" y="689" on="0"/>
        <pt x="439" y="707" on="0"/>
        <pt x="353" y="742" on="0"/>
        <pt x="303" y="769" on="0"/>
        <pt x="232" y="812" on="0"/>
        <pt x="191" y="853" on="0"/>
        <pt x="143" y="911" on="0"/>
      </contour>
    </TTGlyph>
    <TTGlyph name="e" xMin="85" yMin="-24" xMax="1120" yMax="1215">
      <contour>
        <pt x="693" y="177" on="1"/>
        <pt x="789" y="177" on="0"/>
        <pt x="929" y="229" on="0"/>
        <pt x="997" y="281" on="1"/>
        <pt x="1063" y="84" on="1"/>
        <pt x="882" y="-24" on="0"/>
        <pt x="670" y="-24" on="1"/>
        <pt x="393" y="-24" on="0"/>
        <pt x="85" y="290" on="0"/>
        <pt x="85" y="568" on="1"/>
        <pt x="85" y="855" on="0"/>
        <pt x="221" y="1032" on="1"/>
        <pt x="362" y="1215" on="0"/>
        <pt x="638" y="1215" on="1"/>
        <pt x="872" y="1215" on="0"/>
        <pt x="1120" y="931" on="0"/>
        <pt x="1120" y="685" on="1"/>
        <pt x="1120" y="609" on="0"/>
        <pt x="1117" y="537" on="1"/>
        <pt x="384" y="537" on="1"/>
        <pt x="386" y="366" on="0"/>
        <pt x="539" y="177" on="0"/>
      </contour>
      <contour>
        <pt x="877" y="704" on="1"/>
        <pt x="877" y="1012" on="0"/>
        <pt x="645" y="1016" on="1"/>
        <pt x="518" y="1012" on="0"/>
        <pt x="389" y="833" on="0"/>
        <pt x="383" y="690" on="1"/>
        <pt x="877" y="690" on="1"/>
      </contour>
    </TTGlyph>
    <TTGlyph name="eacute" xMin="85" yMin="-24" xMax="1120" yMax="2084">
      <component glyphName=".ttfautohint" x="85" y="0" flags="0x0"/>
      <component glyphName="e" x="0" y="0" flags="0x1204"/>
      <component glyphName="acute" x="15" y="1192" flags="0x1004"/>
    </TTGlyph>
    <TTGlyph name="ecircumflex" xMin="85" yMin="-24" xMax="1120" yMax="2029">
      <component glyphName=".ttfautohint" x="85" y="0" flags="0x0"/>
      <component glyphName="e" x="0" y="0" flags="0x1204"/>
      <component glyphName="circumflex" x="-51" y="1192" flags="0x1004"/>
    </TTGlyph>
    <TTGlyph name="edieresis" xMin="85" yMin="-24" xMax="1120" yMax="1739">
      <component glyphName=".ttfautohint" x="85" y="0" flags="0x0"/>
      <component glyphName="e" x="0" y="0" flags="0x1204"/>
      <component glyphName="dieresis" x="41" y="1159" flags="0x1004"/>
    </TTGlyph>
    <TTGlyph name="egrave" xMin="85" yMin="-24" xMax="1120" yMax="2093">
      <component glyphName=".ttfautohint" x="85" y="0" flags="0x0"/>
      <component glyphName="e" x="0" y="0" flags="0x1204"/>
      <component glyphName="grave" x="138" y="1192" flags="0x1004"/>
    </TTGlyph>
    <TTGlyph name="eight" xMin="149" yMin="-138" xMax="1163" yMax="1351">
      <contour>
        <pt x="430" y="854" on="0"/>
        <pt x="554" y="743" on="0"/>
        <pt x="762" y="743" on="0"/>
        <pt x="882" y="855" on="0"/>
        <pt x="882" y="956" on="1"/>
        <pt x="882" y="1140" on="0"/>
        <pt x="430" y="1140" on="0"/>
        <pt x="430" y="956" on="1"/>
      </contour>
      <contour>
        <pt x="419" y="175" on="0"/>
        <pt x="536" y="81" on="0"/>
        <pt x="778" y="81" on="0"/>
        <pt x="892" y="174" on="0"/>
        <pt x="892" y="402" on="0"/>
        <pt x="770" y="545" on="0"/>
        <pt x="546" y="545" on="0"/>
        <pt x="419" y="403" on="0"/>
      </contour>
      <contour>
        <pt x="381" y="1305" on="0"/>
        <pt x="556" y="1351" on="0"/>
        <pt x="797" y="1351" on="0"/>
        <pt x="1012" y="1271" on="0"/>
        <pt x="1146" y="1093" on="0"/>
        <pt x="1146" y="833" on="0"/>
        <pt x="997" y="660" on="0"/>
        <pt x="879" y="632" on="1"/>
        <pt x="1007" y="604" on="0"/>
        <pt x="1163" y="410" on="0"/>
        <pt x="1163" y="262" on="1"/>
        <pt x="1164" y="56" on="0"/>
        <pt x="1016" y="-44" on="1"/>
        <pt x="878" y="-138" on="0"/>
        <pt x="659" y="-138" on="1"/>
        <pt x="384" y="-138" on="0"/>
        <pt x="247" y="0" on="1"/>
        <pt x="149" y="99" on="0"/>
        <pt x="149" y="410" on="0"/>
        <pt x="306" y="607" on="0"/>
        <pt x="433" y="632" on="1"/>
        <pt x="315" y="661" on="0"/>
        <pt x="166" y="834" on="0"/>
        <pt x="166" y="1063" on="0"/>
        <pt x="244" y="1213" on="0"/>
      </contour>
    </TTGlyph>
    <TTGlyph name="ellipsis" xMin="114" yMin="0" xMax="1553" yMax="357">
      <contour>
        <pt x="1328" y="0" on="1"/>
        <pt x="1273" y="32" on="0"/>
        <pt x="1208" y="156" on="0"/>
        <pt x="1208" y="237" on="1"/>
        <pt x="1236" y="290" on="0"/>
        <pt x="1355" y="357" on="0"/>
        <pt x="1432" y="357" on="1"/>
        <pt x="1486" y="324" on="0"/>
        <pt x="1553" y="200" on="0"/>
        <pt x="1553" y="120" on="1"/>
        <pt x="1525" y="66" on="0"/>
        <pt x="1405" y="0" on="0"/>
      </contour>
      <contour>
        <pt x="777" y="0" on="1"/>
        <pt x="722" y="32" on="0"/>
        <pt x="658" y="156" on="0"/>
        <pt x="658" y="237" on="1"/>
        <pt x="686" y="290" on="0"/>
        <pt x="805" y="357" on="0"/>
        <pt x="882" y="357" on="1"/>
        <pt x="936" y="324" on="0"/>
        <pt x="1003" y="200" on="0"/>
        <pt x="1003" y="120" on="1"/>
        <pt x="975" y="66" on="0"/>
        <pt x="854" y="0" on="0"/>
      </contour>
      <contour>
        <pt x="234" y="0" on="1"/>
        <pt x="179" y="32" on="0"/>
        <pt x="114" y="156" on="0"/>
        <pt x="114" y="237" on="1"/>
        <pt x="142" y="290" on="0"/>
        <pt x="261" y="357" on="0"/>
        <pt x="338" y="357" on="1"/>
        <pt x="392" y="324" on="0"/>
        <pt x="459" y="200" on="0"/>
        <pt x="459" y="120" on="1"/>
        <pt x="431" y="66" on="0"/>
        <pt x="311" y="0" on="0"/>
      </contour>
    </TTGlyph>
    <TTGlyph name="emdash" xMin="147" yMin="577" xMax="1587" yMax="796">
      <contour>
        <pt x="147" y="796" on="1"/>
        <pt x="1587" y="796" on="1"/>
        <pt x="1587" y="577" on="1"/>
        <pt x="147" y="577" on="1"/>
      </contour>
    </TTGlyph>
    <TTGlyph name="endash" xMin="241" yMin="577" xMax="861" yMax="796">
      <contour>
        <pt x="241" y="796" on="1"/>
        <pt x="861" y="796" on="1"/>
        <pt x="861" y="577" on="1"/>
        <pt x="241" y="577" on="1"/>
      </contour>
    </TTGlyph>
    <TTGlyph name="equal" xMin="162" yMin="278" xMax="951" yMax="797">
      <contour>
        <pt x="162" y="278" on="1"/>
        <pt x="162" y="475" on="1"/>
        <pt x="951" y="475" on="1"/>
        <pt x="951" y="278" on="1"/>
      </contour>
      <contour>
        <pt x="162" y="601" on="1"/>
        <pt x="162" y="797" on="1"/>
        <pt x="951" y="797" on="1"/>
        <pt x="951" y="601" on="1"/>
      </contour>
    </TTGlyph>
    <TTGlyph name="eth" xMin="85" yMin="-18" xMax="1176" yMax="1780">
      <contour>
        <pt x="919" y="1451" on="1"/>
        <pt x="1043" y="1287" on="0"/>
        <pt x="1176" y="905" on="0"/>
        <pt x="1176" y="654" on="1"/>
        <pt x="1176" y="156" on="0"/>
        <pt x="872" y="28" on="1"/>
        <pt x="762" y="-18" on="0"/>
        <pt x="479" y="-18" on="0"/>
        <pt x="276" y="75" on="0"/>
        <pt x="212" y="159" on="1"/>
        <pt x="84" y="328" on="0"/>
        <pt x="85" y="603" on="1"/>
        <pt x="86" y="856" on="0"/>
        <pt x="196" y="1028" on="1"/>
        <pt x="250" y="1112" on="0"/>
        <pt x="431" y="1209" on="0"/>
        <pt x="656" y="1209" on="0"/>
        <pt x="832" y="1125" on="0"/>
        <pt x="884" y="1057" on="1"/>
        <pt x="845" y="1205" on="0"/>
        <pt x="692" y="1379" on="1"/>
        <pt x="453" y="1305" on="1"/>
        <pt x="410" y="1433" on="1"/>
        <pt x="586" y="1488" on="1"/>
        <pt x="496" y="1572" on="0"/>
        <pt x="402" y="1630" on="1"/>
        <pt x="528" y="1780" on="1"/>
        <pt x="690" y="1684" on="0"/>
        <pt x="817" y="1560" on="1"/>
        <pt x="1113" y="1653" on="1"/>
        <pt x="1156" y="1525" on="1"/>
      </contour>
      <contour>
        <pt x="862" y="893" on="0"/>
        <pt x="720" y="1007" on="0"/>
        <pt x="541" y="1007" on="0"/>
        <pt x="493" y="974" on="1"/>
        <pt x="444" y="942" on="0"/>
        <pt x="420" y="882" on="1"/>
        <pt x="374" y="771" on="0"/>
        <pt x="375" y="597" on="1"/>
        <pt x="375" y="185" on="0"/>
        <pt x="619" y="185" on="1"/>
        <pt x="756" y="185" on="0"/>
        <pt x="818" y="294" on="1"/>
        <pt x="874" y="392" on="0"/>
        <pt x="886" y="650" on="0"/>
        <pt x="886" y="796" on="1"/>
      </contour>
    </TTGlyph>
    <TTGlyph name="exclam" xMin="228" yMin="-7" xMax="560" yMax="1607">
      <contour>
        <pt x="409" y="313" on="1"/>
        <pt x="560" y="313" on="0"/>
        <pt x="560" y="-7" on="0"/>
        <pt x="409" y="-7" on="1"/>
        <pt x="333" y="-7" on="0"/>
        <pt x="276" y="26" on="1"/>
        <pt x="243" y="84" on="0"/>
        <pt x="243" y="161" on="1"/>
        <pt x="243" y="313" on="0"/>
      </contour>
      <contour>
        <pt x="491" y="464" on="1"/>
        <pt x="297" y="464" on="1"/>
        <pt x="228" y="1607" on="1"/>
        <pt x="557" y="1607" on="1"/>
      </contour>
    </TTGlyph>
    <TTGlyph name="exclamdown" xMin="249" yMin="-1" xMax="578" yMax="1584">
      <contour>
        <pt x="578" y="-1" on="1"/>
        <pt x="249" y="-1" on="1"/>
        <pt x="318" y="1130" on="1"/>
        <pt x="512" y="1130" on="1"/>
      </contour>
      <contour>
        <pt x="427" y="1264" on="1"/>
        <pt x="342" y="1264" on="0"/>
        <pt x="260" y="1334" on="0"/>
        <pt x="260" y="1506" on="0"/>
        <pt x="339" y="1584" on="0"/>
        <pt x="427" y="1584" on="1"/>
        <pt x="578" y="1584" on="0"/>
        <pt x="578" y="1415" on="1"/>
        <pt x="578" y="1264" on="0"/>
      </contour>
    </TTGlyph>
    <TTGlyph name="f" xMin="24" yMin="0" xMax="845" yMax="1711">
      <contour>
        <pt x="820" y="1453" on="1"/>
        <pt x="709" y="1494" on="0"/>
        <pt x="656" y="1494" on="1"/>
        <pt x="551" y="1494" on="0"/>
        <pt x="524" y="1375" on="1"/>
        <pt x="512" y="1320" on="0"/>
        <pt x="512" y="1191" on="1"/>
        <pt x="512" y="1185" on="1"/>
        <pt x="824" y="1185" on="1"/>
        <pt x="824" y="1053" on="1"/>
        <pt x="512" y="1053" on="1"/>
        <pt x="512" y="0" on="1"/>
        <pt x="219" y="0" on="1"/>
        <pt x="219" y="1053" on="1"/>
        <pt x="24" y="1053" on="1"/>
        <pt x="24" y="1185" on="1"/>
        <pt x="219" y="1185" on="1"/>
        <pt x="219" y="1577" on="0"/>
        <pt x="415" y="1674" on="1"/>
        <pt x="490" y="1711" on="0"/>
        <pt x="732" y="1711" on="0"/>
        <pt x="845" y="1661" on="1"/>
      </contour>
    </TTGlyph>
    <TTGlyph name="f_j" xMin="24" yMin="-364" xMax="1320" yMax="1742">
      <contour>
        <pt x="1320" y="1503" on="0"/>
        <pt x="1231" y="1410" on="0"/>
        <pt x="1088" y="1410" on="0"/>
        <pt x="998" y="1504" on="0"/>
        <pt x="998" y="1649" on="0"/>
        <pt x="1088" y="1742" on="0"/>
        <pt x="1230" y="1742" on="0"/>
        <pt x="1320" y="1648" on="0"/>
      </contour>
      <contour>
        <pt x="532" y="1218" on="1"/>
        <pt x="532" y="1185" on="1"/>
        <pt x="1307" y="1185" on="1"/>
        <pt x="1307" y="187" on="1"/>
        <pt x="1307" y="-30" on="0"/>
        <pt x="1081" y="-322" on="0"/>
        <pt x="896" y="-364" on="1"/>
        <pt x="809" y="-173" on="1"/>
        <pt x="914" y="-110" on="0"/>
        <pt x="1013" y="60" on="0"/>
        <pt x="1013" y="208" on="1"/>
        <pt x="1013" y="1053" on="1"/>
        <pt x="532" y="1053" on="1"/>
        <pt x="532" y="0" on="1"/>
        <pt x="239" y="0" on="1"/>
        <pt x="239" y="1053" on="1"/>
        <pt x="24" y="1053" on="1"/>
        <pt x="24" y="1185" on="1"/>
        <pt x="239" y="1185" on="1"/>
        <pt x="240" y="1494" on="0"/>
        <pt x="358" y="1618" on="1"/>
        <pt x="447" y="1712" on="0"/>
        <pt x="617" y="1711" on="1"/>
        <pt x="741" y="1711" on="0"/>
        <pt x="865" y="1661" on="1"/>
        <pt x="840" y="1453" on="1"/>
        <pt x="754" y="1494" on="0"/>
        <pt x="646" y="1494" on="0"/>
        <pt x="601" y="1476" on="0"/>
        <pt x="571" y="1450" on="0"/>
        <pt x="550" y="1401" on="0"/>
        <pt x="539" y="1359" on="0"/>
        <pt x="536" y="1324" on="1"/>
        <pt x="532" y="1277" on="0"/>
      </contour>
    </TTGlyph>
    <TTGlyph name="five" xMin="136" yMin="-196" xMax="1053" yMax="1190">
      <contour>
        <pt x="805" y="737" on="0"/>
        <pt x="1053" y="489" on="0"/>
        <pt x="1053" y="50" on="0"/>
        <pt x="775" y="-196" on="0"/>
        <pt x="338" y="-196" on="0"/>
        <pt x="136" y="-102" on="1"/>
        <pt x="182" y="112" on="1"/>
        <pt x="349" y="31" on="0"/>
        <pt x="534" y="31" on="1"/>
        <pt x="800" y="31" on="0"/>
        <pt x="800" y="270" on="1"/>
        <pt x="800" y="532" on="0"/>
        <pt x="557" y="532" on="1"/>
        <pt x="438" y="532" on="0"/>
        <pt x="295" y="446" on="1"/>
        <pt x="169" y="554" on="1"/>
        <pt x="169" y="1190" on="1"/>
        <pt x="966" y="1190" on="1"/>
        <pt x="966" y="978" on="1"/>
        <pt x="401" y="978" on="1"/>
        <pt x="401" y="681" on="1"/>
        <pt x="478" y="737" on="0"/>
        <pt x="585" y="737" on="1"/>
      </contour>
    </TTGlyph>
    <TTGlyph name="florin" xMin="46" yMin="-98" xMax="904" yMax="1711">
      <contour>
        <pt x="555" y="1163" on="1"/>
        <pt x="554" y="1142" on="1"/>
        <pt x="849" y="1142" on="1"/>
        <pt x="845" y="1010" on="1"/>
        <pt x="549" y="1010" on="1"/>
        <pt x="523" y="365" on="1"/>
        <pt x="514" y="204" on="0"/>
        <pt x="449" y="-21" on="0"/>
        <pt x="381" y="-98" on="1"/>
        <pt x="321" y="-98" on="0"/>
        <pt x="114" y="-66" on="0"/>
        <pt x="61" y="-66" on="1"/>
        <pt x="91" y="54" on="1"/>
        <pt x="91" y="71" on="0"/>
        <pt x="155" y="95" on="0"/>
        <pt x="160" y="99" on="1"/>
        <pt x="219" y="173" on="0"/>
        <pt x="226" y="318" on="1"/>
        <pt x="256" y="1010" on="1"/>
        <pt x="46" y="1010" on="1"/>
        <pt x="50" y="1142" on="1"/>
        <pt x="260" y="1142" on="1"/>
        <pt x="272" y="1474" on="0"/>
        <pt x="384" y="1602" on="1"/>
        <pt x="479" y="1710" on="0"/>
        <pt x="660" y="1711" on="1"/>
        <pt x="733" y="1711" on="0"/>
        <pt x="882" y="1666" on="0"/>
        <pt x="904" y="1661" on="1"/>
        <pt x="878" y="1455" on="1"/>
        <pt x="781" y="1494" on="0"/>
        <pt x="677" y="1494" on="0"/>
        <pt x="624" y="1470" on="0"/>
        <pt x="591" y="1418" on="0"/>
        <pt x="570" y="1366" on="0"/>
        <pt x="565" y="1324" on="1"/>
        <pt x="555" y="1240" on="0"/>
      </contour>
    </TTGlyph>
    <TTGlyph name="four" xMin="83" yMin="-238" xMax="1164" yMax="1236">
      <contour>
        <pt x="733" y="276" on="1"/>
        <pt x="733" y="825" on="1"/>
        <pt x="363" y="276" on="1"/>
      </contour>
      <contour>
        <pt x="979" y="1179" on="1"/>
        <pt x="979" y="279" on="1"/>
        <pt x="1164" y="279" on="1"/>
        <pt x="1164" y="64" on="1"/>
        <pt x="979" y="64" on="1"/>
        <pt x="979" y="-238" on="1"/>
        <pt x="733" y="-238" on="1"/>
        <pt x="733" y="64" on="1"/>
        <pt x="120" y="64" on="1"/>
        <pt x="83" y="243" on="1"/>
        <pt x="758" y="1236" on="1"/>
      </contour>
    </TTGlyph>
    <TTGlyph name="g" xMin="98" yMin="-516" xMax="1266" yMax="1215">
      <contour>
        <pt x="332" y="-159" on="1"/>
        <pt x="332" y="-299" on="0"/>
        <pt x="582" y="-299" on="1"/>
        <pt x="810" y="-298" on="0"/>
        <pt x="872" y="-266" on="1"/>
        <pt x="925" y="-238" on="0"/>
        <pt x="939" y="-215" on="1"/>
        <pt x="967" y="-165" on="0"/>
        <pt x="967" y="-69" on="0"/>
        <pt x="935" y="-8" on="0"/>
        <pt x="872" y="29" on="0"/>
        <pt x="803" y="51" on="0"/>
        <pt x="701" y="61" on="0"/>
        <pt x="623" y="65" on="0"/>
        <pt x="509" y="67" on="0"/>
        <pt x="478" y="69" on="1"/>
        <pt x="418" y="36" on="0"/>
        <pt x="332" y="-85" on="0"/>
      </contour>
      <contour>
        <pt x="845" y="938" on="0"/>
        <pt x="739" y="1018" on="0"/>
        <pt x="519" y="1018" on="0"/>
        <pt x="409" y="931" on="0"/>
        <pt x="409" y="840" on="1"/>
        <pt x="409" y="669" on="0"/>
        <pt x="541" y="602" on="1"/>
        <pt x="663" y="615" on="1"/>
        <pt x="747" y="629" on="0"/>
        <pt x="845" y="746" on="0"/>
      </contour>
      <contour>
        <pt x="910" y="1148" on="1"/>
        <pt x="1035" y="1207" on="0"/>
        <pt x="1222" y="1207" on="1"/>
        <pt x="1266" y="1207" on="1"/>
        <pt x="1266" y="1008" on="1"/>
        <pt x="1018" y="1008" on="1"/>
        <pt x="1090" y="915" on="0"/>
        <pt x="1090" y="849" on="1"/>
        <pt x="1090" y="667" on="0"/>
        <pt x="880" y="472" on="0"/>
        <pt x="695" y="449" on="1"/>
        <pt x="367" y="406" on="1"/>
        <pt x="386" y="272" on="1"/>
        <pt x="667" y="260" on="1"/>
        <pt x="938" y="247" on="0"/>
        <pt x="1056" y="180" on="1"/>
        <pt x="1168" y="118" on="0"/>
        <pt x="1202" y="16" on="1"/>
        <pt x="1222" y="-42" on="0"/>
        <pt x="1221" y="-213" on="0"/>
        <pt x="1151" y="-357" on="0"/>
        <pt x="1037" y="-444" on="0"/>
        <pt x="952" y="-470" on="1"/>
        <pt x="806" y="-516" on="0"/>
        <pt x="582" y="-516" on="1"/>
        <pt x="298" y="-516" on="0"/>
        <pt x="186" y="-408" on="1"/>
        <pt x="98" y="-324" on="0"/>
        <pt x="98" y="9" on="0"/>
        <pt x="303" y="106" on="1"/>
        <pt x="212" y="119" on="0"/>
        <pt x="139" y="241" on="0"/>
        <pt x="133" y="356" on="1"/>
        <pt x="134" y="448" on="0"/>
        <pt x="192" y="488" on="1"/>
        <pt x="248" y="527" on="0"/>
        <pt x="337" y="547" on="0"/>
        <pt x="374" y="556" on="1"/>
        <pt x="273" y="569" on="0"/>
        <pt x="152" y="717" on="0"/>
        <pt x="152" y="831" on="1"/>
        <pt x="152" y="1020" on="0"/>
        <pt x="405" y="1215" on="0"/>
        <pt x="812" y="1215" on="0"/>
      </contour>
    </TTGlyph>
    <TTGlyph name="germandbls" xMin="156" yMin="-173" xMax="1457" yMax="1607">
      <contour>
        <pt x="613" y="736" on="1"/>
        <pt x="612" y="789" on="1"/>
        <pt x="612" y="922" on="1"/>
        <pt x="834" y="922" on="0"/>
        <pt x="906" y="962" on="1"/>
        <pt x="982" y="1004" on="0"/>
        <pt x="1004" y="1078" on="1"/>
        <pt x="1016" y="1122" on="0"/>
        <pt x="1017" y="1181" on="1"/>
        <pt x="1017" y="1303" on="0"/>
        <pt x="871" y="1401" on="0"/>
        <pt x="729" y="1401" on="1"/>
        <pt x="536" y="1400" on="0"/>
        <pt x="489" y="1242" on="1"/>
        <pt x="463" y="1153" on="0"/>
        <pt x="463" y="999" on="1"/>
        <pt x="463" y="0" on="1"/>
        <pt x="156" y="0" on="1"/>
        <pt x="156" y="1002" on="1"/>
        <pt x="156" y="1305" on="0"/>
        <pt x="433" y="1607" on="0"/>
        <pt x="729" y="1607" on="1"/>
        <pt x="974" y="1606" on="0"/>
        <pt x="1124" y="1512" on="1"/>
        <pt x="1284" y="1410" on="0"/>
        <pt x="1285" y="1186" on="1"/>
        <pt x="1285" y="1035" on="0"/>
        <pt x="1121" y="859" on="0"/>
        <pt x="977" y="843" on="1"/>
        <pt x="1457" y="792" on="0"/>
        <pt x="1457" y="379" on="1"/>
        <pt x="1457" y="255" on="0"/>
        <pt x="1360" y="61" on="0"/>
        <pt x="1201" y="-61" on="0"/>
        <pt x="1089" y="-101" on="1"/>
        <pt x="887" y="-173" on="0"/>
        <pt x="607" y="-173" on="1"/>
        <pt x="607" y="63" on="1"/>
        <pt x="831" y="76" on="0"/>
        <pt x="936" y="113" on="1"/>
        <pt x="1048" y="152" on="0"/>
        <pt x="1096" y="211" on="1"/>
        <pt x="1158" y="287" on="0"/>
        <pt x="1158" y="479" on="0"/>
        <pt x="1099" y="600" on="0"/>
        <pt x="1001" y="674" on="0"/>
        <pt x="929" y="697" on="1"/>
        <pt x="807" y="736" on="0"/>
      </contour>
    </TTGlyph>
    <TTGlyph name="glyph115" xMin="98" yMin="98" xMax="780" yMax="215">
      <contour>
        <pt x="98" y="215" on="1"/>
        <pt x="780" y="215" on="1"/>
        <pt x="780" y="98" on="1"/>
        <pt x="98" y="98" on="1"/>
      </contour>
    </TTGlyph>
    <TTGlyph name="grave" xMin="181" yMin="218" xMax="657" yMax="901">
      <contour>
        <pt x="181" y="776" on="1"/>
        <pt x="470" y="901" on="1"/>
        <pt x="657" y="275" on="1"/>
        <pt x="533" y="218" on="1"/>
      </contour>
    </TTGlyph>
    <TTGlyph name="greater" xMin="247" yMin="1" xMax="1070" yMax="1264">
      <contour>
        <pt x="289" y="1" on="1"/>
        <pt x="248" y="256" on="1"/>
        <pt x="800" y="632" on="1"/>
        <pt x="247" y="1009" on="1"/>
        <pt x="288" y="1264" on="1"/>
        <pt x="1026" y="745" on="1"/>
        <pt x="1070" y="559" on="1"/>
      </contour>
    </TTGlyph>
    <TTGlyph name="guillemotleft" xMin="121" yMin="8" xMax="1602" yMax="1161">
      <contour>
        <pt x="1135" y="588" on="1"/>
        <pt x="1602" y="299" on="1"/>
        <pt x="1602" y="8" on="1"/>
        <pt x="861" y="473" on="1"/>
        <pt x="861" y="697" on="1"/>
        <pt x="1602" y="1161" on="1"/>
        <pt x="1602" y="870" on="1"/>
      </contour>
      <contour>
        <pt x="396" y="588" on="1"/>
        <pt x="862" y="299" on="1"/>
        <pt x="862" y="8" on="1"/>
        <pt x="121" y="473" on="1"/>
        <pt x="121" y="697" on="1"/>
        <pt x="862" y="1161" on="1"/>
        <pt x="862" y="870" on="1"/>
      </contour>
    </TTGlyph>
    <TTGlyph name="guillemotright" xMin="172" yMin="8" xMax="1653" yMax="1161">
      <contour>
        <pt x="172" y="1161" on="1"/>
        <pt x="913" y="697" on="1"/>
        <pt x="913" y="473" on="1"/>
        <pt x="172" y="8" on="1"/>
        <pt x="172" y="299" on="1"/>
        <pt x="648" y="588" on="1"/>
        <pt x="172" y="870" on="1"/>
      </contour>
      <contour>
        <pt x="911" y="1161" on="1"/>
        <pt x="1653" y="697" on="1"/>
        <pt x="1653" y="473" on="1"/>
        <pt x="911" y="8" on="1"/>
        <pt x="911" y="299" on="1"/>
        <pt x="1388" y="588" on="1"/>
        <pt x="911" y="870" on="1"/>
      </contour>
    </TTGlyph>
    <TTGlyph name="guilsinglleft" xMin="114" yMin="17" xMax="876" yMax="1177">
      <contour>
        <pt x="114" y="706" on="1"/>
        <pt x="876" y="1177" on="1"/>
        <pt x="876" y="908" on="1"/>
        <pt x="360" y="598" on="1"/>
        <pt x="876" y="286" on="1"/>
        <pt x="876" y="17" on="1"/>
        <pt x="114" y="486" on="1"/>
      </contour>
    </TTGlyph>
    <TTGlyph name="guilsinglright" xMin="150" yMin="17" xMax="913" yMax="1177">
      <contour>
        <pt x="151" y="17" on="1"/>
        <pt x="151" y="286" on="1"/>
        <pt x="661" y="598" on="1"/>
        <pt x="150" y="908" on="1"/>
        <pt x="150" y="1177" on="1"/>
        <pt x="913" y="706" on="1"/>
        <pt x="913" y="486" on="1"/>
      </contour>
    </TTGlyph>
    <TTGlyph name="h" xMin="154" yMin="0" xMax="1214" yMax="1714">
      <contour>
        <pt x="729" y="1016" on="1"/>
        <pt x="560" y="1016" on="0"/>
        <pt x="446" y="902" on="1"/>
        <pt x="446" y="0" on="1"/>
        <pt x="154" y="0" on="1"/>
        <pt x="154" y="1662" on="1"/>
        <pt x="446" y="1714" on="1"/>
        <pt x="446" y="1049" on="1"/>
        <pt x="516" y="1132" on="0"/>
        <pt x="677" y="1215" on="0"/>
        <pt x="910" y="1215" on="0"/>
        <pt x="992" y="1178" on="1"/>
        <pt x="1074" y="1142" on="0"/>
        <pt x="1122" y="1072" on="1"/>
        <pt x="1214" y="937" on="0"/>
        <pt x="1214" y="696" on="1"/>
        <pt x="1214" y="0" on="1"/>
        <pt x="922" y="0" on="1"/>
        <pt x="922" y="711" on="1"/>
        <pt x="922" y="935" on="0"/>
        <pt x="824" y="993" on="1"/>
        <pt x="785" y="1016" on="0"/>
      </contour>
    </TTGlyph>
    <TTGlyph name="hyphen" xMin="159" yMin="558" xMax="920" yMax="783">
      <contour>
        <pt x="159" y="558" on="1"/>
        <pt x="159" y="783" on="1"/>
        <pt x="920" y="783" on="1"/>
        <pt x="920" y="558" on="1"/>
      </contour>
    </TTGlyph>
    <TTGlyph name="i" xMin="161" yMin="0" xMax="490" yMax="1744">
      <contour>
        <pt x="179" y="0" on="1"/>
        <pt x="179" y="1185" on="1"/>
        <pt x="468" y="1185" on="1"/>
        <pt x="468" y="0" on="1"/>
      </contour>
      <contour>
        <pt x="490" y="1507" on="0"/>
        <pt x="396" y="1412" on="0"/>
        <pt x="252" y="1412" on="0"/>
        <pt x="161" y="1505" on="0"/>
        <pt x="161" y="1649" on="0"/>
        <pt x="254" y="1744" on="0"/>
        <pt x="396" y="1744" on="0"/>
        <pt x="490" y="1649" on="0"/>
      </contour>
    </TTGlyph>
    <TTGlyph name="iacute" xMin="155" yMin="0" xMax="630" yMax="2010">
      <contour>
        <pt x="155" y="1387" on="1"/>
        <pt x="344" y="2010" on="1"/>
        <pt x="630" y="1885" on="1"/>
        <pt x="275" y="1331" on="1"/>
      </contour>
      <contour>
        <pt x="203" y="0" on="1"/>
        <pt x="203" y="1185" on="1"/>
        <pt x="493" y="1185" on="1"/>
        <pt x="493" y="0" on="1"/>
      </contour>
    </TTGlyph>
    <TTGlyph name="icircumflex" xMin="-39" yMin="0" xMax="708" yMax="1954">
      <contour>
        <pt x="433" y="1954" on="1"/>
        <pt x="708" y="1372" on="1"/>
        <pt x="488" y="1341" on="1"/>
        <pt x="334" y="1728" on="1"/>
        <pt x="180" y="1341" on="1"/>
        <pt x="-39" y="1372" on="1"/>
        <pt x="237" y="1954" on="1"/>
      </contour>
      <contour>
        <pt x="203" y="0" on="1"/>
        <pt x="203" y="1185" on="1"/>
        <pt x="493" y="1185" on="1"/>
        <pt x="493" y="0" on="1"/>
      </contour>
    </TTGlyph>
    <TTGlyph name="idieresis" xMin="-150" yMin="0" xMax="790" yMax="1657">
      <contour>
        <pt x="180" y="1419" on="0"/>
        <pt x="86" y="1325" on="0"/>
        <pt x="-59" y="1325" on="0"/>
        <pt x="-150" y="1418" on="0"/>
        <pt x="-150" y="1563" on="0"/>
        <pt x="-58" y="1657" on="0"/>
        <pt x="86" y="1657" on="0"/>
        <pt x="180" y="1563" on="0"/>
      </contour>
      <contour>
        <pt x="790" y="1420" on="0"/>
        <pt x="695" y="1325" on="0"/>
        <pt x="551" y="1325" on="0"/>
        <pt x="460" y="1418" on="0"/>
        <pt x="460" y="1563" on="0"/>
        <pt x="552" y="1657" on="0"/>
        <pt x="695" y="1657" on="0"/>
        <pt x="790" y="1562" on="0"/>
      </contour>
      <contour>
        <pt x="203" y="0" on="1"/>
        <pt x="203" y="1185" on="1"/>
        <pt x="493" y="1185" on="1"/>
        <pt x="493" y="0" on="1"/>
      </contour>
    </TTGlyph>
    <TTGlyph name="igrave" xMin="-40" yMin="0" xMax="493" yMax="2038">
      <contour>
        <pt x="-40" y="1912" on="1"/>
        <pt x="250" y="2038" on="1"/>
        <pt x="437" y="1411" on="1"/>
        <pt x="313" y="1355" on="1"/>
      </contour>
      <contour>
        <pt x="203" y="0" on="1"/>
        <pt x="203" y="1185" on="1"/>
        <pt x="493" y="1185" on="1"/>
        <pt x="493" y="0" on="1"/>
      </contour>
    </TTGlyph>
    <TTGlyph name="j" xMin="2" yMin="-364" xMax="513" yMax="1742">
      <contour>
        <pt x="423" y="1410" on="0"/>
        <pt x="281" y="1410" on="0"/>
        <pt x="236" y="1456" on="1"/>
        <pt x="191" y="1504" on="0"/>
        <pt x="191" y="1648" on="0"/>
        <pt x="236" y="1695" on="1"/>
        <pt x="282" y="1742" on="0"/>
        <pt x="422" y="1742" on="0"/>
        <pt x="468" y="1694" on="1"/>
        <pt x="513" y="1648" on="0"/>
        <pt x="513" y="1504" on="0"/>
      </contour>
      <contour>
        <pt x="2" y="-173" on="1"/>
        <pt x="113" y="-105" on="0"/>
        <pt x="206" y="97" on="0"/>
        <pt x="206" y="274" on="1"/>
        <pt x="206" y="1185" on="1"/>
        <pt x="500" y="1185" on="1"/>
        <pt x="500" y="187" on="1"/>
        <pt x="500" y="-29" on="0"/>
        <pt x="273" y="-322" on="0"/>
        <pt x="89" y="-364" on="1"/>
      </contour>
    </TTGlyph>
    <TTGlyph name="k" xMin="154" yMin="0" xMax="1287" yMax="1713">
      <contour>
        <pt x="446" y="0" on="1"/>
        <pt x="154" y="0" on="1"/>
        <pt x="154" y="1668" on="1"/>
        <pt x="446" y="1713" on="1"/>
        <pt x="446" y="706" on="1"/>
        <pt x="942" y="1185" on="1"/>
        <pt x="1267" y="1185" on="1"/>
        <pt x="729" y="660" on="1"/>
        <pt x="1287" y="0" on="1"/>
        <pt x="954" y="0" on="1"/>
        <pt x="550" y="529" on="1"/>
        <pt x="446" y="436" on="1"/>
      </contour>
    </TTGlyph>
    <TTGlyph name="l" xMin="163" yMin="0" xMax="457" yMax="1712">
      <contour>
        <pt x="457" y="0" on="1"/>
        <pt x="163" y="0" on="1"/>
        <pt x="163" y="1668" on="1"/>
        <pt x="457" y="1712" on="1"/>
      </contour>
    </TTGlyph>
    <TTGlyph name="less" xMin="179" yMin="1" xMax="1001" yMax="1264">
      <contour>
        <pt x="216" y="739" on="1"/>
        <pt x="960" y="1264" on="1"/>
        <pt x="1001" y="1015" on="1"/>
        <pt x="444" y="632" on="1"/>
        <pt x="1001" y="250" on="1"/>
        <pt x="960" y="1" on="1"/>
        <pt x="179" y="559" on="1"/>
      </contour>
    </TTGlyph>
    <TTGlyph name="logicalnot" xMin="77" yMin="277" xMax="1234" yMax="990">
      <contour>
        <pt x="77" y="768" on="1"/>
        <pt x="77" y="990" on="1"/>
        <pt x="1234" y="990" on="1"/>
        <pt x="1234" y="277" on="1"/>
        <pt x="1045" y="277" on="1"/>
        <pt x="1045" y="768" on="1"/>
      </contour>
    </TTGlyph>
    <TTGlyph name="m" xMin="154" yMin="0" xMax="1849" yMax="1215">
      <contour>
        <pt x="1556" y="790" on="1"/>
        <pt x="1556" y="1014" on="0"/>
        <pt x="1409" y="1014" on="1"/>
        <pt x="1286" y="1014" on="0"/>
        <pt x="1188" y="919" on="1"/>
        <pt x="1172" y="903" on="0"/>
        <pt x="1145" y="876" on="1"/>
        <pt x="1145" y="0" on="1"/>
        <pt x="853" y="0" on="1"/>
        <pt x="853" y="797" on="1"/>
        <pt x="853" y="904" on="0"/>
        <pt x="786" y="1011" on="0"/>
        <pt x="698" y="1011" on="1"/>
        <pt x="571" y="1011" on="0"/>
        <pt x="446" y="858" on="1"/>
        <pt x="446" y="0" on="1"/>
        <pt x="154" y="0" on="1"/>
        <pt x="154" y="1185" on="1"/>
        <pt x="363" y="1185" on="1"/>
        <pt x="422" y="992" on="1"/>
        <pt x="527" y="1215" on="0"/>
        <pt x="1013" y="1215" on="0"/>
        <pt x="1096" y="1019" on="1"/>
        <pt x="1232" y="1215" on="0"/>
        <pt x="1484" y="1215" on="1"/>
        <pt x="1668" y="1215" on="0"/>
        <pt x="1849" y="977" on="0"/>
        <pt x="1849" y="773" on="1"/>
        <pt x="1849" y="0" on="1"/>
        <pt x="1556" y="0" on="1"/>
      </contour>
    </TTGlyph>
    <TTGlyph name="macron" xMin="192" yMin="448" xMax="783" yMax="572">
      <contour>
        <pt x="192" y="448" on="1"/>
        <pt x="192" y="572" on="1"/>
        <pt x="783" y="572" on="1"/>
        <pt x="783" y="448" on="1"/>
      </contour>
    </TTGlyph>
    <TTGlyph name="multiply" xMin="240" yMin="108" xMax="1159" yMax="1011">
      <contour>
        <pt x="393" y="1011" on="1"/>
        <pt x="699" y="715" on="1"/>
        <pt x="1005" y="1011" on="1"/>
        <pt x="1159" y="847" on="1"/>
        <pt x="861" y="560" on="1"/>
        <pt x="1159" y="272" on="1"/>
        <pt x="1005" y="108" on="1"/>
        <pt x="699" y="404" on="1"/>
        <pt x="393" y="108" on="1"/>
        <pt x="240" y="272" on="1"/>
        <pt x="537" y="560" on="1"/>
        <pt x="240" y="847" on="1"/>
      </contour>
    </TTGlyph>
    <TTGlyph name="n" xMin="154" yMin="0" xMax="1196" yMax="1215">
      <contour>
        <pt x="903" y="884" on="0"/>
        <pt x="821" y="1016" on="0"/>
        <pt x="634" y="1016" on="0"/>
        <pt x="486" y="936" on="0"/>
        <pt x="446" y="881" on="1"/>
        <pt x="446" y="0" on="1"/>
        <pt x="154" y="0" on="1"/>
        <pt x="154" y="1185" on="1"/>
        <pt x="374" y="1185" on="1"/>
        <pt x="425" y="1017" on="1"/>
        <pt x="478" y="1105" on="0"/>
        <pt x="666" y="1215" on="0"/>
        <pt x="788" y="1215" on="1"/>
        <pt x="1004" y="1215" on="0"/>
        <pt x="1196" y="972" on="0"/>
        <pt x="1196" y="737" on="1"/>
        <pt x="1196" y="0" on="1"/>
        <pt x="903" y="0" on="1"/>
        <pt x="903" y="752" on="1"/>
      </contour>
    </TTGlyph>
    <TTGlyph name="nine" xMin="118" yMin="-231" xMax="1172" yMax="1260">
      <contour>
        <pt x="829" y="355" on="1"/>
        <pt x="735" y="297" on="0"/>
        <pt x="607" y="297" on="1"/>
        <pt x="381" y="297" on="0"/>
        <pt x="118" y="544" on="0"/>
        <pt x="118" y="990" on="0"/>
        <pt x="393" y="1260" on="0"/>
        <pt x="886" y="1260" on="0"/>
        <pt x="1172" y="956" on="0"/>
        <pt x="1172" y="684" on="1"/>
        <pt x="1172" y="248" on="0"/>
        <pt x="856" y="-16" on="1"/>
        <pt x="671" y="-170" on="0"/>
        <pt x="406" y="-231" on="1"/>
        <pt x="341" y="-9" on="1"/>
        <pt x="517" y="27" on="0"/>
        <pt x="776" y="212" on="0"/>
      </contour>
      <contour>
        <pt x="634" y="1042" on="1"/>
        <pt x="384" y="1042" on="0"/>
        <pt x="384" y="752" on="1"/>
        <pt x="384" y="640" on="0"/>
        <pt x="500" y="505" on="0"/>
        <pt x="682" y="505" on="0"/>
        <pt x="851" y="539" on="0"/>
        <pt x="891" y="569" on="1"/>
        <pt x="901" y="674" on="0"/>
        <pt x="902" y="703" on="1"/>
        <pt x="897" y="1042" on="0"/>
      </contour>
    </TTGlyph>
    <TTGlyph name="ntilde" xMin="154" yMin="0" xMax="1196" yMax="1751">
      <component glyphName=".ttfautohint" x="154" y="0" flags="0x0"/>
      <component glyphName="n" x="0" y="0" flags="0x1204"/>
      <component glyphName="tilde" x="-72" y="1192" flags="0x1004"/>
    </TTGlyph>
    <TTGlyph name="numbersign" xMin="174" yMin="118" xMax="1155" yMax="1395">
      <contour>
        <pt x="749" y="633" on="1"/>
        <pt x="778" y="874" on="1"/>
        <pt x="584" y="874" on="1"/>
        <pt x="553" y="633" on="1"/>
      </contour>
      <contour>
        <pt x="537" y="490" on="1"/>
        <pt x="484" y="118" on="1"/>
        <pt x="287" y="118" on="1"/>
        <pt x="340" y="490" on="1"/>
        <pt x="174" y="490" on="1"/>
        <pt x="174" y="633" on="1"/>
        <pt x="354" y="633" on="1"/>
        <pt x="384" y="874" on="1"/>
        <pt x="185" y="874" on="1"/>
        <pt x="185" y="1019" on="1"/>
        <pt x="403" y="1019" on="1"/>
        <pt x="452" y="1395" on="1"/>
        <pt x="646" y="1395" on="1"/>
        <pt x="599" y="1019" on="1"/>
        <pt x="801" y="1019" on="1"/>
        <pt x="845" y="1395" on="1"/>
        <pt x="1043" y="1395" on="1"/>
        <pt x="996" y="1019" on="1"/>
        <pt x="1155" y="1019" on="1"/>
        <pt x="1155" y="874" on="1"/>
        <pt x="979" y="874" on="1"/>
        <pt x="948" y="633" on="1"/>
        <pt x="1146" y="633" on="1"/>
        <pt x="1146" y="490" on="1"/>
        <pt x="931" y="490" on="1"/>
        <pt x="881" y="118" on="1"/>
        <pt x="684" y="118" on="1"/>
        <pt x="736" y="490" on="1"/>
      </contour>
    </TTGlyph>
    <TTGlyph name="o" xMin="82" yMin="-31" xMax="1209" yMax="1210">
      <contour>
        <pt x="922" y="1010" on="0"/>
        <pt x="372" y="1010" on="0"/>
        <pt x="372" y="168" on="0"/>
        <pt x="647" y="168" on="1"/>
        <pt x="880" y="168" on="0"/>
        <pt x="915" y="458" on="1"/>
        <pt x="922" y="516" on="0"/>
        <pt x="922" y="588" on="1"/>
      </contour>
      <contour>
        <pt x="646" y="1210" on="1"/>
        <pt x="924" y="1210" on="0"/>
        <pt x="1209" y="879" on="0"/>
        <pt x="1209" y="297" on="0"/>
        <pt x="924" y="-31" on="0"/>
        <pt x="368" y="-31" on="0"/>
        <pt x="82" y="298" on="0"/>
        <pt x="82" y="878" on="0"/>
        <pt x="368" y="1210" on="0"/>
      </contour>
    </TTGlyph>
    <TTGlyph name="oacute" xMin="86" yMin="-31" xMax="1213" yMax="2084">
      <component glyphName=".ttfautohint" x="86" y="0" flags="0x0"/>
      <component glyphName="o" x="4" y="0" flags="0x1204"/>
      <component glyphName="acute" x="31" y="1192" flags="0x1004"/>
    </TTGlyph>
    <TTGlyph name="ocircumflex" xMin="86" yMin="-31" xMax="1213" yMax="2029">
      <component glyphName=".ttfautohint" x="86" y="0" flags="0x0"/>
      <component glyphName="o" x="4" y="0" flags="0x1204"/>
      <component glyphName="circumflex" x="-35" y="1192" flags="0x1004"/>
    </TTGlyph>
    <TTGlyph name="odieresis" xMin="86" yMin="-31" xMax="1213" yMax="1739">
      <component glyphName=".ttfautohint" x="86" y="0" flags="0x0"/>
      <component glyphName="o" x="4" y="0" flags="0x1204"/>
      <component glyphName="dieresis" x="58" y="1159" flags="0x1004"/>
    </TTGlyph>
    <TTGlyph name="oe" xMin="86" yMin="-32" xMax="1962" yMax="1215">
      <contour>
        <pt x="1719" y="690" on="1"/>
        <pt x="1719" y="1013" on="0"/>
        <pt x="1487" y="1016" on="1"/>
        <pt x="1402" y="1015" on="0"/>
        <pt x="1342" y="969" on="1"/>
        <pt x="1234" y="886" on="0"/>
        <pt x="1225" y="690" on="1"/>
      </contour>
      <contour>
        <pt x="376" y="169" on="0"/>
        <pt x="926" y="169" on="0"/>
        <pt x="926" y="1010" on="0"/>
        <pt x="376" y="1010" on="0"/>
      </contour>
      <contour>
        <pt x="1512" y="-24" on="1"/>
        <pt x="1202" y="-24" on="0"/>
        <pt x="1076" y="194" on="1"/>
        <pt x="1030" y="87" on="0"/>
        <pt x="803" y="-32" on="0"/>
        <pt x="650" y="-32" on="1"/>
        <pt x="374" y="-32" on="0"/>
        <pt x="86" y="298" on="0"/>
        <pt x="86" y="877" on="0"/>
        <pt x="373" y="1210" on="0"/>
        <pt x="650" y="1210" on="1"/>
        <pt x="966" y="1210" on="0"/>
        <pt x="1072" y="970" on="1"/>
        <pt x="1114" y="1048" on="0"/>
        <pt x="1164" y="1098" on="1"/>
        <pt x="1278" y="1214" on="0"/>
        <pt x="1715" y="1215" on="0"/>
        <pt x="1962" y="932" on="0"/>
        <pt x="1962" y="685" on="1"/>
        <pt x="1962" y="609" on="0"/>
        <pt x="1959" y="537" on="1"/>
        <pt x="1226" y="537" on="1"/>
        <pt x="1228" y="368" on="0"/>
        <pt x="1379" y="177" on="0"/>
        <pt x="1535" y="177" on="1"/>
        <pt x="1632" y="177" on="0"/>
        <pt x="1771" y="229" on="0"/>
        <pt x="1839" y="281" on="1"/>
        <pt x="1905" y="84" on="1"/>
        <pt x="1718" y="-24" on="0"/>
      </contour>
    </TTGlyph>
    <TTGlyph name="ograve" xMin="86" yMin="-31" xMax="1213" yMax="2093">
      <component glyphName=".ttfautohint" x="86" y="0" flags="0x0"/>
      <component glyphName="o" x="4" y="0" flags="0x1204"/>
      <component glyphName="grave" x="155" y="1192" flags="0x1004"/>
    </TTGlyph>
    <TTGlyph name="one" xMin="87" yMin="0" xMax="636" yMax="1204">
      <contour>
        <pt x="346" y="974" on="1"/>
        <pt x="167" y="893" on="1"/>
        <pt x="87" y="1090" on="1"/>
        <pt x="265" y="1166" on="0"/>
        <pt x="321" y="1188" on="1"/>
        <pt x="424" y="1204" on="1"/>
        <pt x="636" y="1204" on="1"/>
        <pt x="636" y="0" on="1"/>
        <pt x="346" y="0" on="1"/>
      </contour>
    </TTGlyph>
    <TTGlyph name="onehalf" xMin="113" yMin="-115" xMax="1980" yMax="1498">
      <contour>
        <pt x="1773" y="967" on="0"/>
        <pt x="1980" y="819" on="0"/>
        <pt x="1980" y="678" on="1"/>
        <pt x="1980" y="551" on="0"/>
        <pt x="1911" y="466" on="1"/>
        <pt x="1873" y="419" on="0"/>
        <pt x="1849" y="396" on="1"/>
        <pt x="1826" y="372" on="0"/>
        <pt x="1796" y="346" on="1"/>
        <pt x="1760" y="315" on="0"/>
        <pt x="1755" y="312" on="1"/>
        <pt x="1607" y="183" on="1"/>
        <pt x="1954" y="183" on="1"/>
        <pt x="1954" y="-9" on="1"/>
        <pt x="1274" y="-9" on="1"/>
        <pt x="1274" y="153" on="1"/>
        <pt x="1314" y="187" on="0"/>
        <pt x="1407" y="263" on="1"/>
        <pt x="1603" y="423" on="0"/>
        <pt x="1747" y="590" on="0"/>
        <pt x="1747" y="654" on="1"/>
        <pt x="1747" y="781" on="0"/>
        <pt x="1594" y="781" on="1"/>
        <pt x="1476" y="781" on="0"/>
        <pt x="1312" y="709" on="1"/>
        <pt x="1267" y="884" on="1"/>
        <pt x="1473" y="967" on="0"/>
      </contour>
      <contour>
        <pt x="320" y="1261" on="1"/>
        <pt x="175" y="1198" on="1"/>
        <pt x="113" y="1353" on="1"/>
        <pt x="385" y="1460" on="1"/>
        <pt x="547" y="1425" on="1"/>
        <pt x="547" y="481" on="1"/>
        <pt x="320" y="481" on="1"/>
      </contour>
      <contour>
        <pt x="1234" y="1498" on="1"/>
        <pt x="1422" y="1410" on="1"/>
        <pt x="565" y="-115" on="1"/>
        <pt x="381" y="-30" on="1"/>
      </contour>
    </TTGlyph>
    <TTGlyph name="onequarter" xMin="91" yMin="-177" xMax="1829" yMax="1498">
      <contour>
        <pt x="1478" y="244" on="1"/>
        <pt x="1478" y="648" on="1"/>
        <pt x="1210" y="244" on="1"/>
      </contour>
      <contour>
        <pt x="1683" y="965" on="1"/>
        <pt x="1683" y="245" on="1"/>
        <pt x="1829" y="245" on="1"/>
        <pt x="1829" y="73" on="1"/>
        <pt x="1683" y="73" on="1"/>
        <pt x="1683" y="-168" on="1"/>
        <pt x="1474" y="-177" on="1"/>
        <pt x="1474" y="73" on="1"/>
        <pt x="987" y="73" on="1"/>
        <pt x="957" y="217" on="1"/>
        <pt x="1504" y="1011" on="1"/>
      </contour>
      <contour>
        <pt x="1222" y="1498" on="1"/>
        <pt x="1410" y="1410" on="1"/>
        <pt x="553" y="-115" on="1"/>
        <pt x="369" y="-30" on="1"/>
      </contour>
      <contour>
        <pt x="298" y="1261" on="1"/>
        <pt x="152" y="1198" on="1"/>
        <pt x="91" y="1353" on="1"/>
        <pt x="362" y="1460" on="1"/>
        <pt x="525" y="1425" on="1"/>
        <pt x="525" y="481" on="1"/>
        <pt x="298" y="481" on="1"/>
      </contour>
    </TTGlyph>
    <TTGlyph name="ordfeminine" xMin="206" yMin="446" xMax="960" yMax="1638">
      <contour>
        <pt x="263" y="1552" on="1"/>
        <pt x="301" y="1552" on="0"/>
        <pt x="528" y="1638" on="0"/>
        <pt x="599" y="1638" on="1"/>
        <pt x="800" y="1638" on="0"/>
        <pt x="960" y="1448" on="0"/>
        <pt x="960" y="1235" on="1"/>
        <pt x="960" y="686" on="1"/>
        <pt x="844" y="686" on="1"/>
        <pt x="817" y="828" on="1"/>
        <pt x="814" y="828" on="0"/>
        <pt x="802" y="811" on="1"/>
        <pt x="767" y="764" on="0"/>
        <pt x="752" y="748" on="1"/>
        <pt x="661" y="668" on="0"/>
        <pt x="375" y="668" on="0"/>
        <pt x="206" y="818" on="0"/>
        <pt x="206" y="1107" on="0"/>
        <pt x="403" y="1258" on="0"/>
        <pt x="773" y="1258" on="0"/>
        <pt x="799" y="1218" on="1"/>
        <pt x="799" y="1276" on="1"/>
        <pt x="799" y="1403" on="0"/>
        <pt x="720" y="1513" on="0"/>
        <pt x="465" y="1513" on="0"/>
        <pt x="340" y="1454" on="1"/>
        <pt x="316" y="1443" on="1"/>
      </contour>
      <contour>
        <pt x="367" y="971" on="1"/>
        <pt x="367" y="867" on="0"/>
        <pt x="455" y="781" on="0"/>
        <pt x="542" y="781" on="1"/>
        <pt x="695" y="781" on="0"/>
        <pt x="782" y="882" on="1"/>
        <pt x="799" y="902" on="0"/>
        <pt x="799" y="903" on="1"/>
        <pt x="799" y="1141" on="1"/>
        <pt x="689" y="1158" on="0"/>
        <pt x="623" y="1158" on="1"/>
        <pt x="367" y="1158" on="0"/>
      </contour>
      <contour>
        <pt x="270" y="575" on="1"/>
        <pt x="954" y="575" on="1"/>
        <pt x="954" y="446" on="1"/>
        <pt x="270" y="446" on="1"/>
      </contour>
    </TTGlyph>
    <TTGlyph name="ordmasculine" xMin="214" yMin="446" xMax="1063" yMax="1638">
      <contour>
        <pt x="844" y="1638" on="0"/>
        <pt x="1063" y="1371" on="0"/>
        <pt x="1063" y="932" on="0"/>
        <pt x="845" y="670" on="0"/>
        <pt x="431" y="670" on="0"/>
        <pt x="214" y="932" on="0"/>
        <pt x="214" y="1371" on="0"/>
        <pt x="432" y="1638" on="0"/>
      </contour>
      <contour>
        <pt x="371" y="1154" on="1"/>
        <pt x="371" y="898" on="0"/>
        <pt x="513" y="824" on="1"/>
        <pt x="566" y="796" on="0"/>
        <pt x="710" y="797" on="0"/>
        <pt x="816" y="851" on="0"/>
        <pt x="846" y="901" on="1"/>
        <pt x="904" y="997" on="0"/>
        <pt x="905" y="1154" on="1"/>
        <pt x="905" y="1309" on="0"/>
        <pt x="846" y="1407" on="1"/>
        <pt x="783" y="1512" on="0"/>
        <pt x="498" y="1512" on="0"/>
        <pt x="371" y="1317" on="0"/>
      </contour>
      <contour>
        <pt x="300" y="575" on="1"/>
        <pt x="984" y="575" on="1"/>
        <pt x="984" y="446" on="1"/>
        <pt x="300" y="446" on="1"/>
      </contour>
    </TTGlyph>
    <TTGlyph name="oslash" xMin="85" yMin="-188" xMax="1213" yMax="1389">
      <contour>
        <pt x="736" y="1015" on="1"/>
        <pt x="707" y="1026" on="0"/>
        <pt x="567" y="1026" on="0"/>
        <pt x="446" y="962" on="0"/>
        <pt x="412" y="904" on="1"/>
        <pt x="344" y="790" on="0"/>
        <pt x="344" y="633" on="1"/>
        <pt x="344" y="311" on="0"/>
        <pt x="468" y="229" on="1"/>
      </contour>
      <contour>
        <pt x="1213" y="592" on="1"/>
        <pt x="1213" y="308" on="0"/>
        <pt x="922" y="-18" on="0"/>
        <pt x="649" y="-18" on="1"/>
        <pt x="570" y="-18" on="0"/>
        <pt x="503" y="-3" on="1"/>
        <pt x="440" y="-188" on="1"/>
        <pt x="340" y="-154" on="1"/>
        <pt x="402" y="27" on="1"/>
        <pt x="247" y="92" on="0"/>
        <pt x="85" y="379" on="0"/>
        <pt x="85" y="592" on="1"/>
        <pt x="85" y="877" on="0"/>
        <pt x="376" y="1209" on="0"/>
        <pt x="649" y="1209" on="1"/>
        <pt x="719" y="1209" on="0"/>
        <pt x="794" y="1194" on="1"/>
        <pt x="860" y="1389" on="1"/>
        <pt x="957" y="1355" on="1"/>
        <pt x="892" y="1164" on="1"/>
        <pt x="1047" y="1099" on="0"/>
        <pt x="1213" y="808" on="0"/>
      </contour>
      <contour>
        <pt x="562" y="173" on="1"/>
        <pt x="591" y="163" on="0"/>
        <pt x="732" y="163" on="0"/>
        <pt x="794" y="197" on="1"/>
        <pt x="856" y="232" on="0"/>
        <pt x="892" y="292" on="1"/>
        <pt x="960" y="409" on="0"/>
        <pt x="960" y="594" on="1"/>
        <pt x="960" y="862" on="0"/>
        <pt x="826" y="960" on="1"/>
      </contour>
    </TTGlyph>
    <TTGlyph name="otilde" xMin="86" yMin="-31" xMax="1213" yMax="1751">
      <component glyphName=".ttfautohint" x="86" y="0" flags="0x0"/>
      <component glyphName="o" x="4" y="0" flags="0x1204"/>
      <component glyphName="tilde" x="-84" y="1192" flags="0x1004"/>
    </TTGlyph>
    <TTGlyph name="p" xMin="154" yMin="-446" xMax="1247" yMax="1215">
      <contour>
        <pt x="956" y="577" on="1"/>
        <pt x="956" y="782" on="0"/>
        <pt x="920" y="874" on="1"/>
        <pt x="882" y="968" on="0"/>
        <pt x="820" y="998" on="1"/>
        <pt x="784" y="1016" on="0"/>
        <pt x="651" y="1016" on="0"/>
        <pt x="500" y="942" on="0"/>
        <pt x="446" y="886" on="1"/>
        <pt x="446" y="314" on="1"/>
        <pt x="592" y="177" on="0"/>
        <pt x="730" y="177" on="1"/>
        <pt x="956" y="177" on="0"/>
      </contour>
      <contour>
        <pt x="1215" y="887" on="0"/>
        <pt x="1247" y="699" on="0"/>
        <pt x="1247" y="456" on="0"/>
        <pt x="1187" y="238" on="0"/>
        <pt x="1070" y="70" on="0"/>
        <pt x="879" y="-24" on="0"/>
        <pt x="756" y="-24" on="1"/>
        <pt x="569" y="-24" on="0"/>
        <pt x="446" y="140" on="1"/>
        <pt x="446" y="-437" on="1"/>
        <pt x="154" y="-446" on="1"/>
        <pt x="154" y="1185" on="1"/>
        <pt x="375" y="1185" on="1"/>
        <pt x="429" y="1012" on="1"/>
        <pt x="475" y="1105" on="0"/>
        <pt x="647" y="1215" on="0"/>
        <pt x="870" y="1215" on="0"/>
        <pt x="1032" y="1155" on="0"/>
        <pt x="1142" y="1046" on="0"/>
      </contour>
    </TTGlyph>
    <TTGlyph name="paragraph" xMin="100" yMin="0" xMax="1247" yMax="1606">
      <contour>
        <pt x="100" y="1214" on="1"/>
        <pt x="100" y="1550" on="0"/>
        <pt x="502" y="1596" on="1"/>
        <pt x="584" y="1606" on="0"/>
        <pt x="686" y="1606" on="1"/>
        <pt x="1247" y="1606" on="1"/>
        <pt x="1247" y="0" on="1"/>
        <pt x="1015" y="0" on="1"/>
        <pt x="1015" y="1457" on="1"/>
        <pt x="877" y="1457" on="1"/>
        <pt x="877" y="0" on="1"/>
        <pt x="641" y="0" on="1"/>
        <pt x="641" y="801" on="1"/>
        <pt x="100" y="801" on="0"/>
      </contour>
    </TTGlyph>
    <TTGlyph name="parenleft" xMin="203" yMin="-270" xMax="777" yMax="1675">
      <contour>
        <pt x="641" y="-270" on="1"/>
        <pt x="440" y="-124" on="0"/>
        <pt x="203" y="374" on="0"/>
        <pt x="203" y="1022" on="0"/>
        <pt x="435" y="1528" on="0"/>
        <pt x="634" y="1675" on="1"/>
        <pt x="777" y="1504" on="1"/>
        <pt x="637" y="1373" on="0"/>
        <pt x="474" y="954" on="0"/>
        <pt x="474" y="442" on="0"/>
        <pt x="633" y="29" on="0"/>
        <pt x="773" y="-97" on="1"/>
      </contour>
    </TTGlyph>
    <TTGlyph name="parenright" xMin="95" yMin="-270" xMax="670" yMax="1677">
      <contour>
        <pt x="231" y="1677" on="1"/>
        <pt x="433" y="1528" on="0"/>
        <pt x="670" y="1035" on="0"/>
        <pt x="670" y="383" on="0"/>
        <pt x="436" y="-119" on="0"/>
        <pt x="233" y="-270" on="1"/>
        <pt x="95" y="-98" on="1"/>
        <pt x="235" y="29" on="0"/>
        <pt x="398" y="451" on="0"/>
        <pt x="398" y="963" on="0"/>
        <pt x="238" y="1374" on="0"/>
        <pt x="99" y="1504" on="1"/>
      </contour>
    </TTGlyph>
    <TTGlyph name="percent" xMin="29" yMin="-33" xMax="1754" yMax="1530">
      <contour>
        <pt x="1230" y="621" on="0"/>
        <pt x="1216" y="524" on="0"/>
        <pt x="1216" y="406" on="0"/>
        <pt x="1223" y="329" on="0"/>
        <pt x="1246" y="253" on="0"/>
        <pt x="1283" y="204" on="0"/>
        <pt x="1347" y="174" on="0"/>
        <pt x="1433" y="174" on="0"/>
        <pt x="1497" y="204" on="0"/>
        <pt x="1535" y="253" on="0"/>
        <pt x="1546" y="291" on="1"/>
        <pt x="1565" y="357" on="0"/>
        <pt x="1565" y="523" on="0"/>
        <pt x="1550" y="621" on="0"/>
        <pt x="1514" y="705" on="0"/>
        <pt x="1443" y="749" on="0"/>
        <pt x="1337" y="749" on="0"/>
        <pt x="1266" y="706" on="0"/>
      </contour>
      <contour>
        <pt x="1754" y="451" on="1"/>
        <pt x="1754" y="261" on="0"/>
        <pt x="1666" y="140" on="1"/>
        <pt x="1573" y="12" on="0"/>
        <pt x="1393" y="12" on="1"/>
        <pt x="1273" y="12" on="0"/>
        <pt x="1190" y="72" on="1"/>
        <pt x="1032" y="185" on="0"/>
        <pt x="1032" y="451" on="1"/>
        <pt x="1032" y="669" on="0"/>
        <pt x="1208" y="916" on="0"/>
        <pt x="1393" y="916" on="1"/>
        <pt x="1754" y="916" on="0"/>
      </contour>
      <contour>
        <pt x="227" y="1234" on="0"/>
        <pt x="213" y="1137" on="0"/>
        <pt x="213" y="1019" on="0"/>
        <pt x="220" y="943" on="0"/>
        <pt x="243" y="867" on="0"/>
        <pt x="280" y="818" on="0"/>
        <pt x="344" y="788" on="0"/>
        <pt x="430" y="788" on="0"/>
        <pt x="494" y="818" on="0"/>
        <pt x="532" y="867" on="0"/>
        <pt x="543" y="905" on="1"/>
        <pt x="562" y="971" on="0"/>
        <pt x="562" y="1136" on="0"/>
        <pt x="547" y="1234" on="0"/>
        <pt x="511" y="1318" on="0"/>
        <pt x="440" y="1362" on="0"/>
        <pt x="334" y="1362" on="0"/>
        <pt x="263" y="1318" on="0"/>
      </contour>
      <contour>
        <pt x="391" y="625" on="1"/>
        <pt x="126" y="626" on="0"/>
        <pt x="51" y="892" on="1"/>
        <pt x="29" y="970" on="0"/>
        <pt x="29" y="1064" on="1"/>
        <pt x="29" y="1282" on="0"/>
        <pt x="205" y="1530" on="0"/>
        <pt x="578" y="1530" on="0"/>
        <pt x="752" y="1284" on="0"/>
        <pt x="752" y="874" on="0"/>
        <pt x="572" y="625" on="0"/>
      </contour>
      <contour>
        <pt x="1136" y="1527" on="1"/>
        <pt x="1308" y="1437" on="1"/>
        <pt x="609" y="-33" on="1"/>
        <pt x="436" y="49" on="1"/>
      </contour>
    </TTGlyph>
    <TTGlyph name="period" xMin="176" yMin="0" xMax="539" yMax="373">
      <contour>
        <pt x="176" y="373" on="1"/>
        <pt x="539" y="373" on="1"/>
        <pt x="539" y="0" on="1"/>
        <pt x="176" y="0" on="1"/>
      </contour>
    </TTGlyph>
    <TTGlyph name="periodcentered" xMin="115" yMin="519" xMax="466" yMax="872">
      <contour>
        <pt x="466" y="620" on="0"/>
        <pt x="365" y="519" on="0"/>
        <pt x="214" y="519" on="0"/>
        <pt x="115" y="620" on="0"/>
        <pt x="115" y="771" on="0"/>
        <pt x="214" y="872" on="0"/>
        <pt x="365" y="872" on="0"/>
        <pt x="466" y="772" on="0"/>
      </contour>
    </TTGlyph>
    <TTGlyph name="plus" xMin="137" yMin="130" xMax="966" yMax="1059">
      <contour>
        <pt x="668" y="485" on="1"/>
        <pt x="668" y="130" on="1"/>
        <pt x="434" y="130" on="1"/>
        <pt x="434" y="485" on="1"/>
        <pt x="137" y="485" on="1"/>
        <pt x="137" y="705" on="1"/>
        <pt x="434" y="705" on="1"/>
        <pt x="434" y="1059" on="1"/>
        <pt x="668" y="1059" on="1"/>
        <pt x="668" y="705" on="1"/>
        <pt x="966" y="705" on="1"/>
        <pt x="966" y="485" on="1"/>
      </contour>
    </TTGlyph>
    <TTGlyph name="plusminus" xMin="193" yMin="-22" xMax="1022" yMax="1280">
      <contour>
        <pt x="222" y="-22" on="1"/>
        <pt x="222" y="175" on="1"/>
        <pt x="993" y="175" on="1"/>
        <pt x="993" y="-22" on="1"/>
      </contour>
      <contour>
        <pt x="724" y="707" on="1"/>
        <pt x="724" y="351" on="1"/>
        <pt x="490" y="351" on="1"/>
        <pt x="490" y="707" on="1"/>
        <pt x="193" y="707" on="1"/>
        <pt x="193" y="926" on="1"/>
        <pt x="490" y="926" on="1"/>
        <pt x="490" y="1280" on="1"/>
        <pt x="724" y="1280" on="1"/>
        <pt x="724" y="926" on="1"/>
        <pt x="1022" y="926" on="1"/>
        <pt x="1022" y="707" on="1"/>
      </contour>
    </TTGlyph>
    <TTGlyph name="q" xMin="85" yMin="-452" xMax="1176" yMax="1215">
      <contour>
        <pt x="379" y="714" on="1"/>
        <pt x="374" y="658" on="0"/>
        <pt x="374" y="520" on="0"/>
        <pt x="383" y="413" on="0"/>
        <pt x="398" y="356" on="1"/>
        <pt x="414" y="300" on="0"/>
        <pt x="438" y="262" on="1"/>
        <pt x="494" y="176" on="0"/>
        <pt x="605" y="177" on="1"/>
        <pt x="749" y="177" on="0"/>
        <pt x="884" y="308" on="1"/>
        <pt x="884" y="870" on="1"/>
        <pt x="769" y="1016" on="0"/>
        <pt x="614" y="1016" on="1"/>
        <pt x="406" y="1016" on="0"/>
      </contour>
      <contour>
        <pt x="85" y="586" on="1"/>
        <pt x="85" y="1215" on="0"/>
        <pt x="572" y="1215" on="1"/>
        <pt x="783" y="1215" on="0"/>
        <pt x="892" y="1009" on="1"/>
        <pt x="935" y="1185" on="1"/>
        <pt x="1176" y="1185" on="1"/>
        <pt x="1176" y="-442" on="1"/>
        <pt x="884" y="-452" on="1"/>
        <pt x="884" y="141" on="1"/>
        <pt x="746" y="-24" on="0"/>
        <pt x="566" y="-24" on="1"/>
        <pt x="278" y="-24" on="0"/>
        <pt x="156" y="225" on="1"/>
        <pt x="84" y="372" on="0"/>
      </contour>
    </TTGlyph>
    <TTGlyph name="question" xMin="65" yMin="-43" xMax="1043" yMax="1593">
      <contour>
        <pt x="369" y="-43" on="1"/>
        <pt x="316" y="-20" on="0"/>
        <pt x="252" y="92" on="0"/>
        <pt x="252" y="165" on="1"/>
        <pt x="274" y="218" on="0"/>
        <pt x="379" y="285" on="0"/>
        <pt x="449" y="285" on="1"/>
        <pt x="502" y="262" on="0"/>
        <pt x="566" y="150" on="0"/>
        <pt x="566" y="77" on="1"/>
        <pt x="545" y="24" on="0"/>
        <pt x="439" y="-43" on="0"/>
      </contour>
      <contour>
        <pt x="264" y="823" on="1"/>
        <pt x="284" y="830" on="0"/>
        <pt x="389" y="862" on="0"/>
        <pt x="448" y="882" on="0"/>
        <pt x="549" y="922" on="0"/>
        <pt x="611" y="955" on="0"/>
        <pt x="686" y="1009" on="0"/>
        <pt x="707" y="1036" on="1"/>
        <pt x="758" y="1102" on="0"/>
        <pt x="758" y="1222" on="0"/>
        <pt x="730" y="1288" on="0"/>
        <pt x="683" y="1327" on="0"/>
        <pt x="647" y="1339" on="1"/>
        <pt x="587" y="1359" on="0"/>
        <pt x="429" y="1359" on="0"/>
        <pt x="140" y="1302" on="0"/>
        <pt x="140" y="1280" on="1"/>
        <pt x="65" y="1495" on="1"/>
        <pt x="259" y="1593" on="0"/>
        <pt x="505" y="1593" on="1"/>
        <pt x="915" y="1592" on="0"/>
        <pt x="1015" y="1352" on="1"/>
        <pt x="1043" y="1284" on="0"/>
        <pt x="1043" y="1199" on="1"/>
        <pt x="1043" y="840" on="0"/>
        <pt x="534" y="686" on="1"/>
        <pt x="534" y="378" on="1"/>
        <pt x="264" y="378" on="1"/>
      </contour>
    </TTGlyph>
    <TTGlyph name="questiondown" xMin="122" yMin="-65" xMax="1100" yMax="1571">
      <contour>
        <pt x="796" y="1571" on="1"/>
        <pt x="849" y="1548" on="0"/>
        <pt x="913" y="1436" on="0"/>
        <pt x="913" y="1363" on="1"/>
        <pt x="891" y="1309" on="0"/>
        <pt x="787" y="1243" on="0"/>
        <pt x="716" y="1243" on="1"/>
        <pt x="664" y="1267" on="0"/>
        <pt x="599" y="1378" on="0"/>
        <pt x="599" y="1451" on="1"/>
        <pt x="621" y="1504" on="0"/>
        <pt x="726" y="1571" on="0"/>
      </contour>
      <contour>
        <pt x="901" y="705" on="1"/>
        <pt x="879" y="697" on="0"/>
        <pt x="781" y="666" on="0"/>
        <pt x="716" y="645" on="0"/>
        <pt x="619" y="606" on="0"/>
        <pt x="554" y="572" on="0"/>
        <pt x="517" y="546" on="1"/>
        <pt x="480" y="520" on="0"/>
        <pt x="458" y="492" on="1"/>
        <pt x="406" y="426" on="0"/>
        <pt x="407" y="295" on="0"/>
        <pt x="447" y="220" on="0"/>
        <pt x="526" y="182" on="0"/>
        <pt x="616" y="168" on="0"/>
        <pt x="742" y="168" on="0"/>
        <pt x="1026" y="223" on="0"/>
        <pt x="1026" y="247" on="1"/>
        <pt x="1100" y="33" on="1"/>
        <pt x="906" y="-65" on="0"/>
        <pt x="660" y="-65" on="1"/>
        <pt x="429" y="-65" on="0"/>
        <pt x="282" y="22" on="1"/>
        <pt x="122" y="117" on="0"/>
        <pt x="122" y="329" on="1"/>
        <pt x="122" y="687" on="0"/>
        <pt x="631" y="841" on="1"/>
        <pt x="631" y="1150" on="1"/>
        <pt x="901" y="1150" on="1"/>
      </contour>
    </TTGlyph>
    <TTGlyph name="quotedbl" xMin="62" yMin="920" xMax="874" yMax="1607">
      <contour>
        <pt x="874" y="1607" on="1"/>
        <pt x="855" y="1441" on="0"/>
        <pt x="786" y="996" on="0"/>
        <pt x="775" y="920" on="1"/>
        <pt x="597" y="920" on="1"/>
        <pt x="531" y="1483" on="1"/>
        <pt x="520" y="1607" on="1"/>
      </contour>
      <contour>
        <pt x="416" y="1607" on="1"/>
        <pt x="397" y="1441" on="0"/>
        <pt x="328" y="996" on="0"/>
        <pt x="317" y="920" on="1"/>
        <pt x="139" y="920" on="1"/>
        <pt x="71" y="1498" on="1"/>
        <pt x="62" y="1607" on="1"/>
      </contour>
    </TTGlyph>
    <TTGlyph name="quotedblbase" xMin="195" yMin="-291" xMax="1037" yMax="373">
      <contour>
        <pt x="195" y="373" on="1"/>
        <pt x="557" y="373" on="1"/>
        <pt x="557" y="51" on="1"/>
        <pt x="557" y="-102" on="0"/>
        <pt x="462" y="-183" on="1"/>
        <pt x="382" y="-251" on="0"/>
        <pt x="246" y="-291" on="1"/>
        <pt x="196" y="-183" on="1"/>
        <pt x="320" y="-140" on="0"/>
        <pt x="346" y="-72" on="1"/>
        <pt x="358" y="-42" on="0"/>
        <pt x="357" y="0" on="1"/>
        <pt x="195" y="0" on="1"/>
      </contour>
      <contour>
        <pt x="674" y="373" on="1"/>
        <pt x="1037" y="373" on="1"/>
        <pt x="1037" y="51" on="1"/>
        <pt x="1037" y="-168" on="0"/>
        <pt x="821" y="-258" on="1"/>
        <pt x="779" y="-276" on="0"/>
        <pt x="725" y="-291" on="1"/>
        <pt x="675" y="-183" on="1"/>
        <pt x="798" y="-140" on="0"/>
        <pt x="824" y="-72" on="1"/>
        <pt x="836" y="-42" on="0"/>
        <pt x="836" y="0" on="1"/>
        <pt x="674" y="0" on="1"/>
      </contour>
    </TTGlyph>
    <TTGlyph name="quotedblleft" xMin="118" yMin="954" xMax="960" yMax="1619">
      <contour>
        <pt x="960" y="954" on="1"/>
        <pt x="597" y="954" on="1"/>
        <pt x="597" y="1278" on="1"/>
        <pt x="596" y="1428" on="0"/>
        <pt x="692" y="1510" on="1"/>
        <pt x="773" y="1579" on="0"/>
        <pt x="908" y="1619" on="1"/>
        <pt x="959" y="1511" on="1"/>
        <pt x="832" y="1464" on="0"/>
        <pt x="808" y="1400" on="1"/>
        <pt x="796" y="1370" on="0"/>
        <pt x="797" y="1328" on="1"/>
        <pt x="960" y="1328" on="1"/>
      </contour>
      <contour>
        <pt x="481" y="954" on="1"/>
        <pt x="118" y="954" on="1"/>
        <pt x="118" y="1278" on="1"/>
        <pt x="118" y="1428" on="0"/>
        <pt x="214" y="1510" on="1"/>
        <pt x="295" y="1579" on="0"/>
        <pt x="429" y="1619" on="1"/>
        <pt x="479" y="1511" on="1"/>
        <pt x="354" y="1462" on="0"/>
        <pt x="330" y="1400" on="1"/>
        <pt x="318" y="1370" on="0"/>
        <pt x="318" y="1328" on="1"/>
        <pt x="481" y="1328" on="1"/>
      </contour>
    </TTGlyph>
    <TTGlyph name="quotedblright" xMin="81" yMin="942" xMax="923" yMax="1607">
      <contour>
        <pt x="81" y="1607" on="1"/>
        <pt x="444" y="1607" on="1"/>
        <pt x="444" y="1283" on="1"/>
        <pt x="444" y="1132" on="0"/>
        <pt x="348" y="1050" on="1"/>
        <pt x="264" y="979" on="0"/>
        <pt x="133" y="942" on="1"/>
        <pt x="82" y="1050" on="1"/>
        <pt x="164" y="1079" on="0"/>
        <pt x="244" y="1154" on="0"/>
        <pt x="244" y="1233" on="1"/>
        <pt x="81" y="1233" on="1"/>
      </contour>
      <contour>
        <pt x="560" y="1607" on="1"/>
        <pt x="923" y="1607" on="1"/>
        <pt x="923" y="1283" on="1"/>
        <pt x="923" y="1132" on="0"/>
        <pt x="828" y="1050" on="1"/>
        <pt x="745" y="979" on="0"/>
        <pt x="612" y="942" on="1"/>
        <pt x="562" y="1050" on="1"/>
        <pt x="643" y="1079" on="0"/>
        <pt x="723" y="1154" on="0"/>
        <pt x="723" y="1233" on="1"/>
        <pt x="560" y="1233" on="1"/>
      </contour>
    </TTGlyph>
    <TTGlyph name="quoteleft" xMin="119" yMin="966" xMax="481" yMax="1631">
      <contour>
        <pt x="481" y="966" on="1"/>
        <pt x="119" y="966" on="1"/>
        <pt x="119" y="1290" on="1"/>
        <pt x="119" y="1440" on="0"/>
        <pt x="214" y="1522" on="1"/>
        <pt x="294" y="1591" on="0"/>
        <pt x="429" y="1631" on="1"/>
        <pt x="480" y="1523" on="1"/>
        <pt x="354" y="1476" on="0"/>
        <pt x="330" y="1412" on="1"/>
        <pt x="318" y="1382" on="0"/>
        <pt x="319" y="1340" on="1"/>
        <pt x="481" y="1340" on="1"/>
      </contour>
    </TTGlyph>
    <TTGlyph name="quoteright" xMin="81" yMin="942" xMax="444" yMax="1607">
      <contour>
        <pt x="81" y="1607" on="1"/>
        <pt x="444" y="1607" on="1"/>
        <pt x="444" y="1283" on="1"/>
        <pt x="444" y="1132" on="0"/>
        <pt x="348" y="1050" on="1"/>
        <pt x="264" y="979" on="0"/>
        <pt x="133" y="942" on="1"/>
        <pt x="82" y="1050" on="1"/>
        <pt x="164" y="1079" on="0"/>
        <pt x="244" y="1154" on="0"/>
        <pt x="244" y="1233" on="1"/>
        <pt x="81" y="1233" on="1"/>
      </contour>
    </TTGlyph>
    <TTGlyph name="quotesinglbase" xMin="184" yMin="-291" xMax="547" yMax="373">
      <contour>
        <pt x="184" y="373" on="1"/>
        <pt x="547" y="373" on="1"/>
        <pt x="547" y="51" on="1"/>
        <pt x="547" y="-102" on="0"/>
        <pt x="452" y="-183" on="1"/>
        <pt x="372" y="-251" on="0"/>
        <pt x="236" y="-291" on="1"/>
        <pt x="185" y="-183" on="1"/>
        <pt x="267" y="-154" on="0"/>
        <pt x="347" y="-79" on="0"/>
        <pt x="347" y="0" on="1"/>
        <pt x="184" y="0" on="1"/>
      </contour>
    </TTGlyph>
    <TTGlyph name="quotesingle" xMin="136" yMin="920" xMax="489" yMax="1607">
      <contour>
        <pt x="489" y="1607" on="1"/>
        <pt x="474" y="1469" on="0"/>
        <pt x="398" y="968" on="0"/>
        <pt x="391" y="920" on="1"/>
        <pt x="212" y="920" on="1"/>
        <pt x="144" y="1498" on="1"/>
        <pt x="136" y="1607" on="1"/>
      </contour>
    </TTGlyph>
    <TTGlyph name="r" xMin="154" yMin="0" xMax="819" yMax="1190">
      <contour>
        <pt x="708" y="956" on="1"/>
        <pt x="583" y="956" on="0"/>
        <pt x="446" y="840" on="1"/>
        <pt x="446" y="0" on="1"/>
        <pt x="154" y="0" on="1"/>
        <pt x="154" y="1185" on="1"/>
        <pt x="397" y="1185" on="1"/>
        <pt x="433" y="994" on="1"/>
        <pt x="489" y="1087" on="0"/>
        <pt x="635" y="1190" on="0"/>
        <pt x="748" y="1190" on="1"/>
        <pt x="771" y="1190" on="0"/>
        <pt x="819" y="1188" on="1"/>
        <pt x="819" y="944" on="1"/>
        <pt x="791" y="956" on="0"/>
      </contour>
    </TTGlyph>
    <TTGlyph name="registered" xMin="50" yMin="573" xMax="1355" yMax="1822">
      <contour>
        <pt x="1183" y="730" on="0"/>
        <pt x="886" y="573" on="0"/>
        <pt x="517" y="573" on="0"/>
        <pt x="220" y="728" on="0"/>
        <pt x="50" y="1014" on="0"/>
        <pt x="50" y="1377" on="0"/>
        <pt x="221" y="1664" on="0"/>
        <pt x="518" y="1822" on="0"/>
        <pt x="839" y="1822" on="0"/>
        <pt x="1080" y="1729" on="0"/>
        <pt x="1254" y="1566" on="0"/>
        <pt x="1355" y="1333" on="0"/>
        <pt x="1355" y="1016" on="0"/>
      </contour>
      <contour>
        <pt x="195" y="1194" on="1"/>
        <pt x="195" y="971" on="0"/>
        <pt x="476" y="696" on="0"/>
        <pt x="924" y="696" on="0"/>
        <pt x="1209" y="974" on="0"/>
        <pt x="1209" y="1417" on="0"/>
        <pt x="925" y="1696" on="0"/>
        <pt x="477" y="1696" on="0"/>
        <pt x="195" y="1417" on="0"/>
      </contour>
      <contour>
        <pt x="655" y="1426" on="1"/>
        <pt x="627" y="1426" on="1"/>
        <pt x="627" y="1247" on="1"/>
        <pt x="691" y="1247" on="1"/>
        <pt x="716" y="1247" on="0"/>
        <pt x="737" y="1263" on="0"/>
        <pt x="737" y="1285" on="1"/>
        <pt x="779" y="1290" on="0"/>
        <pt x="821" y="1320" on="0"/>
        <pt x="821" y="1371" on="0"/>
        <pt x="807" y="1397" on="0"/>
        <pt x="778" y="1412" on="0"/>
        <pt x="749" y="1421" on="0"/>
        <pt x="726" y="1423" on="1"/>
        <pt x="692" y="1426" on="0"/>
      </contour>
      <contour>
        <pt x="924" y="1440" on="1"/>
        <pt x="950" y="1402" on="0"/>
        <pt x="949" y="1262" on="0"/>
        <pt x="865" y="1184" on="0"/>
        <pt x="780" y="1168" on="1"/>
        <pt x="958" y="912" on="1"/>
        <pt x="841" y="853" on="1"/>
        <pt x="662" y="1145" on="1"/>
        <pt x="624" y="1145" on="1"/>
        <pt x="624" y="873" on="1"/>
        <pt x="500" y="873" on="1"/>
        <pt x="500" y="1527" on="1"/>
        <pt x="639" y="1527" on="1"/>
        <pt x="864" y="1528" on="0"/>
      </contour>
    </TTGlyph>
    <TTGlyph name="ring" xMin="306" yMin="213" xMax="951" yMax="825">
      <contour>
        <pt x="797" y="592" on="0"/>
        <pt x="701" y="688" on="0"/>
        <pt x="554" y="688" on="0"/>
        <pt x="459" y="592" on="0"/>
        <pt x="459" y="446" on="0"/>
        <pt x="554" y="351" on="0"/>
        <pt x="702" y="351" on="0"/>
        <pt x="797" y="446" on="0"/>
      </contour>
      <contour>
        <pt x="487" y="213" on="0"/>
        <pt x="306" y="388" on="0"/>
        <pt x="306" y="654" on="0"/>
        <pt x="493" y="825" on="0"/>
        <pt x="768" y="825" on="0"/>
        <pt x="951" y="652" on="0"/>
        <pt x="951" y="382" on="0"/>
        <pt x="761" y="213" on="0"/>
      </contour>
    </TTGlyph>
    <TTGlyph name="s" xMin="91" yMin="-24" xMax="992" yMax="1215">
      <contour>
        <pt x="522" y="177" on="1"/>
        <pt x="721" y="177" on="0"/>
        <pt x="721" y="332" on="1"/>
        <pt x="722" y="388" on="0"/>
        <pt x="674" y="422" on="1"/>
        <pt x="632" y="452" on="0"/>
        <pt x="578" y="470" on="1"/>
        <pt x="345" y="560" on="1"/>
        <pt x="156" y="630" on="0"/>
        <pt x="110" y="762" on="1"/>
        <pt x="91" y="816" on="0"/>
        <pt x="91" y="970" on="0"/>
        <pt x="162" y="1099" on="0"/>
        <pt x="224" y="1138" on="1"/>
        <pt x="347" y="1215" on="0"/>
        <pt x="534" y="1215" on="1"/>
        <pt x="653" y="1215" on="0"/>
        <pt x="893" y="1158" on="0"/>
        <pt x="957" y="1109" on="1"/>
        <pt x="891" y="921" on="1"/>
        <pt x="837" y="961" on="0"/>
        <pt x="636" y="1016" on="0"/>
        <pt x="545" y="1016" on="1"/>
        <pt x="350" y="1016" on="0"/>
        <pt x="350" y="886" on="1"/>
        <pt x="350" y="836" on="0"/>
        <pt x="386" y="810" on="1"/>
        <pt x="429" y="779" on="0"/>
        <pt x="471" y="769" on="1"/>
        <pt x="663" y="698" on="1"/>
        <pt x="852" y="630" on="0"/>
        <pt x="923" y="544" on="1"/>
        <pt x="992" y="462" on="0"/>
        <pt x="992" y="252" on="0"/>
        <pt x="957" y="180" on="1"/>
        <pt x="922" y="108" on="0"/>
        <pt x="860" y="64" on="1"/>
        <pt x="737" y="-24" on="0"/>
        <pt x="536" y="-24" on="1"/>
        <pt x="409" y="-24" on="0"/>
        <pt x="167" y="38" on="0"/>
        <pt x="97" y="90" on="1"/>
        <pt x="163" y="281" on="1"/>
        <pt x="217" y="239" on="0"/>
        <pt x="431" y="177" on="0"/>
      </contour>
    </TTGlyph>
    <TTGlyph name="scaron" xMin="103" yMin="-24" xMax="1004" yMax="2007">
      <contour>
        <pt x="450" y="1393" on="1"/>
        <pt x="174" y="1976" on="1"/>
        <pt x="394" y="2007" on="1"/>
        <pt x="549" y="1619" on="1"/>
        <pt x="702" y="2007" on="1"/>
        <pt x="922" y="1976" on="1"/>
        <pt x="645" y="1393" on="1"/>
      </contour>
      <contour>
        <pt x="534" y="177" on="1"/>
        <pt x="733" y="177" on="0"/>
        <pt x="733" y="332" on="1"/>
        <pt x="734" y="388" on="0"/>
        <pt x="686" y="422" on="1"/>
        <pt x="644" y="452" on="0"/>
        <pt x="590" y="470" on="1"/>
        <pt x="357" y="560" on="1"/>
        <pt x="168" y="630" on="0"/>
        <pt x="122" y="762" on="1"/>
        <pt x="103" y="816" on="0"/>
        <pt x="103" y="970" on="0"/>
        <pt x="174" y="1099" on="0"/>
        <pt x="236" y="1138" on="1"/>
        <pt x="359" y="1215" on="0"/>
        <pt x="546" y="1215" on="1"/>
        <pt x="665" y="1215" on="0"/>
        <pt x="905" y="1158" on="0"/>
        <pt x="969" y="1109" on="1"/>
        <pt x="903" y="921" on="1"/>
        <pt x="849" y="961" on="0"/>
        <pt x="648" y="1016" on="0"/>
        <pt x="557" y="1016" on="1"/>
        <pt x="362" y="1016" on="0"/>
        <pt x="362" y="886" on="1"/>
        <pt x="362" y="836" on="0"/>
        <pt x="398" y="810" on="1"/>
        <pt x="441" y="779" on="0"/>
        <pt x="483" y="769" on="1"/>
        <pt x="675" y="698" on="1"/>
        <pt x="864" y="630" on="0"/>
        <pt x="935" y="544" on="1"/>
        <pt x="1004" y="462" on="0"/>
        <pt x="1004" y="252" on="0"/>
        <pt x="969" y="180" on="1"/>
        <pt x="934" y="108" on="0"/>
        <pt x="872" y="64" on="1"/>
        <pt x="749" y="-24" on="0"/>
        <pt x="548" y="-24" on="1"/>
        <pt x="421" y="-24" on="0"/>
        <pt x="179" y="38" on="0"/>
        <pt x="109" y="90" on="1"/>
        <pt x="175" y="281" on="1"/>
        <pt x="229" y="239" on="0"/>
        <pt x="443" y="177" on="0"/>
      </contour>
    </TTGlyph>
    <TTGlyph name="section" xMin="156" yMin="-108" xMax="1023" yMax="1603">
      <contour>
        <pt x="376" y="693" on="0"/>
        <pt x="485" y="640" on="0"/>
        <pt x="629" y="640" on="0"/>
        <pt x="663" y="644" on="1"/>
        <pt x="697" y="650" on="0"/>
        <pt x="729" y="662" on="1"/>
        <pt x="796" y="688" on="0"/>
        <pt x="796" y="762" on="1"/>
        <pt x="796" y="813" on="0"/>
        <pt x="737" y="871" on="0"/>
        <pt x="650" y="889" on="0"/>
        <pt x="538" y="889" on="0"/>
        <pt x="504" y="884" on="1"/>
        <pt x="470" y="878" on="0"/>
        <pt x="439" y="866" on="1"/>
        <pt x="376" y="841" on="0"/>
      </contour>
      <contour>
        <pt x="376" y="1019" on="1"/>
        <pt x="157" y="1096" on="0"/>
        <pt x="157" y="1284" on="1"/>
        <pt x="158" y="1458" on="0"/>
        <pt x="286" y="1533" on="1"/>
        <pt x="405" y="1603" on="0"/>
        <pt x="574" y="1603" on="1"/>
        <pt x="686" y="1603" on="0"/>
        <pt x="918" y="1520" on="0"/>
        <pt x="978" y="1460" on="1"/>
        <pt x="898" y="1281" on="1"/>
        <pt x="837" y="1329" on="0"/>
        <pt x="668" y="1397" on="0"/>
        <pt x="545" y="1397" on="0"/>
        <pt x="492" y="1393" on="0"/>
        <pt x="464" y="1386" on="1"/>
        <pt x="436" y="1378" on="0"/>
        <pt x="418" y="1366" on="1"/>
        <pt x="378" y="1338" on="0"/>
        <pt x="378" y="1282" on="1"/>
        <pt x="378" y="1240" on="0"/>
        <pt x="406" y="1221" on="1"/>
        <pt x="443" y="1197" on="0"/>
        <pt x="498" y="1176" on="0"/>
        <pt x="716" y="1097" on="0"/>
        <pt x="764" y="1079" on="0"/>
        <pt x="839" y="1047" on="0"/>
        <pt x="884" y="1018" on="0"/>
        <pt x="941" y="977" on="0"/>
        <pt x="975" y="931" on="0"/>
        <pt x="991" y="902" on="1"/>
        <pt x="1021" y="848" on="0"/>
        <pt x="1021" y="661" on="0"/>
        <pt x="903" y="542" on="0"/>
        <pt x="808" y="521" on="1"/>
        <pt x="911" y="481" on="0"/>
        <pt x="1023" y="337" on="0"/>
        <pt x="1023" y="216" on="1"/>
        <pt x="1023" y="18" on="0"/>
        <pt x="837" y="-62" on="1"/>
        <pt x="731" y="-108" on="0"/>
        <pt x="462" y="-107" on="0"/>
        <pt x="230" y="-25" on="0"/>
        <pt x="159" y="34" on="1"/>
        <pt x="243" y="223" on="1"/>
        <pt x="289" y="177" on="0"/>
        <pt x="474" y="99" on="0"/>
        <pt x="664" y="99" on="0"/>
        <pt x="789" y="162" on="0"/>
        <pt x="789" y="243" on="1"/>
        <pt x="789" y="314" on="0"/>
        <pt x="742" y="346" on="1"/>
        <pt x="703" y="373" on="0"/>
        <pt x="630" y="396" on="0"/>
        <pt x="625" y="398" on="1"/>
        <pt x="463" y="454" on="1"/>
        <pt x="274" y="516" on="0"/>
        <pt x="216" y="587" on="1"/>
        <pt x="156" y="660" on="0"/>
        <pt x="157" y="877" on="0"/>
        <pt x="277" y="1000" on="0"/>
      </contour>
    </TTGlyph>
    <TTGlyph name="semicolon" xMin="186" yMin="-291" xMax="550" yMax="1067">
      <contour>
        <pt x="186" y="1067" on="1"/>
        <pt x="549" y="1067" on="1"/>
        <pt x="549" y="688" on="1"/>
        <pt x="186" y="688" on="1"/>
      </contour>
      <contour>
        <pt x="188" y="373" on="1"/>
        <pt x="550" y="373" on="1"/>
        <pt x="550" y="51" on="1"/>
        <pt x="550" y="-165" on="0"/>
        <pt x="336" y="-257" on="1"/>
        <pt x="294" y="-275" on="0"/>
        <pt x="240" y="-291" on="1"/>
        <pt x="189" y="-183" on="1"/>
        <pt x="312" y="-140" on="0"/>
        <pt x="338" y="-72" on="1"/>
        <pt x="350" y="-42" on="0"/>
        <pt x="350" y="0" on="1"/>
        <pt x="188" y="0" on="1"/>
      </contour>
    </TTGlyph>
    <TTGlyph name="seven" xMin="138" yMin="-216" xMax="1089" yMax="1214">
      <contour>
        <pt x="1089" y="1054" on="1"/>
        <pt x="497" y="-216" on="1"/>
        <pt x="246" y="-104" on="1"/>
        <pt x="758" y="992" on="1"/>
        <pt x="138" y="992" on="1"/>
        <pt x="138" y="1214" on="1"/>
        <pt x="1015" y="1214" on="1"/>
      </contour>
    </TTGlyph>
    <TTGlyph name="six" xMin="113" yMin="-124" xMax="1166" yMax="1367">
      <contour>
        <pt x="677" y="857" on="1"/>
        <pt x="895" y="857" on="0"/>
        <pt x="1166" y="590" on="0"/>
        <pt x="1166" y="143" on="0"/>
        <pt x="890" y="-124" on="0"/>
        <pt x="399" y="-124" on="0"/>
        <pt x="113" y="188" on="0"/>
        <pt x="113" y="452" on="1"/>
        <pt x="114" y="898" on="0"/>
        <pt x="426" y="1151" on="1"/>
        <pt x="609" y="1299" on="0"/>
        <pt x="877" y="1367" on="1"/>
        <pt x="944" y="1146" on="1"/>
        <pt x="707" y="1096" on="0"/>
        <pt x="570" y="966" on="1"/>
        <pt x="496" y="896" on="0"/>
        <pt x="457" y="804" on="1"/>
        <pt x="572" y="857" on="0"/>
      </contour>
      <contour>
        <pt x="781" y="93" on="0"/>
        <pt x="901" y="262" on="0"/>
        <pt x="901" y="390" on="1"/>
        <pt x="901" y="646" on="0"/>
        <pt x="673" y="647" on="1"/>
        <pt x="501" y="647" on="0"/>
        <pt x="388" y="534" on="1"/>
        <pt x="386" y="505" on="0"/>
        <pt x="386" y="443" on="1"/>
        <pt x="391" y="93" on="0"/>
        <pt x="655" y="93" on="1"/>
      </contour>
    </TTGlyph>
    <TTGlyph name="slash" xMin="130" yMin="-162" xMax="974" yMax="1723">
      <contour>
        <pt x="733" y="1723" on="1"/>
        <pt x="974" y="1643" on="1"/>
        <pt x="368" y="-162" on="1"/>
        <pt x="130" y="-84" on="1"/>
      </contour>
    </TTGlyph>
    <TTGlyph name="sterling" xMin="188" yMin="0" xMax="1088" yMax="1346">
      <contour>
        <pt x="320" y="724" on="1"/>
        <pt x="205" y="830" on="0"/>
        <pt x="205" y="988" on="1"/>
        <pt x="204" y="1257" on="0"/>
        <pt x="492" y="1326" on="1"/>
        <pt x="576" y="1346" on="0"/>
        <pt x="678" y="1346" on="1"/>
        <pt x="903" y="1346" on="0"/>
        <pt x="1088" y="1227" on="1"/>
        <pt x="991" y="1035" on="1"/>
        <pt x="839" y="1128" on="0"/>
        <pt x="697" y="1128" on="1"/>
        <pt x="477" y="1128" on="0"/>
        <pt x="477" y="953" on="1"/>
        <pt x="476" y="861" on="0"/>
        <pt x="524" y="792" on="1"/>
        <pt x="540" y="768" on="0"/>
        <pt x="573" y="728" on="1"/>
        <pt x="994" y="728" on="1"/>
        <pt x="994" y="595" on="1"/>
        <pt x="584" y="595" on="1"/>
        <pt x="584" y="478" on="0"/>
        <pt x="510" y="293" on="0"/>
        <pt x="447" y="199" on="1"/>
        <pt x="1058" y="199" on="1"/>
        <pt x="1058" y="0" on="1"/>
        <pt x="201" y="0" on="1"/>
        <pt x="201" y="193" on="1"/>
        <pt x="261" y="263" on="0"/>
        <pt x="345" y="482" on="0"/>
        <pt x="345" y="595" on="1"/>
        <pt x="188" y="595" on="1"/>
        <pt x="188" y="724" on="1"/>
      </contour>
    </TTGlyph>
    <TTGlyph name="t" xMin="16" yMin="-24" xMax="889" yMax="1667">
      <contour>
        <pt x="889" y="72" on="1"/>
        <pt x="737" y="-24" on="0"/>
        <pt x="553" y="-24" on="1"/>
        <pt x="326" y="-24" on="0"/>
        <pt x="258" y="168" on="1"/>
        <pt x="218" y="278" on="0"/>
        <pt x="219" y="455" on="1"/>
        <pt x="219" y="1054" on="1"/>
        <pt x="16" y="1054" on="1"/>
        <pt x="16" y="1185" on="1"/>
        <pt x="226" y="1185" on="1"/>
        <pt x="236" y="1597" on="1"/>
        <pt x="510" y="1667" on="1"/>
        <pt x="510" y="1185" on="1"/>
        <pt x="845" y="1185" on="1"/>
        <pt x="845" y="1054" on="1"/>
        <pt x="510" y="1054" on="1"/>
        <pt x="510" y="377" on="1"/>
        <pt x="510" y="279" on="0"/>
        <pt x="558" y="177" on="0"/>
        <pt x="628" y="177" on="1"/>
        <pt x="679" y="177" on="0"/>
        <pt x="756" y="218" on="0"/>
        <pt x="764" y="222" on="1"/>
        <pt x="798" y="240" on="0"/>
        <pt x="812" y="251" on="1"/>
      </contour>
    </TTGlyph>
    <TTGlyph name="t_t" xMin="16" yMin="-24" xMax="1709" yMax="1667">
      <contour>
        <pt x="1631" y="251" on="1"/>
        <pt x="1709" y="72" on="1"/>
        <pt x="1557" y="-24" on="0"/>
        <pt x="1373" y="-24" on="1"/>
        <pt x="1148" y="-24" on="0"/>
        <pt x="1078" y="170" on="1"/>
        <pt x="1038" y="281" on="0"/>
        <pt x="1039" y="460" on="1"/>
        <pt x="1039" y="1054" on="1"/>
        <pt x="530" y="1054" on="1"/>
        <pt x="530" y="377" on="1"/>
        <pt x="530" y="279" on="0"/>
        <pt x="578" y="177" on="0"/>
        <pt x="648" y="177" on="1"/>
        <pt x="699" y="177" on="0"/>
        <pt x="776" y="218" on="0"/>
        <pt x="784" y="222" on="1"/>
        <pt x="818" y="240" on="0"/>
        <pt x="832" y="251" on="1"/>
        <pt x="909" y="72" on="1"/>
        <pt x="757" y="-24" on="0"/>
        <pt x="573" y="-24" on="1"/>
        <pt x="348" y="-24" on="0"/>
        <pt x="278" y="170" on="1"/>
        <pt x="238" y="281" on="0"/>
        <pt x="239" y="460" on="1"/>
        <pt x="239" y="1054" on="1"/>
        <pt x="16" y="1054" on="1"/>
        <pt x="16" y="1185" on="1"/>
        <pt x="256" y="1185" on="1"/>
        <pt x="256" y="1597" on="1"/>
        <pt x="530" y="1667" on="1"/>
        <pt x="530" y="1185" on="1"/>
        <pt x="1056" y="1185" on="1"/>
        <pt x="1056" y="1597" on="1"/>
        <pt x="1331" y="1667" on="1"/>
        <pt x="1331" y="1185" on="1"/>
        <pt x="1666" y="1185" on="1"/>
        <pt x="1666" y="1054" on="1"/>
        <pt x="1331" y="1054" on="1"/>
        <pt x="1331" y="377" on="1"/>
        <pt x="1332" y="259" on="0"/>
        <pt x="1364" y="215" on="1"/>
        <pt x="1392" y="177" on="0"/>
        <pt x="1520" y="177" on="0"/>
      </contour>
    </TTGlyph>
    <TTGlyph name="thorn" xMin="154" yMin="-446" xMax="1246" yMax="1601">
      <contour>
        <pt x="737" y="184" on="1"/>
        <pt x="926" y="184" on="0"/>
        <pt x="950" y="467" on="1"/>
        <pt x="954" y="518" on="0"/>
        <pt x="954" y="581" on="1"/>
        <pt x="954" y="1001" on="0"/>
        <pt x="715" y="1001" on="1"/>
        <pt x="604" y="1002" on="0"/>
        <pt x="519" y="946" on="1"/>
        <pt x="489" y="926" on="0"/>
        <pt x="446" y="891" on="1"/>
        <pt x="446" y="291" on="1"/>
        <pt x="564" y="184" on="0"/>
      </contour>
      <contour>
        <pt x="1212" y="871" on="0"/>
        <pt x="1246" y="688" on="0"/>
        <pt x="1246" y="410" on="0"/>
        <pt x="1143" y="144" on="0"/>
        <pt x="919" y="-18" on="0"/>
        <pt x="757" y="-18" on="1"/>
        <pt x="545" y="-18" on="0"/>
        <pt x="445" y="115" on="1"/>
        <pt x="445" y="-437" on="1"/>
        <pt x="154" y="-446" on="1"/>
        <pt x="154" y="1601" on="1"/>
        <pt x="441" y="1601" on="1"/>
        <pt x="441" y="1045" on="1"/>
        <pt x="489" y="1116" on="0"/>
        <pt x="659" y="1204" on="0"/>
        <pt x="865" y="1204" on="0"/>
        <pt x="1027" y="1141" on="0"/>
        <pt x="1138" y="1029" on="0"/>
      </contour>
    </TTGlyph>
    <TTGlyph name="three" xMin="128" yMin="-188" xMax="1028" yMax="1225">
      <contour>
        <pt x="756" y="221" on="1"/>
        <pt x="756" y="431" on="0"/>
        <pt x="438" y="451" on="1"/>
        <pt x="438" y="660" on="1"/>
        <pt x="646" y="660" on="0"/>
        <pt x="708" y="758" on="1"/>
        <pt x="732" y="796" on="0"/>
        <pt x="733" y="850" on="1"/>
        <pt x="733" y="1006" on="0"/>
        <pt x="515" y="1006" on="1"/>
        <pt x="431" y="1006" on="0"/>
        <pt x="247" y="941" on="0"/>
        <pt x="220" y="934" on="1"/>
        <pt x="132" y="1130" on="1"/>
        <pt x="324" y="1225" on="0"/>
        <pt x="502" y="1225" on="1"/>
        <pt x="716" y="1224" on="0"/>
        <pt x="848" y="1142" on="1"/>
        <pt x="990" y="1053" on="0"/>
        <pt x="990" y="852" on="1"/>
        <pt x="990" y="735" on="0"/>
        <pt x="855" y="573" on="0"/>
        <pt x="751" y="556" on="1"/>
        <pt x="871" y="526" on="0"/>
        <pt x="1028" y="349" on="0"/>
        <pt x="1028" y="112" on="0"/>
        <pt x="989" y="34" on="1"/>
        <pt x="950" y="-44" on="0"/>
        <pt x="880" y="-92" on="1"/>
        <pt x="739" y="-187" on="0"/>
        <pt x="290" y="-188" on="0"/>
        <pt x="128" y="-107" on="1"/>
        <pt x="201" y="101" on="1"/>
        <pt x="349" y="27" on="0"/>
        <pt x="634" y="27" on="0"/>
        <pt x="756" y="117" on="0"/>
      </contour>
    </TTGlyph>
    <TTGlyph name="threequarters" xMin="136" yMin="-177" xMax="2053" yMax="1604">
      <contour>
        <pt x="1714" y="244" on="1"/>
        <pt x="1714" y="654" on="1"/>
        <pt x="1428" y="244" on="1"/>
      </contour>
      <contour>
        <pt x="1907" y="965" on="1"/>
        <pt x="1907" y="244" on="1"/>
        <pt x="2053" y="244" on="1"/>
        <pt x="2053" y="73" on="1"/>
        <pt x="1907" y="73" on="1"/>
        <pt x="1907" y="-168" on="1"/>
        <pt x="1710" y="-177" on="1"/>
        <pt x="1710" y="73" on="1"/>
        <pt x="1210" y="73" on="1"/>
        <pt x="1181" y="217" on="1"/>
        <pt x="1728" y="1011" on="1"/>
      </contour>
      <contour>
        <pt x="1441" y="1498" on="1"/>
        <pt x="1633" y="1410" on="1"/>
        <pt x="777" y="-115" on="1"/>
        <pt x="593" y="-30" on="1"/>
      </contour>
      <contour>
        <pt x="449" y="649" on="1"/>
        <pt x="638" y="649" on="0"/>
        <pt x="638" y="797" on="1"/>
        <pt x="638" y="886" on="0"/>
        <pt x="494" y="972" on="0"/>
        <pt x="386" y="978" on="1"/>
        <pt x="386" y="1154" on="1"/>
        <pt x="522" y="1154" on="0"/>
        <pt x="583" y="1214" on="1"/>
        <pt x="618" y="1248" on="0"/>
        <pt x="619" y="1303" on="1"/>
        <pt x="619" y="1421" on="0"/>
        <pt x="447" y="1421" on="1"/>
        <pt x="348" y="1421" on="0"/>
        <pt x="213" y="1363" on="1"/>
        <pt x="138" y="1528" on="1"/>
        <pt x="261" y="1604" on="0"/>
        <pt x="437" y="1604" on="1"/>
        <pt x="834" y="1604" on="0"/>
        <pt x="834" y="1304" on="1"/>
        <pt x="834" y="1210" on="0"/>
        <pt x="720" y="1082" on="0"/>
        <pt x="636" y="1067" on="1"/>
        <pt x="733" y="1045" on="0"/>
        <pt x="864" y="899" on="0"/>
        <pt x="864" y="707" on="0"/>
        <pt x="830" y="644" on="1"/>
        <pt x="798" y="580" on="0"/>
        <pt x="738" y="542" on="1"/>
        <pt x="621" y="468" on="0"/>
        <pt x="274" y="469" on="0"/>
        <pt x="136" y="533" on="1"/>
        <pt x="198" y="709" on="1"/>
        <pt x="307" y="649" on="0"/>
      </contour>
    </TTGlyph>
    <TTGlyph name="tilde" xMin="305" yMin="228" xMax="1155" yMax="559">
      <contour>
        <pt x="1155" y="529" on="1"/>
        <pt x="1155" y="394" on="0"/>
        <pt x="1051" y="228" on="0"/>
        <pt x="942" y="228" on="1"/>
        <pt x="864" y="228" on="0"/>
        <pt x="776" y="266" on="1"/>
        <pt x="702" y="299" on="0"/>
        <pt x="630" y="342" on="1"/>
        <pt x="586" y="364" on="0"/>
        <pt x="554" y="364" on="1"/>
        <pt x="496" y="364" on="0"/>
        <pt x="496" y="246" on="1"/>
        <pt x="305" y="246" on="1"/>
        <pt x="305" y="559" on="0"/>
        <pt x="528" y="559" on="1"/>
        <pt x="609" y="559" on="0"/>
        <pt x="701" y="516" on="0"/>
        <pt x="743" y="494" on="1"/>
        <pt x="791" y="470" on="1"/>
        <pt x="794" y="469" on="0"/>
        <pt x="830" y="449" on="0"/>
        <pt x="844" y="443" on="0"/>
        <pt x="859" y="437" on="1"/>
        <pt x="887" y="426" on="0"/>
        <pt x="928" y="426" on="0"/>
        <pt x="947" y="441" on="0"/>
        <pt x="951" y="457" on="1"/>
        <pt x="957" y="481" on="0"/>
        <pt x="957" y="529" on="1"/>
      </contour>
    </TTGlyph>
    <TTGlyph name="trademark" xMin="85" yMin="550" xMax="1867" yMax="1487">
      <contour>
        <pt x="1051" y="1243" on="1"/>
        <pt x="1051" y="550" on="1"/>
        <pt x="879" y="550" on="1"/>
        <pt x="879" y="1487" on="1"/>
        <pt x="1142" y="1487" on="1"/>
        <pt x="1370" y="764" on="1"/>
        <pt x="1604" y="1487" on="1"/>
        <pt x="1867" y="1487" on="1"/>
        <pt x="1867" y="550" on="1"/>
        <pt x="1695" y="550" on="1"/>
        <pt x="1695" y="1243" on="1"/>
        <pt x="1477" y="550" on="1"/>
        <pt x="1270" y="550" on="1"/>
      </contour>
      <contour>
        <pt x="530" y="1346" on="1"/>
        <pt x="530" y="550" on="1"/>
        <pt x="331" y="550" on="1"/>
        <pt x="331" y="1346" on="1"/>
        <pt x="85" y="1346" on="1"/>
        <pt x="85" y="1487" on="1"/>
        <pt x="771" y="1487" on="1"/>
        <pt x="771" y="1346" on="1"/>
      </contour>
    </TTGlyph>
    <TTGlyph name="two" xMin="153" yMin="0" xMax="1029" yMax="1215">
      <contour>
        <pt x="159" y="1101" on="1"/>
        <pt x="357" y="1215" on="0"/>
        <pt x="575" y="1215" on="1"/>
        <pt x="852" y="1216" on="0"/>
        <pt x="968" y="1058" on="1"/>
        <pt x="1030" y="974" on="0"/>
        <pt x="1029" y="853" on="1"/>
        <pt x="1029" y="682" on="0"/>
        <pt x="912" y="552" on="1"/>
        <pt x="856" y="490" on="0"/>
        <pt x="754" y="405" on="0"/>
        <pt x="746" y="398" on="0"/>
        <pt x="742" y="395" on="1"/>
        <pt x="541" y="226" on="1"/>
        <pt x="1009" y="226" on="1"/>
        <pt x="1009" y="0" on="1"/>
        <pt x="153" y="0" on="1"/>
        <pt x="153" y="193" on="1"/>
        <pt x="578" y="548" on="1"/>
        <pt x="693" y="644" on="0"/>
        <pt x="721" y="692" on="1"/>
        <pt x="758" y="755" on="0"/>
        <pt x="758" y="824" on="1"/>
        <pt x="758" y="998" on="0"/>
        <pt x="552" y="998" on="1"/>
        <pt x="415" y="998" on="0"/>
        <pt x="237" y="907" on="1"/>
      </contour>
    </TTGlyph>
    <TTGlyph name="u" xMin="134" yMin="-24" xMax="1159" yMax="1185">
      <contour>
        <pt x="482" y="220" on="0"/>
        <pt x="556" y="184" on="0"/>
        <pt x="624" y="184" on="1"/>
        <pt x="751" y="184" on="0"/>
        <pt x="866" y="297" on="1"/>
        <pt x="866" y="1185" on="1"/>
        <pt x="1159" y="1185" on="1"/>
        <pt x="1159" y="0" on="1"/>
        <pt x="949" y="0" on="1"/>
        <pt x="891" y="180" on="1"/>
        <pt x="850" y="87" on="0"/>
        <pt x="686" y="-24" on="0"/>
        <pt x="567" y="-24" on="1"/>
        <pt x="345" y="-24" on="0"/>
        <pt x="134" y="217" on="0"/>
        <pt x="134" y="454" on="1"/>
        <pt x="134" y="1185" on="1"/>
        <pt x="424" y="1185" on="1"/>
        <pt x="424" y="438" on="1"/>
        <pt x="424" y="319" on="0"/>
      </contour>
    </TTGlyph>
    <TTGlyph name="uacute" xMin="134" yMin="-24" xMax="1159" yMax="2084">
      <component glyphName=".ttfautohint" x="134" y="0" flags="0x0"/>
      <component glyphName="u" x="0" y="0" flags="0x1204"/>
      <component glyphName="acute" x="32" y="1192" flags="0x1004"/>
    </TTGlyph>
    <TTGlyph name="ucircumflex" xMin="134" yMin="-24" xMax="1159" yMax="2029">
      <component glyphName=".ttfautohint" x="134" y="0" flags="0x0"/>
      <component glyphName="u" x="0" y="0" flags="0x1204"/>
      <component glyphName="circumflex" x="-34" y="1192" flags="0x1004"/>
    </TTGlyph>
    <TTGlyph name="udieresis" xMin="134" yMin="-24" xMax="1159" yMax="1739">
      <component glyphName=".ttfautohint" x="134" y="0" flags="0x0"/>
      <component glyphName="u" x="0" y="0" flags="0x1204"/>
      <component glyphName="dieresis" x="59" y="1159" flags="0x1004"/>
    </TTGlyph>
    <TTGlyph name="ugrave" xMin="134" yMin="-24" xMax="1159" yMax="2093">
      <component glyphName=".ttfautohint" x="134" y="0" flags="0x0"/>
      <component glyphName="u" x="0" y="0" flags="0x1204"/>
      <component glyphName="grave" x="155" y="1192" flags="0x1004"/>
    </TTGlyph>
    <TTGlyph name="underscore" xMin="92" yMin="-105" xMax="1084" yMax="115">
      <contour>
        <pt x="92" y="-105" on="1"/>
        <pt x="92" y="115" on="1"/>
        <pt x="1084" y="115" on="1"/>
        <pt x="1084" y="-105" on="1"/>
      </contour>
    </TTGlyph>
    <TTGlyph name="uni00AD" xMin="158" yMin="558" xMax="836" yMax="772">
      <contour>
        <pt x="158" y="558" on="1"/>
        <pt x="158" y="772" on="1"/>
        <pt x="836" y="772" on="1"/>
        <pt x="836" y="558" on="1"/>
      </contour>
    </TTGlyph>
    <TTGlyph name="uni00B2" xMin="253" yMin="668" xMax="919" yMax="1638">
      <contour>
        <pt x="270" y="1586" on="1"/>
        <pt x="394" y="1638" on="0"/>
        <pt x="728" y="1638" on="0"/>
        <pt x="919" y="1492" on="0"/>
        <pt x="919" y="1357" on="1"/>
        <pt x="919" y="1289" on="0"/>
        <pt x="889" y="1217" on="0"/>
        <pt x="873" y="1178" on="0"/>
        <pt x="833" y="1128" on="0"/>
        <pt x="814" y="1103" on="0"/>
        <pt x="787" y="1078" on="1"/>
        <pt x="760" y="1054" on="0"/>
        <pt x="752" y="1046" on="1"/>
        <pt x="732" y="1028" on="0"/>
        <pt x="676" y="982" on="1"/>
        <pt x="485" y="820" on="1"/>
        <pt x="891" y="820" on="1"/>
        <pt x="891" y="668" on="1"/>
        <pt x="253" y="668" on="1"/>
        <pt x="253" y="805" on="1"/>
        <pt x="524" y="1045" on="1"/>
        <pt x="540" y="1059" on="0"/>
        <pt x="623" y="1126" on="0"/>
        <pt x="644" y="1146" on="1"/>
        <pt x="666" y="1166" on="0"/>
        <pt x="694" y="1200" on="1"/>
        <pt x="747" y="1263" on="0"/>
        <pt x="747" y="1345" on="1"/>
        <pt x="747" y="1500" on="0"/>
        <pt x="566" y="1500" on="1"/>
        <pt x="444" y="1500" on="0"/>
        <pt x="270" y="1448" on="1"/>
      </contour>
    </TTGlyph>
    <TTGlyph name="uni00B3" xMin="300" yMin="540" xMax="1017" yMax="1677">
      <contour>
        <pt x="866" y="1117" on="0"/>
        <pt x="1017" y="967" on="0"/>
        <pt x="1017" y="738" on="0"/>
        <pt x="961" y="670" on="1"/>
        <pt x="855" y="540" on="0"/>
        <pt x="628" y="540" on="1"/>
        <pt x="445" y="540" on="0"/>
        <pt x="300" y="618" on="1"/>
        <pt x="351" y="745" on="1"/>
        <pt x="503" y="672" on="0"/>
        <pt x="727" y="672" on="0"/>
        <pt x="851" y="766" on="0"/>
        <pt x="851" y="862" on="1"/>
        <pt x="851" y="1043" on="0"/>
        <pt x="589" y="1072" on="1"/>
        <pt x="589" y="1207" on="1"/>
        <pt x="693" y="1207" on="0"/>
        <pt x="832" y="1295" on="0"/>
        <pt x="832" y="1383" on="1"/>
        <pt x="832" y="1541" on="0"/>
        <pt x="608" y="1541" on="1"/>
        <pt x="500" y="1541" on="0"/>
        <pt x="374" y="1484" on="1"/>
        <pt x="327" y="1611" on="1"/>
        <pt x="457" y="1677" on="0"/>
        <pt x="613" y="1677" on="1"/>
        <pt x="770" y="1677" on="0"/>
        <pt x="874" y="1611" on="1"/>
        <pt x="986" y="1540" on="0"/>
        <pt x="986" y="1394" on="1"/>
        <pt x="986" y="1287" on="0"/>
        <pt x="844" y="1142" on="0"/>
        <pt x="741" y="1142" on="1"/>
      </contour>
    </TTGlyph>
    <TTGlyph name="uni00B5" xMin="185" yMin="-291" xMax="1166" yMax="1169">
      <contour>
        <pt x="599" y="-20" on="1"/>
        <pt x="458" y="-20" on="0"/>
        <pt x="359" y="113" on="1"/>
        <pt x="359" y="-291" on="1"/>
        <pt x="185" y="-291" on="1"/>
        <pt x="185" y="1169" on="1"/>
        <pt x="359" y="1169" on="1"/>
        <pt x="359" y="442" on="1"/>
        <pt x="359" y="123" on="0"/>
        <pt x="611" y="123" on="1"/>
        <pt x="717" y="123" on="0"/>
        <pt x="905" y="210" on="0"/>
        <pt x="958" y="274" on="1"/>
        <pt x="958" y="1169" on="1"/>
        <pt x="1166" y="1169" on="1"/>
        <pt x="1166" y="16" on="1"/>
        <pt x="1020" y="16" on="1"/>
        <pt x="996" y="170" on="1"/>
        <pt x="825" y="-20" on="0"/>
      </contour>
    </TTGlyph>
    <TTGlyph name="uni00B9" xMin="119" yMin="478" xMax="496" yMax="1440">
      <contour>
        <pt x="327" y="1304" on="1"/>
        <pt x="156" y="1232" on="1"/>
        <pt x="119" y="1345" on="1"/>
        <pt x="356" y="1440" on="1"/>
        <pt x="496" y="1414" on="1"/>
        <pt x="496" y="478" on="1"/>
        <pt x="327" y="478" on="1"/>
      </contour>
    </TTGlyph>
    <TTGlyph name="uni0306" xMin="233" yMin="1367" xMax="863" yMax="1668">
      <contour>
        <pt x="549" y="1505" on="1"/>
        <pt x="624" y="1505" on="0"/>
        <pt x="687" y="1585" on="0"/>
        <pt x="687" y="1668" on="1"/>
        <pt x="863" y="1668" on="1"/>
        <pt x="863" y="1515" on="0"/>
        <pt x="707" y="1367" on="0"/>
        <pt x="549" y="1367" on="1"/>
        <pt x="233" y="1367" on="0"/>
        <pt x="233" y="1668" on="1"/>
        <pt x="410" y="1668" on="1"/>
        <pt x="410" y="1585" on="0"/>
        <pt x="474" y="1505" on="0"/>
      </contour>
    </TTGlyph>
    <TTGlyph name="uni0E81" xMin="73" yMin="0" xMax="1429" yMax="1170">
      <contour>
        <pt x="664" y="871" on="1"/>
        <pt x="667" y="829" on="1"/>
        <pt x="667" y="353" on="1"/>
        <pt x="667" y="190" on="0"/>
        <pt x="508" y="0" on="0"/>
        <pt x="355" y="0" on="1"/>
        <pt x="77" y="0" on="0"/>
        <pt x="77" y="226" on="1"/>
        <pt x="77" y="311" on="0"/>
        <pt x="192" y="432" on="0"/>
        <pt x="276" y="432" on="1"/>
        <pt x="282" y="430" on="0"/>
        <pt x="293" y="430" on="1"/>
        <pt x="315" y="429" on="0"/>
        <pt x="327" y="426" on="1"/>
        <pt x="384" y="408" on="1"/>
        <pt x="384" y="744" on="1"/>
        <pt x="348" y="740" on="0"/>
        <pt x="329" y="740" on="1"/>
        <pt x="216" y="740" on="0"/>
        <pt x="73" y="852" on="0"/>
        <pt x="73" y="941" on="1"/>
        <pt x="74" y="1030" on="0"/>
        <pt x="110" y="1079" on="1"/>
        <pt x="178" y="1170" on="0"/>
        <pt x="533" y="1170" on="0"/>
        <pt x="619" y="1028" on="1"/>
        <pt x="782" y="1138" on="0"/>
        <pt x="880" y="1160" on="1"/>
        <pt x="928" y="1170" on="0"/>
        <pt x="981" y="1170" on="1"/>
        <pt x="1429" y="1170" on="0"/>
        <pt x="1429" y="697" on="1"/>
        <pt x="1429" y="0" on="1"/>
        <pt x="1145" y="0" on="1"/>
        <pt x="1145" y="747" on="1"/>
        <pt x="1144" y="876" on="0"/>
        <pt x="1102" y="932" on="1"/>
        <pt x="1058" y="992" on="0"/>
        <pt x="936" y="992" on="1"/>
        <pt x="843" y="990" on="0"/>
      </contour>
      <contour>
        <pt x="252" y="957" on="1"/>
        <pt x="261" y="881" on="0"/>
        <pt x="327" y="876" on="1"/>
        <pt x="358" y="876" on="0"/>
        <pt x="384" y="885" on="1"/>
        <pt x="384" y="931" on="1"/>
        <pt x="376" y="1018" on="0"/>
        <pt x="319" y="1026" on="1"/>
        <pt x="252" y="1026" on="0"/>
      </contour>
      <contour>
        <pt x="327" y="301" on="1"/>
        <pt x="254" y="301" on="0"/>
        <pt x="254" y="149" on="0"/>
        <pt x="318" y="147" on="1"/>
        <pt x="384" y="149" on="0"/>
        <pt x="384" y="241" on="1"/>
        <pt x="384" y="301" on="1"/>
      </contour>
    </TTGlyph>
    <TTGlyph name="uni0E82" xMin="140" yMin="-55" xMax="1341" yMax="1170">
      <contour>
        <pt x="674" y="1170" on="1"/>
        <pt x="748" y="1170" on="0"/>
        <pt x="855" y="1164" on="0"/>
        <pt x="962" y="1149" on="0"/>
        <pt x="1049" y="1123" on="0"/>
        <pt x="1129" y="1086" on="0"/>
        <pt x="1159" y="1060" on="1"/>
        <pt x="1190" y="1034" on="0"/>
        <pt x="1212" y="1000" on="1"/>
        <pt x="1256" y="934" on="0"/>
        <pt x="1256" y="775" on="0"/>
        <pt x="1226" y="682" on="0"/>
        <pt x="1182" y="614" on="0"/>
        <pt x="1104" y="551" on="0"/>
        <pt x="1039" y="512" on="0"/>
        <pt x="986" y="490" on="1"/>
        <pt x="908" y="458" on="0"/>
        <pt x="813" y="430" on="1"/>
        <pt x="675" y="387" on="1"/>
        <pt x="629" y="374" on="0"/>
        <pt x="554" y="357" on="0"/>
        <pt x="526" y="347" on="1"/>
        <pt x="498" y="336" on="0"/>
        <pt x="478" y="326" on="1"/>
        <pt x="432" y="301" on="0"/>
        <pt x="431" y="266" on="1"/>
        <pt x="430" y="234" on="0"/>
        <pt x="456" y="227" on="1"/>
        <pt x="468" y="224" on="0"/>
        <pt x="543" y="224" on="0"/>
        <pt x="671" y="264" on="0"/>
        <pt x="721" y="288" on="1"/>
        <pt x="856" y="352" on="0"/>
        <pt x="971" y="351" on="1"/>
        <pt x="1150" y="351" on="0"/>
        <pt x="1286" y="168" on="1"/>
        <pt x="1310" y="135" on="0"/>
        <pt x="1341" y="88" on="1"/>
        <pt x="1178" y="-55" on="1"/>
        <pt x="1115" y="53" on="0"/>
        <pt x="1077" y="83" on="1"/>
        <pt x="1021" y="127" on="0"/>
        <pt x="898" y="127" on="0"/>
        <pt x="788" y="101" on="0"/>
        <pt x="742" y="82" on="1"/>
        <pt x="697" y="62" on="0"/>
        <pt x="651" y="44" on="1"/>
        <pt x="540" y="0" on="0"/>
        <pt x="437" y="0" on="1"/>
        <pt x="147" y="0" on="0"/>
        <pt x="147" y="241" on="1"/>
        <pt x="147" y="358" on="0"/>
        <pt x="238" y="428" on="1"/>
        <pt x="325" y="495" on="0"/>
        <pt x="507" y="552" on="1"/>
        <pt x="536" y="561" on="0"/>
        <pt x="549" y="566" on="1"/>
        <pt x="647" y="599" on="1"/>
        <pt x="667" y="605" on="0"/>
        <pt x="739" y="626" on="0"/>
        <pt x="783" y="639" on="0"/>
        <pt x="847" y="664" on="0"/>
        <pt x="887" y="687" on="0"/>
        <pt x="933" y="724" on="0"/>
        <pt x="946" y="745" on="1"/>
        <pt x="976" y="793" on="0"/>
        <pt x="976" y="890" on="0"/>
        <pt x="955" y="937" on="0"/>
        <pt x="914" y="969" on="0"/>
        <pt x="888" y="980" on="1"/>
        <pt x="864" y="990" on="0"/>
        <pt x="830" y="996" on="1"/>
        <pt x="769" y="1007" on="0"/>
        <pt x="643" y="1007" on="0"/>
        <pt x="590" y="1006" on="0"/>
        <pt x="552" y="1004" on="1"/>
        <pt x="480" y="1000" on="0"/>
        <pt x="431" y="982" on="1"/>
        <pt x="448" y="985" on="0"/>
        <pt x="464" y="985" on="1"/>
        <pt x="537" y="985" on="0"/>
        <pt x="638" y="872" on="0"/>
        <pt x="638" y="699" on="0"/>
        <pt x="503" y="583" on="0"/>
        <pt x="399" y="583" on="1"/>
        <pt x="140" y="583" on="0"/>
        <pt x="140" y="835" on="1"/>
        <pt x="140" y="1048" on="0"/>
        <pt x="378" y="1127" on="1"/>
        <pt x="506" y="1170" on="0"/>
      </contour>
      <contour>
        <pt x="370" y="721" on="0"/>
        <pt x="425" y="721" on="0"/>
        <pt x="460" y="776" on="0"/>
        <pt x="461" y="812" on="1"/>
        <pt x="461" y="884" on="0"/>
        <pt x="381" y="884" on="1"/>
        <pt x="329" y="884" on="1"/>
        <pt x="325" y="866" on="0"/>
        <pt x="325" y="849" on="1"/>
        <pt x="325" y="810" on="0"/>
        <pt x="344" y="774" on="1"/>
      </contour>
    </TTGlyph>
    <TTGlyph name="uni0E84" xMin="117" yMin="0" xMax="1259" yMax="1170">
      <contour>
        <pt x="686" y="1170" on="1"/>
        <pt x="1029" y="1170" on="0"/>
        <pt x="1161" y="1018" on="1"/>
        <pt x="1259" y="905" on="0"/>
        <pt x="1259" y="697" on="1"/>
        <pt x="1259" y="0" on="1"/>
        <pt x="976" y="0" on="1"/>
        <pt x="976" y="693" on="1"/>
        <pt x="976" y="858" on="0"/>
        <pt x="848" y="991" on="0"/>
        <pt x="686" y="991" on="1"/>
        <pt x="484" y="990" on="0"/>
        <pt x="430" y="938" on="1"/>
        <pt x="400" y="909" on="0"/>
        <pt x="400" y="792" on="0"/>
        <pt x="478" y="719" on="0"/>
        <pt x="550" y="719" on="1"/>
        <pt x="707" y="719" on="1"/>
        <pt x="707" y="552" on="1"/>
        <pt x="550" y="552" on="1"/>
        <pt x="472" y="552" on="0"/>
        <pt x="400" y="487" on="0"/>
        <pt x="400" y="414" on="1"/>
        <pt x="400" y="409" on="1"/>
        <pt x="424" y="416" on="1"/>
        <pt x="430" y="418" on="0"/>
        <pt x="451" y="423" on="0"/>
        <pt x="461" y="426" on="0"/>
        <pt x="469" y="428" on="1"/>
        <pt x="482" y="430" on="0"/>
        <pt x="562" y="430" on="0"/>
        <pt x="608" y="405" on="1"/>
        <pt x="708" y="352" on="0"/>
        <pt x="708" y="229" on="1"/>
        <pt x="708" y="0" on="0"/>
        <pt x="428" y="0" on="1"/>
        <pt x="279" y="0" on="0"/>
        <pt x="117" y="194" on="0"/>
        <pt x="117" y="474" on="0"/>
        <pt x="267" y="623" on="0"/>
        <pt x="386" y="638" on="1"/>
        <pt x="271" y="638" on="0"/>
        <pt x="117" y="758" on="0"/>
        <pt x="117" y="862" on="1"/>
        <pt x="117" y="1170" on="0"/>
      </contour>
      <contour>
        <pt x="465" y="147" on="1"/>
        <pt x="531" y="147" on="0"/>
        <pt x="531" y="229" on="1"/>
        <pt x="531" y="261" on="0"/>
        <pt x="488" y="301" on="0"/>
        <pt x="454" y="301" on="1"/>
        <pt x="400" y="301" on="1"/>
        <pt x="400" y="252" on="1"/>
        <pt x="400" y="201" on="0"/>
        <pt x="427" y="147" on="0"/>
      </contour>
    </TTGlyph>
    <TTGlyph name="uni0E87" xMin="61" yMin="-520" xMax="995" yMax="1169">
      <contour>
        <pt x="516" y="937" on="1"/>
        <pt x="516" y="739" on="0"/>
        <pt x="284" y="739" on="1"/>
        <pt x="182" y="739" on="0"/>
        <pt x="61" y="850" on="0"/>
        <pt x="61" y="950" on="1"/>
        <pt x="62" y="1084" on="0"/>
        <pt x="226" y="1140" on="1"/>
        <pt x="313" y="1170" on="0"/>
        <pt x="428" y="1169" on="1"/>
        <pt x="995" y="1169" on="0"/>
        <pt x="995" y="625" on="1"/>
        <pt x="995" y="21" on="1"/>
        <pt x="995" y="-254" on="0"/>
        <pt x="762" y="-520" on="0"/>
        <pt x="500" y="-520" on="1"/>
        <pt x="85" y="-520" on="0"/>
        <pt x="83" y="-190" on="1"/>
        <pt x="273" y="-190" on="1"/>
        <pt x="273" y="-286" on="0"/>
        <pt x="381" y="-363" on="0"/>
        <pt x="490" y="-363" on="1"/>
        <pt x="573" y="-363" on="0"/>
        <pt x="645" y="-316" on="0"/>
        <pt x="678" y="-267" on="0"/>
        <pt x="688" y="-240" on="1"/>
        <pt x="696" y="-214" on="0"/>
        <pt x="702" y="-176" on="1"/>
        <pt x="710" y="-117" on="0"/>
        <pt x="711" y="-18" on="1"/>
        <pt x="711" y="619" on="1"/>
        <pt x="711" y="783" on="0"/>
        <pt x="678" y="894" on="0"/>
        <pt x="646" y="956" on="0"/>
        <pt x="624" y="976" on="1"/>
        <pt x="573" y="1021" on="0"/>
        <pt x="497" y="1023" on="1"/>
        <pt x="516" y="972" on="0"/>
      </contour>
      <contour>
        <pt x="238" y="937" on="1"/>
        <pt x="238" y="870" on="0"/>
        <pt x="296" y="870" on="1"/>
        <pt x="366" y="870" on="0"/>
        <pt x="366" y="956" on="1"/>
        <pt x="366" y="1022" on="1"/>
        <pt x="238" y="1011" on="0"/>
      </contour>
    </TTGlyph>
    <TTGlyph name="uni0E88" xMin="38" yMin="-82" xMax="1331" yMax="1170">
      <contour>
        <pt x="375" y="723" on="0"/>
        <pt x="522" y="840" on="0"/>
        <pt x="717" y="840" on="0"/>
        <pt x="825" y="796" on="0"/>
        <pt x="885" y="722" on="0"/>
        <pt x="926" y="621" on="0"/>
        <pt x="943" y="511" on="0"/>
        <pt x="954" y="450" on="1"/>
        <pt x="964" y="388" on="0"/>
        <pt x="974" y="334" on="1"/>
        <pt x="998" y="209" on="0"/>
        <pt x="1068" y="140" on="1"/>
        <pt x="1068" y="676" on="1"/>
        <pt x="1068" y="850" on="0"/>
        <pt x="972" y="922" on="1"/>
        <pt x="880" y="992" on="0"/>
        <pt x="694" y="991" on="1"/>
        <pt x="452" y="991" on="0"/>
        <pt x="348" y="883" on="1"/>
        <pt x="290" y="823" on="0"/>
        <pt x="290" y="719" on="1"/>
        <pt x="38" y="719" on="1"/>
        <pt x="40" y="888" on="0"/>
        <pt x="133" y="988" on="1"/>
        <pt x="226" y="1090" on="0"/>
        <pt x="372" y="1130" on="1"/>
        <pt x="521" y="1170" on="0"/>
        <pt x="853" y="1170" on="0"/>
        <pt x="1082" y="1110" on="0"/>
        <pt x="1164" y="1046" on="1"/>
        <pt x="1330" y="916" on="0"/>
        <pt x="1331" y="625" on="1"/>
        <pt x="1331" y="18" on="1"/>
        <pt x="1055" y="-82" on="1"/>
        <pt x="1010" y="-56" on="1"/>
        <pt x="759" y="87" on="0"/>
        <pt x="694" y="431" on="1"/>
        <pt x="644" y="416" on="1"/>
        <pt x="606" y="405" on="0"/>
        <pt x="574" y="405" on="1"/>
        <pt x="485" y="405" on="0"/>
        <pt x="375" y="522" on="0"/>
      </contour>
      <contour>
        <pt x="683" y="573" on="1"/>
        <pt x="683" y="632" on="0"/>
        <pt x="657" y="695" on="0"/>
        <pt x="588" y="695" on="0"/>
        <pt x="552" y="649" on="0"/>
        <pt x="552" y="588" on="0"/>
        <pt x="564" y="570" on="1"/>
        <pt x="587" y="536" on="0"/>
        <pt x="643" y="537" on="1"/>
        <pt x="684" y="537" on="1"/>
        <pt x="683" y="540" on="0"/>
        <pt x="683" y="551" on="1"/>
      </contour>
    </TTGlyph>
    <TTGlyph name="uni0E8A" xMin="140" yMin="-353" xMax="1273" yMax="1170">
      <contour>
        <pt x="330" y="884" on="1"/>
        <pt x="326" y="856" on="0"/>
        <pt x="326" y="849" on="1"/>
        <pt x="329" y="729" on="0"/>
        <pt x="390" y="727" on="1"/>
        <pt x="461" y="727" on="0"/>
        <pt x="461" y="812" on="1"/>
        <pt x="457" y="884" on="0"/>
        <pt x="376" y="884" on="1"/>
      </contour>
      <contour>
        <pt x="428" y="264" on="1"/>
        <pt x="430" y="223" on="0"/>
        <pt x="526" y="223" on="0"/>
        <pt x="600" y="245" on="1"/>
        <pt x="674" y="267" on="0"/>
        <pt x="738" y="293" on="1"/>
        <pt x="912" y="363" on="0"/>
        <pt x="1027" y="363" on="1"/>
        <pt x="1273" y="363" on="0"/>
        <pt x="1273" y="91" on="1"/>
        <pt x="1273" y="-353" on="1"/>
        <pt x="1024" y="-353" on="1"/>
        <pt x="1024" y="72" on="1"/>
        <pt x="1024" y="114" on="0"/>
        <pt x="1012" y="126" on="1"/>
        <pt x="993" y="145" on="0"/>
        <pt x="905" y="145" on="0"/>
        <pt x="767" y="100" on="0"/>
        <pt x="707" y="72" on="1"/>
        <pt x="482" y="-1" on="0"/>
        <pt x="428" y="0" on="1"/>
        <pt x="425" y="0" on="0"/>
        <pt x="423" y="0" on="1"/>
        <pt x="297" y="0" on="0"/>
        <pt x="147" y="120" on="0"/>
        <pt x="147" y="241" on="1"/>
        <pt x="150" y="352" on="0"/>
        <pt x="248" y="414" on="1"/>
        <pt x="340" y="473" on="0"/>
        <pt x="476" y="513" on="1"/>
        <pt x="506" y="522" on="0"/>
        <pt x="618" y="554" on="0"/>
        <pt x="670" y="570" on="0"/>
        <pt x="764" y="601" on="0"/>
        <pt x="814" y="625" on="0"/>
        <pt x="885" y="661" on="0"/>
        <pt x="923" y="698" on="0"/>
        <pt x="943" y="722" on="1"/>
        <pt x="979" y="764" on="0"/>
        <pt x="979" y="866" on="0"/>
        <pt x="964" y="918" on="0"/>
        <pt x="937" y="956" on="0"/>
        <pt x="895" y="985" on="0"/>
        <pt x="848" y="1002" on="0"/>
        <pt x="817" y="1008" on="1"/>
        <pt x="763" y="1018" on="0"/>
        <pt x="677" y="1017" on="1"/>
        <pt x="498" y="1017" on="0"/>
        <pt x="428" y="977" on="1"/>
        <pt x="450" y="977" on="1"/>
        <pt x="525" y="977" on="0"/>
        <pt x="638" y="878" on="0"/>
        <pt x="638" y="701" on="0"/>
        <pt x="503" y="580" on="0"/>
        <pt x="400" y="580" on="1"/>
        <pt x="140" y="580" on="0"/>
        <pt x="140" y="835" on="1"/>
        <pt x="140" y="1126" on="0"/>
        <pt x="572" y="1165" on="1"/>
        <pt x="628" y="1170" on="0"/>
        <pt x="686" y="1170" on="1"/>
        <pt x="1258" y="1170" on="0"/>
        <pt x="1258" y="817" on="1"/>
        <pt x="1258" y="614" on="0"/>
        <pt x="1056" y="519" on="1"/>
        <pt x="993" y="490" on="0"/>
        <pt x="911" y="463" on="1"/>
        <pt x="681" y="387" on="1"/>
        <pt x="664" y="381" on="0"/>
        <pt x="588" y="363" on="0"/>
        <pt x="530" y="346" on="0"/>
        <pt x="498" y="334" on="1"/>
        <pt x="432" y="308" on="0"/>
      </contour>
    </TTGlyph>
    <TTGlyph name="uni0E8D" xMin="128" yMin="0" xMax="1270" yMax="1170">
      <contour>
        <pt x="696" y="178" on="1"/>
        <pt x="859" y="178" on="0"/>
        <pt x="987" y="312" on="0"/>
        <pt x="987" y="477" on="1"/>
        <pt x="987" y="1170" on="1"/>
        <pt x="1270" y="1170" on="1"/>
        <pt x="1270" y="473" on="1"/>
        <pt x="1270" y="159" on="0"/>
        <pt x="1043" y="60" on="1"/>
        <pt x="905" y="0" on="0"/>
        <pt x="670" y="0" on="1"/>
        <pt x="128" y="0" on="0"/>
        <pt x="128" y="307" on="1"/>
        <pt x="128" y="459" on="0"/>
        <pt x="310" y="511" on="1"/>
        <pt x="362" y="526" on="0"/>
        <pt x="428" y="531" on="1"/>
        <pt x="297" y="545" on="0"/>
        <pt x="128" y="697" on="0"/>
        <pt x="128" y="817" on="1"/>
        <pt x="128" y="974" on="0"/>
        <pt x="208" y="1070" on="1"/>
        <pt x="291" y="1170" on="0"/>
        <pt x="439" y="1170" on="1"/>
        <pt x="718" y="1170" on="0"/>
        <pt x="718" y="940" on="1"/>
        <pt x="718" y="820" on="0"/>
        <pt x="622" y="765" on="1"/>
        <pt x="576" y="739" on="0"/>
        <pt x="435" y="739" on="0"/>
        <pt x="390" y="793" on="1"/>
        <pt x="390" y="700" on="0"/>
        <pt x="469" y="617" on="0"/>
        <pt x="560" y="617" on="1"/>
        <pt x="717" y="617" on="1"/>
        <pt x="717" y="450" on="1"/>
        <pt x="560" y="450" on="1"/>
        <pt x="462" y="450" on="0"/>
        <pt x="428" y="386" on="1"/>
        <pt x="410" y="354" on="0"/>
        <pt x="411" y="279" on="0"/>
        <pt x="432" y="235" on="0"/>
        <pt x="474" y="208" on="0"/>
        <pt x="522" y="190" on="0"/>
        <pt x="557" y="186" on="1"/>
        <pt x="615" y="178" on="0"/>
      </contour>
      <contour>
        <pt x="552" y="941" on="1"/>
        <pt x="552" y="1034" on="0"/>
        <pt x="476" y="1034" on="1"/>
        <pt x="428" y="1034" on="0"/>
        <pt x="390" y="973" on="0"/>
        <pt x="390" y="918" on="1"/>
        <pt x="390" y="869" on="1"/>
        <pt x="465" y="869" on="1"/>
        <pt x="552" y="869" on="0"/>
      </contour>
    </TTGlyph>
    <TTGlyph name="uni0E94" xMin="128" yMin="0" xMax="1275" yMax="1170">
      <contour>
        <pt x="990" y="693" on="1"/>
        <pt x="990" y="859" on="0"/>
        <pt x="862" y="991" on="0"/>
        <pt x="699" y="991" on="1"/>
        <pt x="591" y="991" on="0"/>
        <pt x="467" y="936" on="0"/>
        <pt x="410" y="812" on="0"/>
        <pt x="410" y="704" on="1"/>
        <pt x="410" y="408" on="1"/>
        <pt x="449" y="421" on="1"/>
        <pt x="477" y="430" on="0"/>
        <pt x="576" y="430" on="0"/>
        <pt x="622" y="403" on="1"/>
        <pt x="716" y="347" on="0"/>
        <pt x="716" y="219" on="1"/>
        <pt x="716" y="98" on="0"/>
        <pt x="638" y="48" on="1"/>
        <pt x="564" y="0" on="0"/>
        <pt x="332" y="0" on="0"/>
        <pt x="263" y="48" on="1"/>
        <pt x="128" y="141" on="0"/>
        <pt x="128" y="355" on="1"/>
        <pt x="128" y="697" on="1"/>
        <pt x="128" y="1004" on="0"/>
        <pt x="344" y="1106" on="1"/>
        <pt x="479" y="1170" on="0"/>
        <pt x="699" y="1170" on="1"/>
        <pt x="1042" y="1170" on="0"/>
        <pt x="1176" y="1017" on="1"/>
        <pt x="1276" y="904" on="0"/>
        <pt x="1275" y="697" on="1"/>
        <pt x="1275" y="0" on="1"/>
        <pt x="990" y="0" on="1"/>
      </contour>
      <contour>
        <pt x="410" y="241" on="1"/>
        <pt x="410" y="147" on="0"/>
        <pt x="479" y="147" on="1"/>
        <pt x="540" y="147" on="0"/>
        <pt x="540" y="225" on="1"/>
        <pt x="540" y="260" on="0"/>
        <pt x="499" y="300" on="0"/>
        <pt x="463" y="300" on="1"/>
        <pt x="410" y="300" on="1"/>
      </contour>
    </TTGlyph>
    <TTGlyph name="uni0E95" xMin="128" yMin="0" xMax="1576" yMax="1170">
      <contour>
        <pt x="855" y="994" on="1"/>
        <pt x="887" y="1077" on="0"/>
        <pt x="1049" y="1170" on="0"/>
        <pt x="1164" y="1170" on="1"/>
        <pt x="1576" y="1170" on="0"/>
        <pt x="1576" y="693" on="1"/>
        <pt x="1576" y="0" on="1"/>
        <pt x="1292" y="0" on="1"/>
        <pt x="1292" y="713" on="1"/>
        <pt x="1292" y="831" on="0"/>
        <pt x="1269" y="907" on="0"/>
        <pt x="1245" y="950" on="0"/>
        <pt x="1228" y="962" on="1"/>
        <pt x="1189" y="990" on="0"/>
        <pt x="1096" y="991" on="0"/>
        <pt x="1046" y="962" on="0"/>
        <pt x="1018" y="918" on="0"/>
        <pt x="1010" y="884" on="1"/>
        <pt x="997" y="829" on="0"/>
        <pt x="997" y="748" on="1"/>
        <pt x="997" y="558" on="1"/>
        <pt x="713" y="558" on="1"/>
        <pt x="713" y="709" on="1"/>
        <pt x="713" y="827" on="0"/>
        <pt x="696" y="898" on="0"/>
        <pt x="686" y="922" on="1"/>
        <pt x="674" y="946" on="0"/>
        <pt x="660" y="960" on="1"/>
        <pt x="626" y="992" on="0"/>
        <pt x="530" y="991" on="0"/>
        <pt x="470" y="968" on="0"/>
        <pt x="452" y="950" on="1"/>
        <pt x="436" y="932" on="0"/>
        <pt x="426" y="898" on="1"/>
        <pt x="412" y="847" on="0"/>
        <pt x="411" y="748" on="1"/>
        <pt x="411" y="410" on="1"/>
        <pt x="451" y="423" on="1"/>
        <pt x="487" y="434" on="0"/>
        <pt x="519" y="434" on="1"/>
        <pt x="607" y="434" on="0"/>
        <pt x="718" y="311" on="0"/>
        <pt x="718" y="219" on="1"/>
        <pt x="718" y="0" on="0"/>
        <pt x="437" y="0" on="1"/>
        <pt x="340" y="0" on="0"/>
        <pt x="270" y="43" on="1"/>
        <pt x="128" y="129" on="0"/>
        <pt x="128" y="337" on="1"/>
        <pt x="128" y="697" on="1"/>
        <pt x="128" y="935" on="0"/>
        <pt x="329" y="1170" on="0"/>
        <pt x="549" y="1170" on="1"/>
        <pt x="666" y="1170" on="0"/>
        <pt x="825" y="1079" on="0"/>
      </contour>
      <contour>
        <pt x="480" y="147" on="1"/>
        <pt x="541" y="147" on="0"/>
        <pt x="541" y="225" on="1"/>
        <pt x="539" y="299" on="0"/>
        <pt x="463" y="299" on="1"/>
        <pt x="411" y="299" on="1"/>
        <pt x="411" y="235" on="1"/>
        <pt x="411" y="147" on="0"/>
      </contour>
    </TTGlyph>
</ttFont>
